<?xml version="1.0" encoding="utf-8" standalone="no"?>
<!DOCTYPE svg PUBLIC "-//W3C//DTD SVG 1.1//EN"
  "http://www.w3.org/Graphics/SVG/1.1/DTD/svg11.dtd">
<svg xmlns:xlink="http://www.w3.org/1999/xlink" width="720pt" height="720pt" viewBox="0 0 720 720" xmlns="http://www.w3.org/2000/svg" version="1.1">
 <metadata>
  <rdf:RDF xmlns:dc="http://purl.org/dc/elements/1.1/" xmlns:cc="http://creativecommons.org/ns#" xmlns:rdf="http://www.w3.org/1999/02/22-rdf-syntax-ns#">
   <cc:Work>
    <dc:type rdf:resource="http://purl.org/dc/dcmitype/StillImage"/>
    <dc:date>2023-06-01T17:12:32.543631</dc:date>
    <dc:format>image/svg+xml</dc:format>
    <dc:creator>
     <cc:Agent>
      <dc:title>Matplotlib v3.6.3, https://matplotlib.org/</dc:title>
     </cc:Agent>
    </dc:creator>
   </cc:Work>
  </rdf:RDF>
 </metadata>
 <defs>
  <style type="text/css">*{stroke-linejoin: round; stroke-linecap: butt}</style>
 </defs>
 <g id="figure_1">
  <g id="patch_1">
   <path d="M 0 720 
L 720 720 
L 720 0 
L 0 0 
z
" style="fill: #ffffff"/>
  </g>
  <g id="axes_1">
   <g id="patch_2">
    <path d="M 84.71 647.08 
L 676.08 647.08 
L 676.08 29.52 
L 84.71 29.52 
z
" style="fill: #ffffff"/>
   </g>
   <g id="PathCollection_1">
    <defs>
     <path id="mf8447813e8" d="M 0 4.1833 
C 1.109424 4.1833 2.173559 3.742521 2.95804 2.95804 
C 3.742521 2.173559 4.1833 1.109424 4.1833 0 
C 4.1833 -1.109424 3.742521 -2.173559 2.95804 -2.95804 
C 2.173559 -3.742521 1.109424 -4.1833 0 -4.1833 
C -1.109424 -4.1833 -2.173559 -3.742521 -2.95804 -2.95804 
C -3.742521 -2.173559 -4.1833 -1.109424 -4.1833 0 
C -4.1833 1.109424 -3.742521 2.173559 -2.95804 2.95804 
C -2.173559 3.742521 -1.109424 4.1833 0 4.1833 
z
" style="stroke: #4494ff"/>
    </defs>
    <g clip-path="url(#p2b06312cfc)">
     <use xlink:href="#mf8447813e8" x="311.976942" y="252.851746" style="fill: #4494ff; stroke: #4494ff"/>
    </g>
   </g>
   <g id="PathCollection_2">
    <g clip-path="url(#p2b06312cfc)">
     <use xlink:href="#mf8447813e8" x="314.3567" y="257.034438" style="fill: #4494ff; stroke: #4494ff"/>
    </g>
   </g>
   <g id="PathCollection_3">
    <g clip-path="url(#p2b06312cfc)">
     <use xlink:href="#mf8447813e8" x="333.394769" y="226.733289" style="fill: #4494ff; stroke: #4494ff"/>
    </g>
   </g>
   <g id="PathCollection_4">
    <g clip-path="url(#p2b06312cfc)">
     <use xlink:href="#mf8447813e8" x="323.875734" y="239.692863" style="fill: #4494ff; stroke: #4494ff"/>
    </g>
   </g>
   <g id="PathCollection_5">
    <g clip-path="url(#p2b06312cfc)">
     <use xlink:href="#mf8447813e8" x="341.723924" y="235.566803" style="fill: #4494ff; stroke: #4494ff"/>
    </g>
   </g>
   <g id="PathCollection_6">
    <g clip-path="url(#p2b06312cfc)">
     <use xlink:href="#mf8447813e8" x="357.192354" y="228.816543" style="fill: #4494ff; stroke: #4494ff"/>
    </g>
   </g>
   <g id="PathCollection_7">
    <g clip-path="url(#p2b06312cfc)">
     <use xlink:href="#mf8447813e8" x="375.040543" y="202.045058" style="fill: #4494ff; stroke: #4494ff"/>
    </g>
   </g>
   <g id="PathCollection_8">
    <g clip-path="url(#p2b06312cfc)">
     <use xlink:href="#mf8447813e8" x="372.660785" y="201.655487" style="fill: #4494ff; stroke: #4494ff"/>
    </g>
   </g>
   <g id="PathCollection_9">
    <g clip-path="url(#p2b06312cfc)">
     <use xlink:href="#mf8447813e8" x="345.293561" y="237.465454" style="fill: #4494ff; stroke: #4494ff"/>
    </g>
   </g>
   <g id="PathCollection_10">
    <g clip-path="url(#p2b06312cfc)">
     <use xlink:href="#mf8447813e8" x="366.711388" y="212.818386" style="fill: #4494ff; stroke: #4494ff"/>
    </g>
   </g>
   <g id="PathCollection_11">
    <g clip-path="url(#p2b06312cfc)">
     <use xlink:href="#mf8447813e8" x="363.141751" y="213.578834" style="fill: #4494ff; stroke: #4494ff"/>
    </g>
   </g>
   <g id="PathCollection_12">
    <g clip-path="url(#p2b06312cfc)">
     <use xlink:href="#mf8447813e8" x="401.217887" y="179.077972" style="fill: #4494ff; stroke: #4494ff"/>
    </g>
   </g>
   <g id="PathCollection_13">
    <g clip-path="url(#p2b06312cfc)">
     <use xlink:href="#mf8447813e8" x="389.319095" y="194.413573" style="fill: #4494ff; stroke: #4494ff"/>
    </g>
   </g>
   <g id="PathCollection_14">
    <g clip-path="url(#p2b06312cfc)">
     <use xlink:href="#mf8447813e8" x="385.749457" y="183.344036" style="fill: #4494ff; stroke: #4494ff"/>
    </g>
   </g>
   <g id="PathCollection_15">
    <g clip-path="url(#p2b06312cfc)">
     <use xlink:href="#mf8447813e8" x="382.179819" y="193.324313" style="fill: #4494ff; stroke: #4494ff"/>
    </g>
   </g>
   <g id="PathCollection_16">
    <g clip-path="url(#p2b06312cfc)">
     <use xlink:href="#mf8447813e8" x="364.33163" y="209.99327" style="fill: #4494ff; stroke: #4494ff"/>
    </g>
   </g>
   <g id="PathCollection_17">
    <g clip-path="url(#p2b06312cfc)">
     <use xlink:href="#mf8447813e8" x="334.584648" y="245.675901" style="fill: #4494ff; stroke: #4494ff"/>
    </g>
   </g>
   <g id="PathCollection_18">
    <g clip-path="url(#p2b06312cfc)">
     <use xlink:href="#mf8447813e8" x="371.470905" y="208.92466" style="fill: #4494ff; stroke: #4494ff"/>
    </g>
   </g>
   <g id="PathCollection_19">
    <g clip-path="url(#p2b06312cfc)">
     <use xlink:href="#mf8447813e8" x="396.45837" y="180.993533" style="fill: #4494ff; stroke: #4494ff"/>
    </g>
   </g>
   <g id="PathCollection_20">
    <g clip-path="url(#p2b06312cfc)">
     <use xlink:href="#mf8447813e8" x="385.749457" y="187.231518" style="fill: #4494ff; stroke: #4494ff"/>
    </g>
   </g>
   <g id="PathCollection_21">
    <g clip-path="url(#p2b06312cfc)">
     <use xlink:href="#mf8447813e8" x="394.078612" y="185.812092" style="fill: #4494ff; stroke: #4494ff"/>
    </g>
   </g>
   <g id="PathCollection_22">
    <g clip-path="url(#p2b06312cfc)">
     <use xlink:href="#mf8447813e8" x="390.508974" y="180.374961" style="fill: #4494ff; stroke: #4494ff"/>
    </g>
   </g>
   <g id="PathCollection_23">
    <g clip-path="url(#p2b06312cfc)">
     <use xlink:href="#mf8447813e8" x="404.787525" y="185.892862" style="fill: #4494ff; stroke: #4494ff"/>
    </g>
   </g>
   <g id="PathCollection_24">
    <g clip-path="url(#p2b06312cfc)">
     <use xlink:href="#mf8447813e8" x="402.407767" y="175.435283" style="fill: #4494ff; stroke: #4494ff"/>
    </g>
   </g>
   <g id="PathCollection_25">
    <defs>
     <path id="mca0f0ac128" d="M -4.1833 4.1833 
L 4.1833 4.1833 
L 4.1833 -4.1833 
L -4.1833 -4.1833 
z
" style="stroke: #ffb522"/>
    </defs>
    <g clip-path="url(#p2b06312cfc)">
     <use xlink:href="#mca0f0ac128" x="302.457907" y="282.369308" style="fill: #ffb522; stroke: #ffb522"/>
    </g>
   </g>
   <g id="PathCollection_26">
    <g clip-path="url(#p2b06312cfc)">
     <use xlink:href="#mca0f0ac128" x="308.407304" y="265.441413" style="fill: #ffb522; stroke: #ffb522"/>
    </g>
   </g>
   <g id="PathCollection_27">
    <g clip-path="url(#p2b06312cfc)">
     <use xlink:href="#mca0f0ac128" x="348.863199" y="227.987335" style="fill: #ffb522; stroke: #ffb522"/>
    </g>
   </g>
   <g id="PathCollection_28">
    <g clip-path="url(#p2b06312cfc)">
     <use xlink:href="#mca0f0ac128" x="367.901268" y="219.077289" style="fill: #ffb522; stroke: #ffb522"/>
    </g>
   </g>
   <g id="PathCollection_29">
    <g clip-path="url(#p2b06312cfc)">
     <use xlink:href="#mca0f0ac128" x="413.11668" y="201.68237" style="fill: #ffb522; stroke: #ffb522"/>
    </g>
   </g>
   <g id="PathCollection_30">
    <g clip-path="url(#p2b06312cfc)">
     <use xlink:href="#mca0f0ac128" x="385.749457" y="213.120578" style="fill: #ffb522; stroke: #ffb522"/>
    </g>
   </g>
   <g id="PathCollection_31">
    <g clip-path="url(#p2b06312cfc)">
     <use xlink:href="#mca0f0ac128" x="404.787525" y="185.372351" style="fill: #ffb522; stroke: #ffb522"/>
    </g>
   </g>
   <g id="PathCollection_32">
    <g clip-path="url(#p2b06312cfc)">
     <use xlink:href="#mca0f0ac128" x="411.926801" y="184.314176" style="fill: #ffb522; stroke: #ffb522"/>
    </g>
   </g>
   <g id="PathCollection_33">
    <g clip-path="url(#p2b06312cfc)">
     <use xlink:href="#mca0f0ac128" x="300.078149" y="281.504961" style="fill: #ffb522; stroke: #ffb522"/>
    </g>
   </g>
   <g id="PathCollection_34">
    <g clip-path="url(#p2b06312cfc)">
     <use xlink:href="#mca0f0ac128" x="297.69839" y="275.371643" style="fill: #ffb522; stroke: #ffb522"/>
    </g>
   </g>
   <g id="PathCollection_35">
    <g clip-path="url(#p2b06312cfc)">
     <use xlink:href="#mca0f0ac128" x="357.192354" y="221.824386" style="fill: #ffb522; stroke: #ffb522"/>
    </g>
   </g>
   <g id="PathCollection_36">
    <g clip-path="url(#p2b06312cfc)">
     <use xlink:href="#mca0f0ac128" x="380.98994" y="198.193874" style="fill: #ffb522; stroke: #ffb522"/>
    </g>
   </g>
   <g id="PathCollection_37">
    <g clip-path="url(#p2b06312cfc)">
     <use xlink:href="#mca0f0ac128" x="402.407767" y="211.108811" style="fill: #ffb522; stroke: #ffb522"/>
    </g>
   </g>
   <g id="PathCollection_38">
    <g clip-path="url(#p2b06312cfc)">
     <use xlink:href="#mca0f0ac128" x="398.838129" y="215.898259" style="fill: #ffb522; stroke: #ffb522"/>
    </g>
   </g>
   <g id="PathCollection_39">
    <g clip-path="url(#p2b06312cfc)">
     <use xlink:href="#mca0f0ac128" x="395.268491" y="189.9058" style="fill: #ffb522; stroke: #ffb522"/>
    </g>
   </g>
   <g id="PathCollection_40">
    <g clip-path="url(#p2b06312cfc)">
     <use xlink:href="#mca0f0ac128" x="413.11668" y="192.357434" style="fill: #ffb522; stroke: #ffb522"/>
    </g>
   </g>
   <g id="PathCollection_41">
    <g clip-path="url(#p2b06312cfc)">
     <use xlink:href="#mca0f0ac128" x="290.559115" y="307.812634" style="fill: #ffb522; stroke: #ffb522"/>
    </g>
   </g>
   <g id="PathCollection_42">
    <g clip-path="url(#p2b06312cfc)">
     <use xlink:href="#mca0f0ac128" x="297.69839" y="295.672684" style="fill: #ffb522; stroke: #ffb522"/>
    </g>
   </g>
   <g id="PathCollection_43">
    <g clip-path="url(#p2b06312cfc)">
     <use xlink:href="#mca0f0ac128" x="339.344165" y="245.862024" style="fill: #ffb522; stroke: #ffb522"/>
    </g>
   </g>
   <g id="PathCollection_44">
    <g clip-path="url(#p2b06312cfc)">
     <use xlink:href="#mca0f0ac128" x="375.040543" y="196.672497" style="fill: #ffb522; stroke: #ffb522"/>
    </g>
   </g>
   <g id="PathCollection_45">
    <g clip-path="url(#p2b06312cfc)">
     <use xlink:href="#mca0f0ac128" x="342.913803" y="256.32627" style="fill: #ffb522; stroke: #ffb522"/>
    </g>
   </g>
   <g id="PathCollection_46">
    <g clip-path="url(#p2b06312cfc)">
     <use xlink:href="#mca0f0ac128" x="428.585111" y="179.848243" style="fill: #ffb522; stroke: #ffb522"/>
    </g>
   </g>
   <g id="PathCollection_47">
    <g clip-path="url(#p2b06312cfc)">
     <use xlink:href="#mca0f0ac128" x="329.825131" y="249.104653" style="fill: #ffb522; stroke: #ffb522"/>
    </g>
   </g>
   <g id="PathCollection_48">
    <g clip-path="url(#p2b06312cfc)">
     <use xlink:href="#mca0f0ac128" x="407.167284" y="188.724462" style="fill: #ffb522; stroke: #ffb522"/>
    </g>
   </g>
   <g id="PathCollection_49">
    <g clip-path="url(#p2b06312cfc)">
     <use xlink:href="#mca0f0ac128" x="310.787062" y="287.021925" style="fill: #ffb522; stroke: #ffb522"/>
    </g>
   </g>
   <g id="PathCollection_50">
    <g clip-path="url(#p2b06312cfc)">
     <use xlink:href="#mca0f0ac128" x="294.128753" y="299.709474" style="fill: #ffb522; stroke: #ffb522"/>
    </g>
   </g>
   <g id="PathCollection_51">
    <g clip-path="url(#p2b06312cfc)">
     <use xlink:href="#mca0f0ac128" x="327.445372" y="256.389004" style="fill: #ffb522; stroke: #ffb522"/>
    </g>
   </g>
   <g id="PathCollection_52">
    <g clip-path="url(#p2b06312cfc)">
     <use xlink:href="#mca0f0ac128" x="366.711388" y="213.834952" style="fill: #ffb522; stroke: #ffb522"/>
    </g>
   </g>
   <g id="PathCollection_53">
    <g clip-path="url(#p2b06312cfc)">
     <use xlink:href="#mca0f0ac128" x="397.648249" y="182.431629" style="fill: #ffb522; stroke: #ffb522"/>
    </g>
   </g>
   <g id="PathCollection_54">
    <g clip-path="url(#p2b06312cfc)">
     <use xlink:href="#mca0f0ac128" x="407.167284" y="186.507512" style="fill: #ffb522; stroke: #ffb522"/>
    </g>
   </g>
   <g id="PathCollection_55">
    <g clip-path="url(#p2b06312cfc)">
     <use xlink:href="#mca0f0ac128" x="407.167284" y="182.144708" style="fill: #ffb522; stroke: #ffb522"/>
    </g>
   </g>
   <g id="PathCollection_56">
    <g clip-path="url(#p2b06312cfc)">
     <use xlink:href="#mca0f0ac128" x="394.078612" y="195.118865" style="fill: #ffb522; stroke: #ffb522"/>
    </g>
   </g>
   <g id="PathCollection_57">
    <defs>
     <path id="m9025d38b46" d="M -4.1833 4.1833 
L 4.1833 -4.1833 
M -4.1833 -4.1833 
L 4.1833 4.1833 
" style="stroke: #ea7dff; stroke-width: 1.5"/>
    </defs>
    <g clip-path="url(#p2b06312cfc)">
     <use xlink:href="#m9025d38b46" x="187.039618" y="373.425942" style="fill: #ea7dff; stroke: #ea7dff; stroke-width: 1.5"/>
    </g>
   </g>
   <g id="PathCollection_58">
    <g clip-path="url(#p2b06312cfc)">
     <use xlink:href="#m9025d38b46" x="262.002012" y="314.807384" style="fill: #ea7dff; stroke: #ea7dff; stroke-width: 1.5"/>
    </g>
   </g>
   <g id="PathCollection_59">
    <g clip-path="url(#p2b06312cfc)">
     <use xlink:href="#m9025d38b46" x="279.850201" y="304.767845" style="fill: #ea7dff; stroke: #ea7dff; stroke-width: 1.5"/>
    </g>
   </g>
   <g id="PathCollection_60">
    <g clip-path="url(#p2b06312cfc)">
     <use xlink:href="#m9025d38b46" x="310.787062" y="262.473009" style="fill: #ea7dff; stroke: #ea7dff; stroke-width: 1.5"/>
    </g>
   </g>
   <g id="PathCollection_61">
    <g clip-path="url(#p2b06312cfc)">
     <use xlink:href="#m9025d38b46" x="135.874809" y="368.291373" style="fill: #ea7dff; stroke: #ea7dff; stroke-width: 1.5"/>
    </g>
   </g>
   <g id="PathCollection_62">
    <g clip-path="url(#p2b06312cfc)">
     <use xlink:href="#m9025d38b46" x="244.153823" y="314.104714" style="fill: #ea7dff; stroke: #ea7dff; stroke-width: 1.5"/>
    </g>
   </g>
   <g id="PathCollection_63">
    <g clip-path="url(#p2b06312cfc)">
     <use xlink:href="#m9025d38b46" x="272.710926" y="301.166924" style="fill: #ea7dff; stroke: #ea7dff; stroke-width: 1.5"/>
    </g>
   </g>
   <g id="PathCollection_64">
    <g clip-path="url(#p2b06312cfc)">
     <use xlink:href="#m9025d38b46" x="267.951408" y="284.004457" style="fill: #ea7dff; stroke: #ea7dff; stroke-width: 1.5"/>
    </g>
   </g>
   <g id="PathCollection_65">
    <defs>
     <path id="m2c0ef25ac3" d="M 0 -4.1833 
L -4.1833 4.1833 
L 4.1833 4.1833 
z
" style="stroke: #91aac2"/>
    </defs>
    <g clip-path="url(#p2b06312cfc)">
     <use xlink:href="#m2c0ef25ac3" x="281.04008" y="270.57054" style="fill: #91aac2; stroke: #91aac2"/>
    </g>
   </g>
   <g id="PathCollection_66">
    <g clip-path="url(#p2b06312cfc)">
     <use xlink:href="#m2c0ef25ac3" x="269.141288" y="280.072442" style="fill: #91aac2; stroke: #91aac2"/>
    </g>
   </g>
   <g id="PathCollection_67">
    <g clip-path="url(#p2b06312cfc)">
     <use xlink:href="#m2c0ef25ac3" x="265.57165" y="286.027961" style="fill: #91aac2; stroke: #91aac2"/>
    </g>
   </g>
   <g id="PathCollection_68">
    <g clip-path="url(#p2b06312cfc)">
     <use xlink:href="#m2c0ef25ac3" x="266.761529" y="288.449911" style="fill: #91aac2; stroke: #91aac2"/>
    </g>
   </g>
   <g id="PathCollection_69">
    <g clip-path="url(#p2b06312cfc)">
     <use xlink:href="#m2c0ef25ac3" x="291.748994" y="284.622455" style="fill: #91aac2; stroke: #91aac2"/>
    </g>
   </g>
   <g id="PathCollection_70">
    <g clip-path="url(#p2b06312cfc)">
     <use xlink:href="#m2c0ef25ac3" x="277.470443" y="301.29205" style="fill: #91aac2; stroke: #91aac2"/>
    </g>
   </g>
   <g id="PathCollection_71">
    <g clip-path="url(#p2b06312cfc)">
     <use xlink:href="#m2c0ef25ac3" x="296.508511" y="281.715935" style="fill: #91aac2; stroke: #91aac2"/>
    </g>
   </g>
   <g id="PathCollection_72">
    <g clip-path="url(#p2b06312cfc)">
     <use xlink:href="#m2c0ef25ac3" x="285.799598" y="284.979962" style="fill: #91aac2; stroke: #91aac2"/>
    </g>
   </g>
   <g id="PathCollection_73">
    <g clip-path="url(#p2b06312cfc)">
     <use xlink:href="#m2c0ef25ac3" x="295.318632" y="262.181423" style="fill: #91aac2; stroke: #91aac2"/>
    </g>
   </g>
   <g id="PathCollection_74">
    <g clip-path="url(#p2b06312cfc)">
     <use xlink:href="#m2c0ef25ac3" x="300.078149" y="259.279969" style="fill: #91aac2; stroke: #91aac2"/>
    </g>
   </g>
   <g id="PathCollection_75">
    <g clip-path="url(#p2b06312cfc)">
     <use xlink:href="#m2c0ef25ac3" x="309.597183" y="261.997393" style="fill: #91aac2; stroke: #91aac2"/>
    </g>
   </g>
   <g id="PathCollection_76">
    <g clip-path="url(#p2b06312cfc)">
     <use xlink:href="#m2c0ef25ac3" x="322.685855" y="261.379206" style="fill: #91aac2; stroke: #91aac2"/>
    </g>
   </g>
   <g id="PathCollection_77">
    <g clip-path="url(#p2b06312cfc)">
     <use xlink:href="#m2c0ef25ac3" x="327.445372" y="266.442898" style="fill: #91aac2; stroke: #91aac2"/>
    </g>
   </g>
   <g id="PathCollection_78">
    <g clip-path="url(#p2b06312cfc)">
     <use xlink:href="#m2c0ef25ac3" x="325.065614" y="274.879732" style="fill: #91aac2; stroke: #91aac2"/>
    </g>
   </g>
   <g id="PathCollection_79">
    <g clip-path="url(#p2b06312cfc)">
     <use xlink:href="#m2c0ef25ac3" x="327.445372" y="262.554817" style="fill: #91aac2; stroke: #91aac2"/>
    </g>
   </g>
   <g id="PathCollection_80">
    <g clip-path="url(#p2b06312cfc)">
     <use xlink:href="#m2c0ef25ac3" x="327.445372" y="259.582021" style="fill: #91aac2; stroke: #91aac2"/>
    </g>
   </g>
   <g id="PathCollection_81">
    <g clip-path="url(#p2b06312cfc)">
     <use xlink:href="#m2c0ef25ac3" x="276.280563" y="274.760786" style="fill: #91aac2; stroke: #91aac2"/>
    </g>
   </g>
   <g id="PathCollection_82">
    <g clip-path="url(#p2b06312cfc)">
     <use xlink:href="#m2c0ef25ac3" x="281.04008" y="278.419832" style="fill: #91aac2; stroke: #91aac2"/>
    </g>
   </g>
   <g id="PathCollection_83">
    <g clip-path="url(#p2b06312cfc)">
     <use xlink:href="#m2c0ef25ac3" x="283.419839" y="280.073164" style="fill: #91aac2; stroke: #91aac2"/>
    </g>
   </g>
   <g id="PathCollection_84">
    <g clip-path="url(#p2b06312cfc)">
     <use xlink:href="#m2c0ef25ac3" x="294.128753" y="268.065537" style="fill: #91aac2; stroke: #91aac2"/>
    </g>
   </g>
   <g id="PathCollection_85">
    <g clip-path="url(#p2b06312cfc)">
     <use xlink:href="#m2c0ef25ac3" x="289.369235" y="306.364323" style="fill: #91aac2; stroke: #91aac2"/>
    </g>
   </g>
   <g id="PathCollection_86">
    <g clip-path="url(#p2b06312cfc)">
     <use xlink:href="#m2c0ef25ac3" x="311.976942" y="262.320835" style="fill: #91aac2; stroke: #91aac2"/>
    </g>
   </g>
   <g id="PathCollection_87">
    <g clip-path="url(#p2b06312cfc)">
     <use xlink:href="#m2c0ef25ac3" x="301.268028" y="282.28313" style="fill: #91aac2; stroke: #91aac2"/>
    </g>
   </g>
   <g id="PathCollection_88">
    <g clip-path="url(#p2b06312cfc)">
     <use xlink:href="#m2c0ef25ac3" x="297.69839" y="265.157992" style="fill: #91aac2; stroke: #91aac2"/>
    </g>
   </g>
   <g id="PathCollection_89">
    <g clip-path="url(#p2b06312cfc)">
     <use xlink:href="#m2c0ef25ac3" x="278.660322" y="285.252991" style="fill: #91aac2; stroke: #91aac2"/>
    </g>
   </g>
   <g id="PathCollection_90">
    <g clip-path="url(#p2b06312cfc)">
     <use xlink:href="#m2c0ef25ac3" x="281.04008" y="278.448777" style="fill: #91aac2; stroke: #91aac2"/>
    </g>
   </g>
   <g id="PathCollection_91">
    <g clip-path="url(#p2b06312cfc)">
     <use xlink:href="#m2c0ef25ac3" x="281.04008" y="280.007247" style="fill: #91aac2; stroke: #91aac2"/>
    </g>
   </g>
   <g id="PathCollection_92">
    <g clip-path="url(#p2b06312cfc)">
     <use xlink:href="#m2c0ef25ac3" x="282.22996" y="281.657353" style="fill: #91aac2; stroke: #91aac2"/>
    </g>
   </g>
   <g id="PathCollection_93">
    <g clip-path="url(#p2b06312cfc)">
     <use xlink:href="#m2c0ef25ac3" x="296.508511" y="269.320075" style="fill: #91aac2; stroke: #91aac2"/>
    </g>
   </g>
   <g id="PathCollection_94">
    <g clip-path="url(#p2b06312cfc)">
     <use xlink:href="#m2c0ef25ac3" x="295.318632" y="276.179226" style="fill: #91aac2; stroke: #91aac2"/>
    </g>
   </g>
   <g id="PathCollection_95">
    <g clip-path="url(#p2b06312cfc)">
     <use xlink:href="#m2c0ef25ac3" x="296.508511" y="270.192397" style="fill: #91aac2; stroke: #91aac2"/>
    </g>
   </g>
   <g id="PathCollection_96">
    <g clip-path="url(#p2b06312cfc)">
     <use xlink:href="#m2c0ef25ac3" x="298.88827" y="260.020727" style="fill: #91aac2; stroke: #91aac2"/>
    </g>
   </g>
   <g id="PathCollection_97">
    <g clip-path="url(#p2b06312cfc)">
     <use xlink:href="#m2c0ef25ac3" x="271.521046" y="289.937516" style="fill: #91aac2; stroke: #91aac2"/>
    </g>
   </g>
   <g id="PathCollection_98">
    <g clip-path="url(#p2b06312cfc)">
     <use xlink:href="#m2c0ef25ac3" x="279.850201" y="286.654355" style="fill: #91aac2; stroke: #91aac2"/>
    </g>
   </g>
   <g id="PathCollection_99">
    <g clip-path="url(#p2b06312cfc)">
     <use xlink:href="#m2c0ef25ac3" x="282.22996" y="280.715368" style="fill: #91aac2; stroke: #91aac2"/>
    </g>
   </g>
   <g id="PathCollection_100">
    <g clip-path="url(#p2b06312cfc)">
     <use xlink:href="#m2c0ef25ac3" x="291.748994" y="286.688784" style="fill: #91aac2; stroke: #91aac2"/>
    </g>
   </g>
   <g id="PathCollection_101">
    <g clip-path="url(#p2b06312cfc)">
     <use xlink:href="#m2c0ef25ac3" x="295.318632" y="269.723258" style="fill: #91aac2; stroke: #91aac2"/>
    </g>
   </g>
   <g id="PathCollection_102">
    <g clip-path="url(#p2b06312cfc)">
     <use xlink:href="#m2c0ef25ac3" x="285.799598" y="297.062918" style="fill: #91aac2; stroke: #91aac2"/>
    </g>
   </g>
   <g id="PathCollection_103">
    <g clip-path="url(#p2b06312cfc)">
     <use xlink:href="#m2c0ef25ac3" x="294.128753" y="276.36873" style="fill: #91aac2; stroke: #91aac2"/>
    </g>
   </g>
   <g id="PathCollection_104">
    <g clip-path="url(#p2b06312cfc)">
     <use xlink:href="#m2c0ef25ac3" x="292.938873" y="278.278682" style="fill: #91aac2; stroke: #91aac2"/>
    </g>
   </g>
   <g id="PathCollection_105">
    <g clip-path="url(#p2b06312cfc)">
     <use xlink:href="#m2c0ef25ac3" x="196.558652" y="339.53118" style="fill: #91aac2; stroke: #91aac2"/>
    </g>
   </g>
   <g id="PathCollection_106">
    <g clip-path="url(#p2b06312cfc)">
     <use xlink:href="#m2c0ef25ac3" x="220.356237" y="309.618527" style="fill: #91aac2; stroke: #91aac2"/>
    </g>
   </g>
   <g id="PathCollection_107">
    <g clip-path="url(#p2b06312cfc)">
     <use xlink:href="#m2c0ef25ac3" x="256.052616" y="278.572269" style="fill: #91aac2; stroke: #91aac2"/>
    </g>
   </g>
   <g id="PathCollection_108">
    <g clip-path="url(#p2b06312cfc)">
     <use xlink:href="#m2c0ef25ac3" x="257.242495" y="276.579579" style="fill: #91aac2; stroke: #91aac2"/>
    </g>
   </g>
   <g id="PathCollection_109">
    <g clip-path="url(#p2b06312cfc)">
     <use xlink:href="#m2c0ef25ac3" x="257.242495" y="274.085516" style="fill: #91aac2; stroke: #91aac2"/>
    </g>
   </g>
   <g id="PathCollection_110">
    <g clip-path="url(#p2b06312cfc)">
     <use xlink:href="#m2c0ef25ac3" x="259.622254" y="289.999896" style="fill: #91aac2; stroke: #91aac2"/>
    </g>
   </g>
   <g id="PathCollection_111">
    <g clip-path="url(#p2b06312cfc)">
     <use xlink:href="#m2c0ef25ac3" x="264.381771" y="287.354381" style="fill: #91aac2; stroke: #91aac2"/>
    </g>
   </g>
   <g id="PathCollection_112">
    <g clip-path="url(#p2b06312cfc)">
     <use xlink:href="#m2c0ef25ac3" x="262.002012" y="283.970124" style="fill: #91aac2; stroke: #91aac2"/>
    </g>
   </g>
   <g id="PathCollection_113">
    <g clip-path="url(#p2b06312cfc)">
     <use xlink:href="#m2c0ef25ac3" x="110.887344" y="459.838145" style="fill: #91aac2; stroke: #91aac2"/>
    </g>
   </g>
   <g id="PathCollection_114">
    <g clip-path="url(#p2b06312cfc)">
     <use xlink:href="#m2c0ef25ac3" x="139.444447" y="428.756627" style="fill: #91aac2; stroke: #91aac2"/>
    </g>
   </g>
   <g id="PathCollection_115">
    <g clip-path="url(#p2b06312cfc)">
     <use xlink:href="#m2c0ef25ac3" x="129.925412" y="457.197631" style="fill: #91aac2; stroke: #91aac2"/>
    </g>
   </g>
   <g id="PathCollection_116">
    <g clip-path="url(#p2b06312cfc)">
     <use xlink:href="#m2c0ef25ac3" x="122.786137" y="437.816788" style="fill: #91aac2; stroke: #91aac2"/>
    </g>
   </g>
   <g id="PathCollection_117">
    <g clip-path="url(#p2b06312cfc)">
     <use xlink:href="#m2c0ef25ac3" x="132.305171" y="450.715558" style="fill: #91aac2; stroke: #91aac2"/>
    </g>
   </g>
   <g id="PathCollection_118">
    <g clip-path="url(#p2b06312cfc)">
     <use xlink:href="#m2c0ef25ac3" x="146.583722" y="439.086662" style="fill: #91aac2; stroke: #91aac2"/>
    </g>
   </g>
   <g id="PathCollection_119">
    <g clip-path="url(#p2b06312cfc)">
     <use xlink:href="#m2c0ef25ac3" x="228.685392" y="365.22305" style="fill: #91aac2; stroke: #91aac2"/>
    </g>
   </g>
   <g id="PathCollection_120">
    <g clip-path="url(#p2b06312cfc)">
     <use xlink:href="#m2c0ef25ac3" x="169.191429" y="415.251072" style="fill: #91aac2; stroke: #91aac2"/>
    </g>
   </g>
   <g id="PathCollection_121">
    <g clip-path="url(#p2b06312cfc)">
     <use xlink:href="#m2c0ef25ac3" x="244.153823" y="314.104714" style="fill: #91aac2; stroke: #91aac2"/>
    </g>
   </g>
   <g id="PathCollection_122">
    <g clip-path="url(#p2b06312cfc)">
     <use xlink:href="#m2c0ef25ac3" x="244.153823" y="314.104714" style="fill: #91aac2; stroke: #91aac2"/>
    </g>
   </g>
   <g id="PathCollection_123">
    <g clip-path="url(#p2b06312cfc)">
     <use xlink:href="#m2c0ef25ac3" x="250.103219" y="304.758649" style="fill: #91aac2; stroke: #91aac2"/>
    </g>
   </g>
   <g id="PathCollection_124">
    <g clip-path="url(#p2b06312cfc)">
     <use xlink:href="#m2c0ef25ac3" x="266.761529" y="287.379644" style="fill: #91aac2; stroke: #91aac2"/>
    </g>
   </g>
   <g id="PathCollection_125">
    <g clip-path="url(#p2b06312cfc)">
     <use xlink:href="#m2c0ef25ac3" x="244.153823" y="314.104714" style="fill: #91aac2; stroke: #91aac2"/>
    </g>
   </g>
   <g id="PathCollection_126">
    <g clip-path="url(#p2b06312cfc)">
     <use xlink:href="#m2c0ef25ac3" x="181.090221" y="391.163823" style="fill: #91aac2; stroke: #91aac2"/>
    </g>
   </g>
   <g id="PathCollection_127">
    <g clip-path="url(#p2b06312cfc)">
     <use xlink:href="#m2c0ef25ac3" x="283.419839" y="281.701699" style="fill: #91aac2; stroke: #91aac2"/>
    </g>
   </g>
   <g id="PathCollection_128">
    <g clip-path="url(#p2b06312cfc)">
     <use xlink:href="#m2c0ef25ac3" x="244.153823" y="314.104714" style="fill: #91aac2; stroke: #91aac2"/>
    </g>
   </g>
   <g id="PolyCollection_1">
    <path d="M 84.71 -588.04 
L 84.71 -588.04 
L 114.2785 -588.04 
L 143.847 -588.04 
L 173.4155 -588.04 
L 202.984 -588.04 
L 232.5525 -588.04 
L 262.121 -588.04 
L 291.6895 -588.04 
L 321.258 -588.04 
L 350.8265 -588.04 
L 380.395 -588.04 
L 409.9635 -588.04 
L 439.532 -588.04 
L 469.1005 -588.04 
L 498.669 -588.04 
L 528.2375 -588.04 
L 557.806 -588.04 
L 587.3745 -588.04 
L 616.943 -588.04 
L 646.5115 -588.04 
L 676.08 -588.04 
L 676.08 -588.04 
L 676.08 44.481399 
L 646.5115 52.95081 
L 616.943 56.82042 
L 587.3745 69.076965 
L 557.806 72.341075 
L 528.2375 83.617384 
L 498.669 85.997741 
L 469.1005 87.409887 
L 439.532 100.338072 
L 409.9635 112.574121 
L 380.395 123.122414 
L 350.8265 134.334684 
L 321.258 140.552739 
L 291.6895 150.916525 
L 262.121 152.141572 
L 232.5525 161.077085 
L 202.984 167.716389 
L 173.4155 173.581396 
L 143.847 184.437612 
L 114.2785 193.549787 
L 84.71 198.928306 
z
" clip-path="url(#p2b06312cfc)" style="fill: #d3d3d3; fill-opacity: 0.3; stroke: #d3d3d3; stroke-opacity: 0.3"/>
   </g>
   <g id="PolyCollection_2">
    <defs>
     <path id="ma55d73c0f0" d="M 84.71 -108.937771 
L 84.71 -108.937771 
L 114.2785 -137.728564 
L 143.847 -168.915074 
L 173.4155 -177.521954 
L 202.984 -218.959686 
L 232.5525 -261.329082 
L 262.121 -274.241032 
L 291.6895 -330.350853 
L 321.258 -306.135918 
L 350.8265 -354.614265 
L 380.395 -388.565861 
L 409.9635 -431.215499 
L 439.532 -455.383514 
L 469.1005 -468.976341 
L 498.669 -498.385637 
L 528.2375 -552.262272 
L 557.806 -559.361197 
L 587.3745 -604.360019 
L 616.943 -622.990642 
L 646.5115 -636.649423 
L 676.08 -675.518601 
L 676.08 -675.518601 
L 676.08 -72.92 
L 646.5115 -72.92 
L 616.943 -72.92 
L 587.3745 -72.92 
L 557.806 -72.92 
L 528.2375 -72.92 
L 498.669 -72.92 
L 469.1005 -72.92 
L 439.532 -72.92 
L 409.9635 -72.92 
L 380.395 -72.92 
L 350.8265 -72.92 
L 321.258 -72.92 
L 291.6895 -72.92 
L 262.121 -72.92 
L 232.5525 -72.92 
L 202.984 -72.92 
L 173.4155 -72.92 
L 143.847 -72.92 
L 114.2785 -72.92 
L 84.71 -72.92 
z
" style="stroke: #d3d3d3; stroke-opacity: 0.3"/>
    </defs>
    <g clip-path="url(#p2b06312cfc)">
     <use xlink:href="#ma55d73c0f0" x="0" y="720" style="fill: #d3d3d3; fill-opacity: 0.3; stroke: #d3d3d3; stroke-opacity: 0.3"/>
    </g>
   </g>
   <g id="PolyCollection_3">
    <defs>
     <path id="mb1a975c149" d="M 392.53022 -601.206715 
L 392.53022 -601.206715 
L 393.122182 -601.417892 
L 393.714144 -601.629069 
L 394.306106 -601.840247 
L 394.898068 -602.051424 
L 395.49003 -602.262601 
L 396.081992 -602.473778 
L 396.673954 -602.684955 
L 397.265916 -602.896132 
L 397.857878 -603.107309 
L 398.44984 -603.318486 
L 399.041802 -603.529663 
L 399.633764 -603.74084 
L 400.225726 -603.952017 
L 400.817688 -604.163194 
L 401.40965 -604.374371 
L 402.001612 -604.585548 
L 402.593574 -604.796725 
L 403.185536 -605.007902 
L 403.777497 -605.219079 
L 404.369459 -605.430256 
L 404.961421 -605.641433 
L 405.553383 -605.85261 
L 406.145345 -606.063787 
L 406.737307 -606.274964 
L 407.329269 -606.486141 
L 407.921231 -606.697318 
L 408.513193 -606.908496 
L 409.105155 -607.119673 
L 409.697117 -607.33085 
L 410.289079 -607.560611 
L 410.881041 -607.805577 
L 411.473003 -608.050542 
L 412.064965 -608.295508 
L 412.656927 -608.540474 
L 413.248889 -608.78544 
L 413.840851 -609.030406 
L 414.432813 -609.275372 
L 415.024775 -609.520338 
L 415.616737 -609.765304 
L 416.208699 -610.01027 
L 416.800661 -610.255236 
L 417.392623 -610.500202 
L 417.984585 -610.745168 
L 418.576547 -610.990134 
L 419.168509 -611.2351 
L 419.76047 -611.480066 
L 420.352432 -611.725032 
L 420.944394 -611.969997 
L 421.536356 -612.214963 
L 422.128318 -612.459929 
L 422.72028 -612.704895 
L 423.312242 -612.949861 
L 423.904204 -613.194827 
L 424.496166 -613.439793 
L 425.088128 -613.684759 
L 425.68009 -613.929725 
L 426.272052 -614.174691 
L 426.864014 -614.419657 
L 427.455976 -614.664623 
L 428.047938 -614.909589 
L 428.6399 -615.154555 
L 429.231862 -615.399521 
L 429.823824 -615.644487 
L 430.415786 -615.889453 
L 431.007748 -616.134418 
L 431.59971 -616.379384 
L 432.191672 -616.62435 
L 432.783634 -616.869316 
L 433.375596 -617.114282 
L 433.967558 -617.359248 
L 434.55952 -617.604214 
L 435.151481 -617.84918 
L 435.743443 -618.094146 
L 436.335405 -618.339112 
L 436.927367 -618.584078 
L 437.519329 -618.829044 
L 438.111291 -619.07401 
L 438.703253 -619.318976 
L 439.295215 -619.563942 
L 439.887177 -619.817221 
L 440.479139 -620.076044 
L 441.071101 -620.334867 
L 441.663063 -620.593689 
L 442.255025 -620.852512 
L 442.846987 -621.111334 
L 443.438949 -621.370157 
L 444.030911 -621.628979 
L 444.622873 -621.887802 
L 445.214835 -622.146624 
L 445.806797 -622.405447 
L 446.398759 -622.664269 
L 446.990721 -622.923092 
L 447.582683 -623.181914 
L 448.174645 -623.440737 
L 448.766607 -623.699559 
L 449.358569 -623.958382 
L 449.950531 -624.217205 
L 450.542492 -624.476027 
L 451.134454 -624.73485 
L 451.726416 -624.993672 
L 452.318378 -625.252495 
L 452.91034 -625.511317 
L 453.502302 -625.77014 
L 454.094264 -626.028962 
L 454.686226 -626.287785 
L 455.278188 -626.546607 
L 455.87015 -626.80543 
L 456.462112 -627.064252 
L 457.054074 -627.323075 
L 457.646036 -627.581897 
L 458.237998 -627.84072 
L 458.82996 -628.099543 
L 459.421922 -628.358365 
L 460.013884 -628.617188 
L 460.605846 -628.87601 
L 461.197808 -629.134833 
L 461.78977 -629.393655 
L 462.381732 -629.652478 
L 462.973694 -629.9113 
L 463.565656 -630.170123 
L 464.157618 -630.428945 
L 464.74958 -630.687768 
L 465.341542 -630.94659 
L 465.933504 -631.205413 
L 466.525465 -631.464235 
L 467.117427 -631.723058 
L 467.709389 -631.981881 
L 468.301351 -632.240703 
L 468.893313 -632.499526 
L 469.485275 -632.60849 
L 470.077237 -632.636761 
L 470.669199 -632.665032 
L 471.261161 -632.693303 
L 471.853123 -632.721574 
L 472.445085 -632.749846 
L 473.037047 -632.778117 
L 473.629009 -632.806388 
L 474.220971 -632.834659 
L 474.812933 -632.86293 
L 475.404895 -632.891202 
L 475.996857 -632.919473 
L 476.588819 -632.947744 
L 477.180781 -632.976015 
L 477.772743 -633.004286 
L 478.364705 -633.032558 
L 478.956667 -633.060829 
L 479.548629 -633.0891 
L 480.140591 -633.117371 
L 480.732553 -633.145642 
L 481.324515 -633.173914 
L 481.916476 -633.202185 
L 482.508438 -633.230456 
L 483.1004 -633.258727 
L 483.692362 -633.286998 
L 484.284324 -633.315269 
L 484.876286 -633.343541 
L 485.468248 -633.371812 
L 486.06021 -633.400083 
L 486.652172 -633.428354 
L 487.244134 -633.456625 
L 487.836096 -633.484897 
L 488.428058 -633.513168 
L 489.02002 -633.541439 
L 489.611982 -633.56971 
L 490.203944 -633.597981 
L 490.795906 -633.626253 
L 491.387868 -633.654524 
L 491.97983 -633.682795 
L 492.571792 -633.711066 
L 493.163754 -633.739337 
L 493.755716 -633.767609 
L 494.347678 -633.79588 
L 494.93964 -633.824151 
L 495.531602 -633.852422 
L 496.123564 -633.880693 
L 496.715526 -633.908964 
L 497.307487 -633.937236 
L 497.899449 -633.965507 
L 498.491411 -633.993778 
L 499.083373 -634.035618 
L 499.675335 -634.083273 
L 500.267297 -634.130927 
L 500.859259 -634.178582 
L 501.451221 -634.226237 
L 502.043183 -634.273892 
L 502.635145 -634.321546 
L 503.227107 -634.369201 
L 503.819069 -634.416856 
L 504.411031 -634.464511 
L 505.002993 -634.512166 
L 505.594955 -634.55982 
L 506.186917 -634.607475 
L 506.778879 -634.65513 
L 507.370841 -634.702785 
L 507.962803 -634.750439 
L 508.554765 -634.798094 
L 509.146727 -634.845749 
L 509.738689 -634.893404 
L 510.330651 -634.941059 
L 510.922613 -634.988713 
L 511.514575 -635.036368 
L 512.106537 -635.084023 
L 512.698498 -635.131678 
L 513.29046 -635.179333 
L 513.882422 -635.226987 
L 514.474384 -635.274642 
L 515.066346 -635.322297 
L 515.658308 -635.369952 
L 516.25027 -635.417606 
L 516.842232 -635.465261 
L 517.434194 -635.512916 
L 518.026156 -635.560571 
L 518.618118 -635.608226 
L 519.21008 -635.65588 
L 519.802042 -635.703535 
L 520.394004 -635.75119 
L 520.985966 -635.798845 
L 521.577928 -635.8465 
L 522.16989 -635.894154 
L 522.761852 -635.941809 
L 523.353814 -635.989464 
L 523.945776 -636.037119 
L 524.537738 -636.084773 
L 525.1297 -636.132428 
L 525.721662 -636.180083 
L 526.313624 -636.227738 
L 526.905586 -636.275393 
L 527.497548 -636.323047 
L 528.08951 -636.370702 
L 528.681471 -636.55193 
L 529.273433 -636.777682 
L 529.865395 -637.003434 
L 530.457357 -637.229186 
L 531.049319 -637.454937 
L 531.641281 -637.680689 
L 532.233243 -637.906441 
L 532.825205 -638.132193 
L 533.417167 -638.357945 
L 534.009129 -638.583697 
L 534.601091 -638.809449 
L 535.193053 -639.035201 
L 535.785015 -639.260953 
L 536.376977 -639.486705 
L 536.968939 -639.712457 
L 537.560901 -639.938209 
L 538.152863 -640.163961 
L 538.744825 -640.389713 
L 539.336787 -640.615464 
L 539.928749 -640.841216 
L 540.520711 -641.066968 
L 541.112673 -641.29272 
L 541.704635 -641.518472 
L 542.296597 -641.744224 
L 542.888559 -641.969976 
L 543.480521 -642.195728 
L 544.072482 -642.42148 
L 544.664444 -642.647232 
L 545.256406 -642.872984 
L 545.848368 -643.098736 
L 546.44033 -643.324488 
L 547.032292 -643.55024 
L 547.624254 -643.775991 
L 548.216216 -644.001743 
L 548.808178 -644.227495 
L 549.40014 -644.453247 
L 549.992102 -644.678999 
L 550.584064 -644.904751 
L 551.176026 -645.130503 
L 551.767988 -645.356255 
L 552.35995 -645.582007 
L 552.951912 -645.807759 
L 553.543874 -646.033511 
L 554.135836 -646.259263 
L 554.727798 -646.485015 
L 555.31976 -646.710767 
L 555.911722 -646.936518 
L 556.503684 -647.16227 
L 557.095646 -647.388022 
L 557.687608 -647.613774 
L 558.27957 -647.711203 
L 558.871532 -647.77655 
L 559.463493 -647.841898 
L 560.055455 -647.907245 
L 560.647417 -647.972593 
L 561.239379 -648.03794 
L 561.831341 -648.103288 
L 562.423303 -648.168636 
L 563.015265 -648.233983 
L 563.607227 -648.299331 
L 564.199189 -648.364678 
L 564.791151 -648.430026 
L 565.383113 -648.495373 
L 565.975075 -648.560721 
L 566.567037 -648.626069 
L 567.158999 -648.691416 
L 567.750961 -648.756764 
L 568.342923 -648.822111 
L 568.934885 -648.887459 
L 569.526847 -648.952806 
L 570.118809 -649.018154 
L 570.710771 -649.083501 
L 571.302733 -649.148849 
L 571.894695 -649.214197 
L 572.486657 -649.279544 
L 573.078619 -649.344892 
L 573.670581 -649.410239 
L 574.262543 -649.475587 
L 574.854505 -649.540934 
L 575.446466 -649.606282 
L 576.038428 -649.67163 
L 576.63039 -649.736977 
L 577.222352 -649.802325 
L 577.814314 -649.867672 
L 578.406276 -649.93302 
L 578.998238 -649.998367 
L 579.5902 -650.063715 
L 580.182162 -650.129062 
L 580.774124 -650.19441 
L 581.366086 -650.259758 
L 581.958048 -650.325105 
L 582.55001 -650.390453 
L 583.141972 -650.4558 
L 583.733934 -650.521148 
L 584.325896 -650.586495 
L 584.917858 -650.651843 
L 585.50982 -650.717191 
L 586.101782 -650.782538 
L 586.693744 -650.847886 
L 587.285706 -650.913233 
L 587.877668 -651.131605 
L 588.46963 -651.376981 
L 589.061592 -651.622358 
L 589.653554 -651.867734 
L 590.245516 -652.11311 
L 590.837477 -652.358487 
L 591.429439 -652.603863 
L 592.021401 -652.849239 
L 592.613363 -653.094615 
L 593.205325 -653.339992 
L 593.797287 -653.585368 
L 594.389249 -653.830744 
L 594.981211 -654.07612 
L 595.573173 -654.321497 
L 596.165135 -654.566873 
L 596.757097 -654.812249 
L 597.349059 -655.057625 
L 597.941021 -655.303002 
L 598.532983 -655.548378 
L 599.124945 -655.793754 
L 599.716907 -656.039131 
L 600.308869 -656.284507 
L 600.900831 -656.529883 
L 601.492793 -656.775259 
L 602.084755 -657.020636 
L 602.676717 -657.266012 
L 603.268679 -657.511388 
L 603.860641 -657.756764 
L 604.452603 -658.002141 
L 605.044565 -658.247517 
L 605.636527 -658.492893 
L 606.228488 -658.738269 
L 606.82045 -658.983646 
L 607.412412 -659.229022 
L 608.004374 -659.474398 
L 608.596336 -659.719775 
L 609.188298 -659.965151 
L 609.78026 -660.210527 
L 610.372222 -660.455903 
L 610.964184 -660.70128 
L 611.556146 -660.946656 
L 612.148108 -661.192032 
L 612.74007 -661.437408 
L 613.332032 -661.682785 
L 613.923994 -661.928161 
L 614.515956 -662.173537 
L 615.107918 -662.418913 
L 615.69988 -662.66429 
L 616.291842 -662.909666 
L 616.883804 -663.155042 
L 617.475766 -663.249303 
L 618.067728 -663.326772 
L 618.65969 -663.404242 
L 619.251652 -663.481712 
L 619.843614 -663.559181 
L 620.435576 -663.636651 
L 621.027538 -663.714121 
L 621.619499 -663.79159 
L 622.211461 -663.86906 
L 622.803423 -663.94653 
L 623.395385 -664.023999 
L 623.987347 -664.101469 
L 624.579309 -664.178939 
L 625.171271 -664.256408 
L 625.763233 -664.333878 
L 626.355195 -664.411348 
L 626.947157 -664.488817 
L 627.539119 -664.566287 
L 628.131081 -664.643757 
L 628.723043 -664.721226 
L 629.315005 -664.798696 
L 629.906967 -664.876166 
L 630.498929 -664.953635 
L 631.090891 -665.031105 
L 631.682853 -665.108575 
L 632.274815 -665.186044 
L 632.866777 -665.263514 
L 633.458739 -665.340984 
L 634.050701 -665.418453 
L 634.642663 -665.495923 
L 635.234625 -665.573393 
L 635.826587 -665.650862 
L 636.418549 -665.728332 
L 637.010511 -665.805802 
L 637.602472 -665.883271 
L 638.194434 -665.960741 
L 638.786396 -666.038211 
L 639.378358 -666.11568 
L 639.97032 -666.19315 
L 640.562282 -666.27062 
L 641.154244 -666.348089 
L 641.746206 -666.425559 
L 642.338168 -666.503029 
L 642.93013 -666.580498 
L 643.522092 -666.657968 
L 644.114054 -666.735438 
L 644.706016 -666.812907 
L 645.297978 -666.890377 
L 645.88994 -666.967847 
L 646.481902 -667.045316 
L 647.073864 -667.21027 
L 647.665826 -667.379827 
L 648.257788 -667.549385 
L 648.84975 -667.718943 
L 649.441712 -667.888501 
L 650.033674 -668.058059 
L 650.625636 -668.227616 
L 651.217598 -668.397174 
L 651.80956 -668.566732 
L 652.401522 -668.73629 
L 652.993483 -668.905847 
L 653.585445 -669.075405 
L 654.177407 -669.244963 
L 654.769369 -669.414521 
L 655.361331 -669.584079 
L 655.953293 -669.753636 
L 656.545255 -669.923194 
L 657.137217 -670.092752 
L 657.729179 -670.26231 
L 658.321141 -670.431868 
L 658.913103 -670.601425 
L 659.505065 -670.770983 
L 660.097027 -670.940541 
L 660.688989 -671.110099 
L 661.280951 -671.279656 
L 661.872913 -671.449214 
L 662.464875 -671.618772 
L 663.056837 -671.78833 
L 663.648799 -671.957888 
L 664.240761 -672.127445 
L 664.832723 -672.297003 
L 665.424685 -672.466561 
L 666.016647 -672.636119 
L 666.608609 -672.805677 
L 667.200571 -672.975234 
L 667.792533 -673.144792 
L 668.384494 -673.31435 
L 668.976456 -673.483908 
L 669.568418 -673.653465 
L 670.16038 -673.823023 
L 670.752342 -673.992581 
L 671.344304 -674.162139 
L 671.936266 -674.331697 
L 672.528228 -674.501254 
L 673.12019 -674.670812 
L 673.712152 -674.84037 
L 674.304114 -675.009928 
L 674.896076 -675.179486 
L 675.488038 -675.349043 
L 676.08 -675.518601 
L 676.08 -675.518601 
L 676.08 -675.518601 
L 675.488038 -674.740439 
L 674.896076 -673.962278 
L 674.304114 -673.184116 
L 673.712152 -672.405954 
L 673.12019 -671.627793 
L 672.528228 -670.849631 
L 671.936266 -670.071469 
L 671.344304 -669.293307 
L 670.752342 -668.515146 
L 670.16038 -667.736984 
L 669.568418 -666.958822 
L 668.976456 -666.180661 
L 668.384494 -665.402499 
L 667.792533 -664.624337 
L 667.200571 -663.846175 
L 666.608609 -663.068014 
L 666.016647 -662.289852 
L 665.424685 -661.51169 
L 664.832723 -660.733528 
L 664.240761 -659.955367 
L 663.648799 -659.177205 
L 663.056837 -658.399043 
L 662.464875 -657.620882 
L 661.872913 -656.84272 
L 661.280951 -656.064558 
L 660.688989 -655.286396 
L 660.097027 -654.508235 
L 659.505065 -653.730073 
L 658.913103 -652.951911 
L 658.321141 -652.17375 
L 657.729179 -651.395588 
L 657.137217 -650.617426 
L 656.545255 -649.839264 
L 655.953293 -649.061103 
L 655.361331 -648.282941 
L 654.769369 -647.504779 
L 654.177407 -646.726618 
L 653.585445 -645.948456 
L 652.993483 -645.170294 
L 652.401522 -644.392132 
L 651.80956 -643.613971 
L 651.217598 -642.835809 
L 650.625636 -642.057647 
L 650.033674 -641.279486 
L 649.441712 -640.501324 
L 648.84975 -639.723162 
L 648.257788 -638.945 
L 647.665826 -638.166839 
L 647.073864 -637.388677 
L 646.481902 -636.635751 
L 645.88994 -636.362302 
L 645.297978 -636.088853 
L 644.706016 -635.815404 
L 644.114054 -635.541955 
L 643.522092 -635.268506 
L 642.93013 -634.995056 
L 642.338168 -634.721607 
L 641.746206 -634.448158 
L 641.154244 -634.174709 
L 640.562282 -633.90126 
L 639.97032 -633.627811 
L 639.378358 -633.354362 
L 638.786396 -633.080913 
L 638.194434 -632.807464 
L 637.602472 -632.534015 
L 637.010511 -632.260566 
L 636.418549 -631.987117 
L 635.826587 -631.713668 
L 635.234625 -631.440219 
L 634.642663 -631.16677 
L 634.050701 -630.89332 
L 633.458739 -630.619871 
L 632.866777 -630.346422 
L 632.274815 -630.072973 
L 631.682853 -629.799524 
L 631.090891 -629.526075 
L 630.498929 -629.252626 
L 629.906967 -628.979177 
L 629.315005 -628.705728 
L 628.723043 -628.432279 
L 628.131081 -628.15883 
L 627.539119 -627.885381 
L 626.947157 -627.611932 
L 626.355195 -627.338483 
L 625.763233 -627.065034 
L 625.171271 -626.791584 
L 624.579309 -626.518135 
L 623.987347 -626.244686 
L 623.395385 -625.971237 
L 622.803423 -625.697788 
L 622.211461 -625.424339 
L 621.619499 -625.15089 
L 621.027538 -624.877441 
L 620.435576 -624.603992 
L 619.843614 -624.330543 
L 619.251652 -624.057094 
L 618.65969 -623.783645 
L 618.067728 -623.510196 
L 617.475766 -623.236747 
L 616.883804 -622.953344 
L 616.291842 -622.580358 
L 615.69988 -622.207373 
L 615.107918 -621.834388 
L 614.515956 -621.461402 
L 613.923994 -621.088417 
L 613.332032 -620.715431 
L 612.74007 -620.342446 
L 612.148108 -619.96946 
L 611.556146 -619.596475 
L 610.964184 -619.223489 
L 610.372222 -618.850504 
L 609.78026 -618.477519 
L 609.188298 -618.104533 
L 608.596336 -617.731548 
L 608.004374 -617.358562 
L 607.412412 -616.985577 
L 606.82045 -616.612591 
L 606.228488 -616.239606 
L 605.636527 -615.86662 
L 605.044565 -615.493635 
L 604.452603 -615.12065 
L 603.860641 -614.747664 
L 603.268679 -614.374679 
L 602.676717 -614.001693 
L 602.084755 -613.628708 
L 601.492793 -613.255722 
L 600.900831 -612.882737 
L 600.308869 -612.509751 
L 599.716907 -612.136766 
L 599.124945 -611.763781 
L 598.532983 -611.390795 
L 597.941021 -611.01781 
L 597.349059 -610.644824 
L 596.757097 -610.271839 
L 596.165135 -609.898853 
L 595.573173 -609.525868 
L 594.981211 -609.152882 
L 594.389249 -608.779897 
L 593.797287 -608.406911 
L 593.205325 -608.033926 
L 592.613363 -607.660941 
L 592.021401 -607.287955 
L 591.429439 -606.91497 
L 590.837477 -606.541984 
L 590.245516 -606.168999 
L 589.653554 -605.796013 
L 589.061592 -605.423028 
L 588.46963 -605.050042 
L 587.877668 -604.677057 
L 587.285706 -604.224888 
L 586.693744 -603.32401 
L 586.101782 -602.423133 
L 585.50982 -601.522256 
L 584.917858 -600.621379 
L 584.325896 -599.720501 
L 583.733934 -598.819624 
L 583.141972 -597.918747 
L 582.55001 -597.017869 
L 581.958048 -596.116992 
L 581.366086 -595.216115 
L 580.774124 -594.315237 
L 580.182162 -593.41436 
L 579.5902 -592.513483 
L 578.998238 -591.612605 
L 578.406276 -590.711728 
L 577.814314 -589.810851 
L 577.222352 -588.909973 
L 576.63039 -588.009096 
L 576.038428 -587.108219 
L 575.446466 -586.207341 
L 574.854505 -585.306464 
L 574.262543 -584.405587 
L 573.670581 -583.50471 
L 573.078619 -582.603832 
L 572.486657 -581.702955 
L 571.894695 -580.802078 
L 571.302733 -579.9012 
L 570.710771 -579.000323 
L 570.118809 -578.099446 
L 569.526847 -577.198568 
L 568.934885 -576.297691 
L 568.342923 -575.396814 
L 567.750961 -574.495936 
L 567.158999 -573.595059 
L 566.567037 -572.694182 
L 565.975075 -571.793304 
L 565.383113 -570.892427 
L 564.791151 -569.99155 
L 564.199189 -569.090672 
L 563.607227 -568.189795 
L 563.015265 -567.288918 
L 562.423303 -566.38804 
L 561.831341 -565.487163 
L 561.239379 -564.586286 
L 560.647417 -563.685409 
L 560.055455 -562.784531 
L 559.463493 -561.883654 
L 558.871532 -560.982777 
L 558.27957 -560.081899 
L 557.687608 -559.332773 
L 557.095646 -559.190653 
L 556.503684 -559.048532 
L 555.911722 -558.906411 
L 555.31976 -558.764291 
L 554.727798 -558.62217 
L 554.135836 -558.480049 
L 553.543874 -558.337929 
L 552.951912 -558.195808 
L 552.35995 -558.053688 
L 551.767988 -557.911567 
L 551.176026 -557.769446 
L 550.584064 -557.627326 
L 549.992102 -557.485205 
L 549.40014 -557.343084 
L 548.808178 -557.200964 
L 548.216216 -557.058843 
L 547.624254 -556.916722 
L 547.032292 -556.774602 
L 546.44033 -556.632481 
L 545.848368 -556.490361 
L 545.256406 -556.34824 
L 544.664444 -556.206119 
L 544.072482 -556.063999 
L 543.480521 -555.921878 
L 542.888559 -555.779757 
L 542.296597 -555.637637 
L 541.704635 -555.495516 
L 541.112673 -555.353395 
L 540.520711 -555.211275 
L 539.928749 -555.069154 
L 539.336787 -554.927034 
L 538.744825 -554.784913 
L 538.152863 -554.642792 
L 537.560901 -554.500672 
L 536.968939 -554.358551 
L 536.376977 -554.21643 
L 535.785015 -554.07431 
L 535.193053 -553.932189 
L 534.601091 -553.790068 
L 534.009129 -553.647948 
L 533.417167 -553.505827 
L 532.825205 -553.363707 
L 532.233243 -553.221586 
L 531.641281 -553.079465 
L 531.049319 -552.937345 
L 530.457357 -552.795224 
L 529.865395 -552.653103 
L 529.273433 -552.510983 
L 528.681471 -552.368862 
L 528.08951 -551.992619 
L 527.497548 -550.914007 
L 526.905586 -549.835396 
L 526.313624 -548.756785 
L 525.721662 -547.678174 
L 525.1297 -546.599562 
L 524.537738 -545.520951 
L 523.945776 -544.44234 
L 523.353814 -543.363728 
L 522.761852 -542.285117 
L 522.16989 -541.206506 
L 521.577928 -540.127894 
L 520.985966 -539.049283 
L 520.394004 -537.970672 
L 519.802042 -536.892061 
L 519.21008 -535.813449 
L 518.618118 -534.734838 
L 518.026156 -533.656227 
L 517.434194 -532.577615 
L 516.842232 -531.499004 
L 516.25027 -530.420393 
L 515.658308 -529.341781 
L 515.066346 -528.26317 
L 514.474384 -527.184559 
L 513.882422 -526.105948 
L 513.29046 -525.027336 
L 512.698498 -523.948725 
L 512.106537 -522.870114 
L 511.514575 -521.791502 
L 510.922613 -520.712891 
L 510.330651 -519.63428 
L 509.738689 -518.555668 
L 509.146727 -517.477057 
L 508.554765 -516.398446 
L 507.962803 -515.319834 
L 507.370841 -514.241223 
L 506.778879 -513.162612 
L 506.186917 -512.084001 
L 505.594955 -511.005389 
L 505.002993 -509.926778 
L 504.411031 -508.848167 
L 503.819069 -507.769555 
L 503.227107 -506.690944 
L 502.635145 -505.612333 
L 502.043183 -504.533721 
L 501.451221 -503.45511 
L 500.859259 -502.376499 
L 500.267297 -501.297888 
L 499.675335 -500.219276 
L 499.083373 -499.140665 
L 498.491411 -498.209005 
L 497.899449 -497.62023 
L 497.307487 -497.031455 
L 496.715526 -496.442681 
L 496.123564 -495.853906 
L 495.531602 -495.265131 
L 494.93964 -494.676356 
L 494.347678 -494.087582 
L 493.755716 -493.498807 
L 493.163754 -492.910032 
L 492.571792 -492.321258 
L 491.97983 -491.732483 
L 491.387868 -491.143708 
L 490.795906 -490.554934 
L 490.203944 -489.966159 
L 489.611982 -489.377384 
L 489.02002 -488.788609 
L 488.428058 -488.199835 
L 487.836096 -487.61106 
L 487.244134 -487.022285 
L 486.652172 -486.433511 
L 486.06021 -485.844736 
L 485.468248 -485.255961 
L 484.876286 -484.667187 
L 484.284324 -484.078412 
L 483.692362 -483.489637 
L 483.1004 -482.900863 
L 482.508438 -482.312088 
L 481.916476 -481.723313 
L 481.324515 -481.134538 
L 480.732553 -480.545764 
L 480.140591 -479.956989 
L 479.548629 -479.368214 
L 478.956667 -478.77944 
L 478.364705 -478.190665 
L 477.772743 -477.60189 
L 477.180781 -477.013116 
L 476.588819 -476.424341 
L 475.996857 -475.835566 
L 475.404895 -475.246791 
L 474.812933 -474.658017 
L 474.220971 -474.069242 
L 473.629009 -473.480467 
L 473.037047 -472.891693 
L 472.445085 -472.302918 
L 471.853123 -471.714143 
L 471.261161 -471.125369 
L 470.669199 -470.536594 
L 470.077237 -469.947819 
L 469.485275 -469.359045 
L 468.893313 -468.881096 
L 468.301351 -468.608967 
L 467.709389 -468.336839 
L 467.117427 -468.06471 
L 466.525465 -467.792581 
L 465.933504 -467.520453 
L 465.341542 -467.248324 
L 464.74958 -466.976195 
L 464.157618 -466.704067 
L 463.565656 -466.431938 
L 462.973694 -466.159809 
L 462.381732 -465.887681 
L 461.78977 -465.615552 
L 461.197808 -465.343423 
L 460.605846 -465.071295 
L 460.013884 -464.799166 
L 459.421922 -464.527037 
L 458.82996 -464.254909 
L 458.237998 -463.98278 
L 457.646036 -463.710651 
L 457.054074 -463.438523 
L 456.462112 -463.166394 
L 455.87015 -462.894265 
L 455.278188 -462.622137 
L 454.686226 -462.350008 
L 454.094264 -462.077879 
L 453.502302 -461.805751 
L 452.91034 -461.533622 
L 452.318378 -461.261493 
L 451.726416 -460.989365 
L 451.134454 -460.717236 
L 450.542492 -460.445107 
L 449.950531 -460.172979 
L 449.358569 -459.90085 
L 448.766607 -459.628721 
L 448.174645 -459.356593 
L 447.582683 -459.084464 
L 446.990721 -458.812335 
L 446.398759 -458.540207 
L 445.806797 -458.268078 
L 445.214835 -457.995949 
L 444.622873 -457.723821 
L 444.030911 -457.451692 
L 443.438949 -457.179563 
L 442.846987 -456.907435 
L 442.255025 -456.635306 
L 441.663063 -456.363177 
L 441.071101 -456.091049 
L 440.479139 -455.81892 
L 439.887177 -455.546791 
L 439.295215 -455.189977 
L 438.703253 -454.706132 
L 438.111291 -454.222288 
L 437.519329 -453.738444 
L 436.927367 -453.2546 
L 436.335405 -452.770756 
L 435.743443 -452.286912 
L 435.151481 -451.803067 
L 434.55952 -451.319223 
L 433.967558 -450.835379 
L 433.375596 -450.351535 
L 432.783634 -449.867691 
L 432.191672 -449.383847 
L 431.59971 -448.900003 
L 431.007748 -448.416158 
L 430.415786 -447.932314 
L 429.823824 -447.44847 
L 429.231862 -446.964626 
L 428.6399 -446.480782 
L 428.047938 -445.996938 
L 427.455976 -445.513093 
L 426.864014 -445.029249 
L 426.272052 -444.545405 
L 425.68009 -444.061561 
L 425.088128 -443.577717 
L 424.496166 -443.093873 
L 423.904204 -442.610029 
L 423.312242 -442.126184 
L 422.72028 -441.64234 
L 422.128318 -441.158496 
L 421.536356 -440.674652 
L 420.944394 -440.190808 
L 420.352432 -439.706964 
L 419.76047 -439.223119 
L 419.168509 -438.739275 
L 418.576547 -438.255431 
L 417.984585 -437.771587 
L 417.392623 -437.287743 
L 416.800661 -436.803899 
L 416.208699 -436.320055 
L 415.616737 -435.83621 
L 415.024775 -435.352366 
L 414.432813 -434.868522 
L 413.840851 -434.384678 
L 413.248889 -433.900834 
L 412.656927 -433.41699 
L 412.064965 -432.933145 
L 411.473003 -432.449301 
L 410.881041 -431.965457 
L 410.289079 -431.481613 
L 409.697117 -430.831268 
L 409.105155 -429.977421 
L 408.513193 -429.123575 
L 407.921231 -428.269728 
L 407.329269 -427.415881 
L 406.737307 -426.562035 
L 406.145345 -425.708188 
L 405.553383 -424.854342 
L 404.961421 -424.000495 
L 404.369459 -423.146648 
L 403.777497 -422.292802 
L 403.185536 -421.438955 
L 402.593574 -420.585109 
L 402.001612 -419.731262 
L 401.40965 -418.877415 
L 400.817688 -418.023569 
L 400.225726 -417.169722 
L 399.633764 -416.315876 
L 399.041802 -415.462029 
L 398.44984 -414.608182 
L 397.857878 -413.754336 
L 397.265916 -412.900489 
L 396.673954 -412.046643 
L 396.081992 -411.192796 
L 395.49003 -410.338949 
L 394.898068 -409.485103 
L 394.306106 -408.631256 
L 393.714144 -407.77741 
L 393.122182 -406.923563 
L 392.53022 -406.069716 
z
" style="stroke: #f5493c; stroke-opacity: 0.1"/>
    </defs>
    <g clip-path="url(#p2b06312cfc)">
     <use xlink:href="#mb1a975c149" x="0" y="720" style="fill: #f5493c; fill-opacity: 0.1; stroke: #f5493c; stroke-opacity: 0.1"/>
    </g>
   </g>
   <g id="matplotlib.axis_1">
    <g id="xtick_1">
     <g id="line2d_1">
      <defs>
       <path id="m84196d76bf" d="M 0 0 
L 0 3.5 
" style="stroke: #000000; stroke-width: 0.8"/>
      </defs>
      <g>
       <use xlink:href="#m84196d76bf" x="84.71" y="647.08" style="stroke: #000000; stroke-width: 0.8"/>
      </g>
     </g>
     <g id="text_1">
      <!-- 0.00 -->
      <g transform="translate(62.444375 669.276875) scale(0.2 -0.2)">
       <defs>
        <path id="DejaVuSans-30" d="M 2034 4250 
Q 1547 4250 1301 3770 
Q 1056 3291 1056 2328 
Q 1056 1369 1301 889 
Q 1547 409 2034 409 
Q 2525 409 2770 889 
Q 3016 1369 3016 2328 
Q 3016 3291 2770 3770 
Q 2525 4250 2034 4250 
z
M 2034 4750 
Q 2819 4750 3233 4129 
Q 3647 3509 3647 2328 
Q 3647 1150 3233 529 
Q 2819 -91 2034 -91 
Q 1250 -91 836 529 
Q 422 1150 422 2328 
Q 422 3509 836 4129 
Q 1250 4750 2034 4750 
z
" transform="scale(0.015625)"/>
        <path id="DejaVuSans-2e" d="M 684 794 
L 1344 794 
L 1344 0 
L 684 0 
L 684 794 
z
" transform="scale(0.015625)"/>
       </defs>
       <use xlink:href="#DejaVuSans-30"/>
       <use xlink:href="#DejaVuSans-2e" x="63.623047"/>
       <use xlink:href="#DejaVuSans-30" x="95.410156"/>
       <use xlink:href="#DejaVuSans-30" x="159.033203"/>
      </g>
     </g>
    </g>
    <g id="xtick_2">
     <g id="line2d_2">
      <g>
       <use xlink:href="#m84196d76bf" x="202.984" y="647.08" style="stroke: #000000; stroke-width: 0.8"/>
      </g>
     </g>
     <g id="text_2">
      <!-- 0.20 -->
      <g transform="translate(180.718375 669.276875) scale(0.2 -0.2)">
       <defs>
        <path id="DejaVuSans-32" d="M 1228 531 
L 3431 531 
L 3431 0 
L 469 0 
L 469 531 
Q 828 903 1448 1529 
Q 2069 2156 2228 2338 
Q 2531 2678 2651 2914 
Q 2772 3150 2772 3378 
Q 2772 3750 2511 3984 
Q 2250 4219 1831 4219 
Q 1534 4219 1204 4116 
Q 875 4013 500 3803 
L 500 4441 
Q 881 4594 1212 4672 
Q 1544 4750 1819 4750 
Q 2544 4750 2975 4387 
Q 3406 4025 3406 3419 
Q 3406 3131 3298 2873 
Q 3191 2616 2906 2266 
Q 2828 2175 2409 1742 
Q 1991 1309 1228 531 
z
" transform="scale(0.015625)"/>
       </defs>
       <use xlink:href="#DejaVuSans-30"/>
       <use xlink:href="#DejaVuSans-2e" x="63.623047"/>
       <use xlink:href="#DejaVuSans-32" x="95.410156"/>
       <use xlink:href="#DejaVuSans-30" x="159.033203"/>
      </g>
     </g>
    </g>
    <g id="xtick_3">
     <g id="line2d_3">
      <g>
       <use xlink:href="#m84196d76bf" x="321.258" y="647.08" style="stroke: #000000; stroke-width: 0.8"/>
      </g>
     </g>
     <g id="text_3">
      <!-- 0.40 -->
      <g transform="translate(298.992375 669.276875) scale(0.2 -0.2)">
       <defs>
        <path id="DejaVuSans-34" d="M 2419 4116 
L 825 1625 
L 2419 1625 
L 2419 4116 
z
M 2253 4666 
L 3047 4666 
L 3047 1625 
L 3713 1625 
L 3713 1100 
L 3047 1100 
L 3047 0 
L 2419 0 
L 2419 1100 
L 313 1100 
L 313 1709 
L 2253 4666 
z
" transform="scale(0.015625)"/>
       </defs>
       <use xlink:href="#DejaVuSans-30"/>
       <use xlink:href="#DejaVuSans-2e" x="63.623047"/>
       <use xlink:href="#DejaVuSans-34" x="95.410156"/>
       <use xlink:href="#DejaVuSans-30" x="159.033203"/>
      </g>
     </g>
    </g>
    <g id="xtick_4">
     <g id="line2d_4">
      <g>
       <use xlink:href="#m84196d76bf" x="439.532" y="647.08" style="stroke: #000000; stroke-width: 0.8"/>
      </g>
     </g>
     <g id="text_4">
      <!-- 0.60 -->
      <g transform="translate(417.266375 669.276875) scale(0.2 -0.2)">
       <defs>
        <path id="DejaVuSans-36" d="M 2113 2584 
Q 1688 2584 1439 2293 
Q 1191 2003 1191 1497 
Q 1191 994 1439 701 
Q 1688 409 2113 409 
Q 2538 409 2786 701 
Q 3034 994 3034 1497 
Q 3034 2003 2786 2293 
Q 2538 2584 2113 2584 
z
M 3366 4563 
L 3366 3988 
Q 3128 4100 2886 4159 
Q 2644 4219 2406 4219 
Q 1781 4219 1451 3797 
Q 1122 3375 1075 2522 
Q 1259 2794 1537 2939 
Q 1816 3084 2150 3084 
Q 2853 3084 3261 2657 
Q 3669 2231 3669 1497 
Q 3669 778 3244 343 
Q 2819 -91 2113 -91 
Q 1303 -91 875 529 
Q 447 1150 447 2328 
Q 447 3434 972 4092 
Q 1497 4750 2381 4750 
Q 2619 4750 2861 4703 
Q 3103 4656 3366 4563 
z
" transform="scale(0.015625)"/>
       </defs>
       <use xlink:href="#DejaVuSans-30"/>
       <use xlink:href="#DejaVuSans-2e" x="63.623047"/>
       <use xlink:href="#DejaVuSans-36" x="95.410156"/>
       <use xlink:href="#DejaVuSans-30" x="159.033203"/>
      </g>
     </g>
    </g>
    <g id="xtick_5">
     <g id="line2d_5">
      <g>
       <use xlink:href="#m84196d76bf" x="557.806" y="647.08" style="stroke: #000000; stroke-width: 0.8"/>
      </g>
     </g>
     <g id="text_5">
      <!-- 0.80 -->
      <g transform="translate(535.540375 669.276875) scale(0.2 -0.2)">
       <defs>
        <path id="DejaVuSans-38" d="M 2034 2216 
Q 1584 2216 1326 1975 
Q 1069 1734 1069 1313 
Q 1069 891 1326 650 
Q 1584 409 2034 409 
Q 2484 409 2743 651 
Q 3003 894 3003 1313 
Q 3003 1734 2745 1975 
Q 2488 2216 2034 2216 
z
M 1403 2484 
Q 997 2584 770 2862 
Q 544 3141 544 3541 
Q 544 4100 942 4425 
Q 1341 4750 2034 4750 
Q 2731 4750 3128 4425 
Q 3525 4100 3525 3541 
Q 3525 3141 3298 2862 
Q 3072 2584 2669 2484 
Q 3125 2378 3379 2068 
Q 3634 1759 3634 1313 
Q 3634 634 3220 271 
Q 2806 -91 2034 -91 
Q 1263 -91 848 271 
Q 434 634 434 1313 
Q 434 1759 690 2068 
Q 947 2378 1403 2484 
z
M 1172 3481 
Q 1172 3119 1398 2916 
Q 1625 2713 2034 2713 
Q 2441 2713 2670 2916 
Q 2900 3119 2900 3481 
Q 2900 3844 2670 4047 
Q 2441 4250 2034 4250 
Q 1625 4250 1398 4047 
Q 1172 3844 1172 3481 
z
" transform="scale(0.015625)"/>
       </defs>
       <use xlink:href="#DejaVuSans-30"/>
       <use xlink:href="#DejaVuSans-2e" x="63.623047"/>
       <use xlink:href="#DejaVuSans-38" x="95.410156"/>
       <use xlink:href="#DejaVuSans-30" x="159.033203"/>
      </g>
     </g>
    </g>
    <g id="xtick_6">
     <g id="line2d_6">
      <g>
       <use xlink:href="#m84196d76bf" x="676.08" y="647.08" style="stroke: #000000; stroke-width: 0.8"/>
      </g>
     </g>
     <g id="text_6">
      <!-- 1.00 -->
      <g transform="translate(653.814375 669.276875) scale(0.2 -0.2)">
       <defs>
        <path id="DejaVuSans-31" d="M 794 531 
L 1825 531 
L 1825 4091 
L 703 3866 
L 703 4441 
L 1819 4666 
L 2450 4666 
L 2450 531 
L 3481 531 
L 3481 0 
L 794 0 
L 794 531 
z
" transform="scale(0.015625)"/>
       </defs>
       <use xlink:href="#DejaVuSans-31"/>
       <use xlink:href="#DejaVuSans-2e" x="63.623047"/>
       <use xlink:href="#DejaVuSans-30" x="95.410156"/>
       <use xlink:href="#DejaVuSans-30" x="159.033203"/>
      </g>
     </g>
    </g>
    <g id="xtick_7">
     <g id="line2d_7">
      <g>
       <use xlink:href="#m84196d76bf" x="391.938258" y="647.08" style="stroke: #000000; stroke-width: 0.8"/>
      </g>
     </g>
     <g id="text_7">
      <!-- 0.52 -->
      <g style="fill: #f5493c" transform="translate(369.672633 669.276875) scale(0.2 -0.2)">
       <defs>
        <path id="DejaVuSans-35" d="M 691 4666 
L 3169 4666 
L 3169 4134 
L 1269 4134 
L 1269 2991 
Q 1406 3038 1543 3061 
Q 1681 3084 1819 3084 
Q 2600 3084 3056 2656 
Q 3513 2228 3513 1497 
Q 3513 744 3044 326 
Q 2575 -91 1722 -91 
Q 1428 -91 1123 -41 
Q 819 9 494 109 
L 494 744 
Q 775 591 1075 516 
Q 1375 441 1709 441 
Q 2250 441 2565 725 
Q 2881 1009 2881 1497 
Q 2881 1984 2565 2268 
Q 2250 2553 1709 2553 
Q 1456 2553 1204 2497 
Q 953 2441 691 2322 
L 691 4666 
z
" transform="scale(0.015625)"/>
       </defs>
       <use xlink:href="#DejaVuSans-30"/>
       <use xlink:href="#DejaVuSans-2e" x="63.623047"/>
       <use xlink:href="#DejaVuSans-35" x="95.410156"/>
       <use xlink:href="#DejaVuSans-32" x="159.033203"/>
      </g>
     </g>
    </g>
    <g id="text_8">
     <!-- Classification accuracy -->
     <g transform="translate(265.9325 692.633125) scale(0.2 -0.2)">
      <defs>
       <path id="DejaVuSans-43" d="M 4122 4306 
L 4122 3641 
Q 3803 3938 3442 4084 
Q 3081 4231 2675 4231 
Q 1875 4231 1450 3742 
Q 1025 3253 1025 2328 
Q 1025 1406 1450 917 
Q 1875 428 2675 428 
Q 3081 428 3442 575 
Q 3803 722 4122 1019 
L 4122 359 
Q 3791 134 3420 21 
Q 3050 -91 2638 -91 
Q 1578 -91 968 557 
Q 359 1206 359 2328 
Q 359 3453 968 4101 
Q 1578 4750 2638 4750 
Q 3056 4750 3426 4639 
Q 3797 4528 4122 4306 
z
" transform="scale(0.015625)"/>
       <path id="DejaVuSans-6c" d="M 603 4863 
L 1178 4863 
L 1178 0 
L 603 0 
L 603 4863 
z
" transform="scale(0.015625)"/>
       <path id="DejaVuSans-61" d="M 2194 1759 
Q 1497 1759 1228 1600 
Q 959 1441 959 1056 
Q 959 750 1161 570 
Q 1363 391 1709 391 
Q 2188 391 2477 730 
Q 2766 1069 2766 1631 
L 2766 1759 
L 2194 1759 
z
M 3341 1997 
L 3341 0 
L 2766 0 
L 2766 531 
Q 2569 213 2275 61 
Q 1981 -91 1556 -91 
Q 1019 -91 701 211 
Q 384 513 384 1019 
Q 384 1609 779 1909 
Q 1175 2209 1959 2209 
L 2766 2209 
L 2766 2266 
Q 2766 2663 2505 2880 
Q 2244 3097 1772 3097 
Q 1472 3097 1187 3025 
Q 903 2953 641 2809 
L 641 3341 
Q 956 3463 1253 3523 
Q 1550 3584 1831 3584 
Q 2591 3584 2966 3190 
Q 3341 2797 3341 1997 
z
" transform="scale(0.015625)"/>
       <path id="DejaVuSans-73" d="M 2834 3397 
L 2834 2853 
Q 2591 2978 2328 3040 
Q 2066 3103 1784 3103 
Q 1356 3103 1142 2972 
Q 928 2841 928 2578 
Q 928 2378 1081 2264 
Q 1234 2150 1697 2047 
L 1894 2003 
Q 2506 1872 2764 1633 
Q 3022 1394 3022 966 
Q 3022 478 2636 193 
Q 2250 -91 1575 -91 
Q 1294 -91 989 -36 
Q 684 19 347 128 
L 347 722 
Q 666 556 975 473 
Q 1284 391 1588 391 
Q 1994 391 2212 530 
Q 2431 669 2431 922 
Q 2431 1156 2273 1281 
Q 2116 1406 1581 1522 
L 1381 1569 
Q 847 1681 609 1914 
Q 372 2147 372 2553 
Q 372 3047 722 3315 
Q 1072 3584 1716 3584 
Q 2034 3584 2315 3537 
Q 2597 3491 2834 3397 
z
" transform="scale(0.015625)"/>
       <path id="DejaVuSans-69" d="M 603 3500 
L 1178 3500 
L 1178 0 
L 603 0 
L 603 3500 
z
M 603 4863 
L 1178 4863 
L 1178 4134 
L 603 4134 
L 603 4863 
z
" transform="scale(0.015625)"/>
       <path id="DejaVuSans-66" d="M 2375 4863 
L 2375 4384 
L 1825 4384 
Q 1516 4384 1395 4259 
Q 1275 4134 1275 3809 
L 1275 3500 
L 2222 3500 
L 2222 3053 
L 1275 3053 
L 1275 0 
L 697 0 
L 697 3053 
L 147 3053 
L 147 3500 
L 697 3500 
L 697 3744 
Q 697 4328 969 4595 
Q 1241 4863 1831 4863 
L 2375 4863 
z
" transform="scale(0.015625)"/>
       <path id="DejaVuSans-63" d="M 3122 3366 
L 3122 2828 
Q 2878 2963 2633 3030 
Q 2388 3097 2138 3097 
Q 1578 3097 1268 2742 
Q 959 2388 959 1747 
Q 959 1106 1268 751 
Q 1578 397 2138 397 
Q 2388 397 2633 464 
Q 2878 531 3122 666 
L 3122 134 
Q 2881 22 2623 -34 
Q 2366 -91 2075 -91 
Q 1284 -91 818 406 
Q 353 903 353 1747 
Q 353 2603 823 3093 
Q 1294 3584 2113 3584 
Q 2378 3584 2631 3529 
Q 2884 3475 3122 3366 
z
" transform="scale(0.015625)"/>
       <path id="DejaVuSans-74" d="M 1172 4494 
L 1172 3500 
L 2356 3500 
L 2356 3053 
L 1172 3053 
L 1172 1153 
Q 1172 725 1289 603 
Q 1406 481 1766 481 
L 2356 481 
L 2356 0 
L 1766 0 
Q 1100 0 847 248 
Q 594 497 594 1153 
L 594 3053 
L 172 3053 
L 172 3500 
L 594 3500 
L 594 4494 
L 1172 4494 
z
" transform="scale(0.015625)"/>
       <path id="DejaVuSans-6f" d="M 1959 3097 
Q 1497 3097 1228 2736 
Q 959 2375 959 1747 
Q 959 1119 1226 758 
Q 1494 397 1959 397 
Q 2419 397 2687 759 
Q 2956 1122 2956 1747 
Q 2956 2369 2687 2733 
Q 2419 3097 1959 3097 
z
M 1959 3584 
Q 2709 3584 3137 3096 
Q 3566 2609 3566 1747 
Q 3566 888 3137 398 
Q 2709 -91 1959 -91 
Q 1206 -91 779 398 
Q 353 888 353 1747 
Q 353 2609 779 3096 
Q 1206 3584 1959 3584 
z
" transform="scale(0.015625)"/>
       <path id="DejaVuSans-6e" d="M 3513 2113 
L 3513 0 
L 2938 0 
L 2938 2094 
Q 2938 2591 2744 2837 
Q 2550 3084 2163 3084 
Q 1697 3084 1428 2787 
Q 1159 2491 1159 1978 
L 1159 0 
L 581 0 
L 581 3500 
L 1159 3500 
L 1159 2956 
Q 1366 3272 1645 3428 
Q 1925 3584 2291 3584 
Q 2894 3584 3203 3211 
Q 3513 2838 3513 2113 
z
" transform="scale(0.015625)"/>
       <path id="DejaVuSans-20" transform="scale(0.015625)"/>
       <path id="DejaVuSans-75" d="M 544 1381 
L 544 3500 
L 1119 3500 
L 1119 1403 
Q 1119 906 1312 657 
Q 1506 409 1894 409 
Q 2359 409 2629 706 
Q 2900 1003 2900 1516 
L 2900 3500 
L 3475 3500 
L 3475 0 
L 2900 0 
L 2900 538 
Q 2691 219 2414 64 
Q 2138 -91 1772 -91 
Q 1169 -91 856 284 
Q 544 659 544 1381 
z
M 1991 3584 
L 1991 3584 
z
" transform="scale(0.015625)"/>
       <path id="DejaVuSans-72" d="M 2631 2963 
Q 2534 3019 2420 3045 
Q 2306 3072 2169 3072 
Q 1681 3072 1420 2755 
Q 1159 2438 1159 1844 
L 1159 0 
L 581 0 
L 581 3500 
L 1159 3500 
L 1159 2956 
Q 1341 3275 1631 3429 
Q 1922 3584 2338 3584 
Q 2397 3584 2469 3576 
Q 2541 3569 2628 3553 
L 2631 2963 
z
" transform="scale(0.015625)"/>
       <path id="DejaVuSans-79" d="M 2059 -325 
Q 1816 -950 1584 -1140 
Q 1353 -1331 966 -1331 
L 506 -1331 
L 506 -850 
L 844 -850 
Q 1081 -850 1212 -737 
Q 1344 -625 1503 -206 
L 1606 56 
L 191 3500 
L 800 3500 
L 1894 763 
L 2988 3500 
L 3597 3500 
L 2059 -325 
z
" transform="scale(0.015625)"/>
      </defs>
      <use xlink:href="#DejaVuSans-43"/>
      <use xlink:href="#DejaVuSans-6c" x="69.824219"/>
      <use xlink:href="#DejaVuSans-61" x="97.607422"/>
      <use xlink:href="#DejaVuSans-73" x="158.886719"/>
      <use xlink:href="#DejaVuSans-73" x="210.986328"/>
      <use xlink:href="#DejaVuSans-69" x="263.085938"/>
      <use xlink:href="#DejaVuSans-66" x="290.869141"/>
      <use xlink:href="#DejaVuSans-69" x="326.074219"/>
      <use xlink:href="#DejaVuSans-63" x="353.857422"/>
      <use xlink:href="#DejaVuSans-61" x="408.837891"/>
      <use xlink:href="#DejaVuSans-74" x="470.117188"/>
      <use xlink:href="#DejaVuSans-69" x="509.326172"/>
      <use xlink:href="#DejaVuSans-6f" x="537.109375"/>
      <use xlink:href="#DejaVuSans-6e" x="598.291016"/>
      <use xlink:href="#DejaVuSans-20" x="661.669922"/>
      <use xlink:href="#DejaVuSans-61" x="693.457031"/>
      <use xlink:href="#DejaVuSans-63" x="754.736328"/>
      <use xlink:href="#DejaVuSans-63" x="809.716797"/>
      <use xlink:href="#DejaVuSans-75" x="864.697266"/>
      <use xlink:href="#DejaVuSans-72" x="928.076172"/>
      <use xlink:href="#DejaVuSans-61" x="969.189453"/>
      <use xlink:href="#DejaVuSans-63" x="1030.46875"/>
      <use xlink:href="#DejaVuSans-79" x="1085.449219"/>
     </g>
    </g>
   </g>
   <g id="matplotlib.axis_2">
    <g id="ytick_1">
     <g id="line2d_8">
      <defs>
       <path id="m200f8f5989" d="M 0 0 
L -3.5 0 
" style="stroke: #000000; stroke-width: 0.8"/>
      </defs>
      <g>
       <use xlink:href="#m200f8f5989" x="84.71" y="647.08" style="stroke: #000000; stroke-width: 0.8"/>
      </g>
     </g>
     <g id="text_9">
      <!-- 0.0 -->
      <g transform="translate(45.90375 654.678437) scale(0.2 -0.2)">
       <use xlink:href="#DejaVuSans-30"/>
       <use xlink:href="#DejaVuSans-2e" x="63.623047"/>
       <use xlink:href="#DejaVuSans-30" x="95.410156"/>
      </g>
     </g>
    </g>
    <g id="ytick_2">
     <g id="line2d_9">
      <g>
       <use xlink:href="#m200f8f5989" x="84.71" y="523.568" style="stroke: #000000; stroke-width: 0.8"/>
      </g>
     </g>
     <g id="text_10">
      <!-- 0.1 -->
      <g transform="translate(45.90375 531.166438) scale(0.2 -0.2)">
       <use xlink:href="#DejaVuSans-30"/>
       <use xlink:href="#DejaVuSans-2e" x="63.623047"/>
       <use xlink:href="#DejaVuSans-31" x="95.410156"/>
      </g>
     </g>
    </g>
    <g id="ytick_3">
     <g id="line2d_10">
      <g>
       <use xlink:href="#m200f8f5989" x="84.71" y="400.056" style="stroke: #000000; stroke-width: 0.8"/>
      </g>
     </g>
     <g id="text_11">
      <!-- 0.2 -->
      <g transform="translate(45.90375 407.654437) scale(0.2 -0.2)">
       <use xlink:href="#DejaVuSans-30"/>
       <use xlink:href="#DejaVuSans-2e" x="63.623047"/>
       <use xlink:href="#DejaVuSans-32" x="95.410156"/>
      </g>
     </g>
    </g>
    <g id="ytick_4">
     <g id="line2d_11">
      <g>
       <use xlink:href="#m200f8f5989" x="84.71" y="276.544" style="stroke: #000000; stroke-width: 0.8"/>
      </g>
     </g>
     <g id="text_12">
      <!-- 0.3 -->
      <g transform="translate(45.90375 284.142437) scale(0.2 -0.2)">
       <defs>
        <path id="DejaVuSans-33" d="M 2597 2516 
Q 3050 2419 3304 2112 
Q 3559 1806 3559 1356 
Q 3559 666 3084 287 
Q 2609 -91 1734 -91 
Q 1441 -91 1130 -33 
Q 819 25 488 141 
L 488 750 
Q 750 597 1062 519 
Q 1375 441 1716 441 
Q 2309 441 2620 675 
Q 2931 909 2931 1356 
Q 2931 1769 2642 2001 
Q 2353 2234 1838 2234 
L 1294 2234 
L 1294 2753 
L 1863 2753 
Q 2328 2753 2575 2939 
Q 2822 3125 2822 3475 
Q 2822 3834 2567 4026 
Q 2313 4219 1838 4219 
Q 1578 4219 1281 4162 
Q 984 4106 628 3988 
L 628 4550 
Q 988 4650 1302 4700 
Q 1616 4750 1894 4750 
Q 2613 4750 3031 4423 
Q 3450 4097 3450 3541 
Q 3450 3153 3228 2886 
Q 3006 2619 2597 2516 
z
" transform="scale(0.015625)"/>
       </defs>
       <use xlink:href="#DejaVuSans-30"/>
       <use xlink:href="#DejaVuSans-2e" x="63.623047"/>
       <use xlink:href="#DejaVuSans-33" x="95.410156"/>
      </g>
     </g>
    </g>
    <g id="ytick_5">
     <g id="line2d_12">
      <g>
       <use xlink:href="#m200f8f5989" x="84.71" y="153.032" style="stroke: #000000; stroke-width: 0.8"/>
      </g>
     </g>
     <g id="text_13">
      <!-- 0.4 -->
      <g transform="translate(45.90375 160.630437) scale(0.2 -0.2)">
       <use xlink:href="#DejaVuSans-30"/>
       <use xlink:href="#DejaVuSans-2e" x="63.623047"/>
       <use xlink:href="#DejaVuSans-34" x="95.410156"/>
      </g>
     </g>
    </g>
    <g id="ytick_6">
     <g id="line2d_13">
      <g>
       <use xlink:href="#m200f8f5989" x="84.71" y="29.52" style="stroke: #000000; stroke-width: 0.8"/>
      </g>
     </g>
     <g id="text_14">
      <!-- 0.5 -->
      <g transform="translate(45.90375 37.118438) scale(0.2 -0.2)">
       <use xlink:href="#DejaVuSans-30"/>
       <use xlink:href="#DejaVuSans-2e" x="63.623047"/>
       <use xlink:href="#DejaVuSans-35" x="95.410156"/>
      </g>
     </g>
    </g>
    <g id="text_15">
     <!-- Anomaly Detection VUS-PR -->
     <g transform="translate(37.744375 474.192188) rotate(-90) scale(0.2 -0.2)">
      <defs>
       <path id="DejaVuSans-41" d="M 2188 4044 
L 1331 1722 
L 3047 1722 
L 2188 4044 
z
M 1831 4666 
L 2547 4666 
L 4325 0 
L 3669 0 
L 3244 1197 
L 1141 1197 
L 716 0 
L 50 0 
L 1831 4666 
z
" transform="scale(0.015625)"/>
       <path id="DejaVuSans-6d" d="M 3328 2828 
Q 3544 3216 3844 3400 
Q 4144 3584 4550 3584 
Q 5097 3584 5394 3201 
Q 5691 2819 5691 2113 
L 5691 0 
L 5113 0 
L 5113 2094 
Q 5113 2597 4934 2840 
Q 4756 3084 4391 3084 
Q 3944 3084 3684 2787 
Q 3425 2491 3425 1978 
L 3425 0 
L 2847 0 
L 2847 2094 
Q 2847 2600 2669 2842 
Q 2491 3084 2119 3084 
Q 1678 3084 1418 2786 
Q 1159 2488 1159 1978 
L 1159 0 
L 581 0 
L 581 3500 
L 1159 3500 
L 1159 2956 
Q 1356 3278 1631 3431 
Q 1906 3584 2284 3584 
Q 2666 3584 2933 3390 
Q 3200 3197 3328 2828 
z
" transform="scale(0.015625)"/>
       <path id="DejaVuSans-44" d="M 1259 4147 
L 1259 519 
L 2022 519 
Q 2988 519 3436 956 
Q 3884 1394 3884 2338 
Q 3884 3275 3436 3711 
Q 2988 4147 2022 4147 
L 1259 4147 
z
M 628 4666 
L 1925 4666 
Q 3281 4666 3915 4102 
Q 4550 3538 4550 2338 
Q 4550 1131 3912 565 
Q 3275 0 1925 0 
L 628 0 
L 628 4666 
z
" transform="scale(0.015625)"/>
       <path id="DejaVuSans-65" d="M 3597 1894 
L 3597 1613 
L 953 1613 
Q 991 1019 1311 708 
Q 1631 397 2203 397 
Q 2534 397 2845 478 
Q 3156 559 3463 722 
L 3463 178 
Q 3153 47 2828 -22 
Q 2503 -91 2169 -91 
Q 1331 -91 842 396 
Q 353 884 353 1716 
Q 353 2575 817 3079 
Q 1281 3584 2069 3584 
Q 2775 3584 3186 3129 
Q 3597 2675 3597 1894 
z
M 3022 2063 
Q 3016 2534 2758 2815 
Q 2500 3097 2075 3097 
Q 1594 3097 1305 2825 
Q 1016 2553 972 2059 
L 3022 2063 
z
" transform="scale(0.015625)"/>
       <path id="DejaVuSans-56" d="M 1831 0 
L 50 4666 
L 709 4666 
L 2188 738 
L 3669 4666 
L 4325 4666 
L 2547 0 
L 1831 0 
z
" transform="scale(0.015625)"/>
       <path id="DejaVuSans-55" d="M 556 4666 
L 1191 4666 
L 1191 1831 
Q 1191 1081 1462 751 
Q 1734 422 2344 422 
Q 2950 422 3222 751 
Q 3494 1081 3494 1831 
L 3494 4666 
L 4128 4666 
L 4128 1753 
Q 4128 841 3676 375 
Q 3225 -91 2344 -91 
Q 1459 -91 1007 375 
Q 556 841 556 1753 
L 556 4666 
z
" transform="scale(0.015625)"/>
       <path id="DejaVuSans-53" d="M 3425 4513 
L 3425 3897 
Q 3066 4069 2747 4153 
Q 2428 4238 2131 4238 
Q 1616 4238 1336 4038 
Q 1056 3838 1056 3469 
Q 1056 3159 1242 3001 
Q 1428 2844 1947 2747 
L 2328 2669 
Q 3034 2534 3370 2195 
Q 3706 1856 3706 1288 
Q 3706 609 3251 259 
Q 2797 -91 1919 -91 
Q 1588 -91 1214 -16 
Q 841 59 441 206 
L 441 856 
Q 825 641 1194 531 
Q 1563 422 1919 422 
Q 2459 422 2753 634 
Q 3047 847 3047 1241 
Q 3047 1584 2836 1778 
Q 2625 1972 2144 2069 
L 1759 2144 
Q 1053 2284 737 2584 
Q 422 2884 422 3419 
Q 422 4038 858 4394 
Q 1294 4750 2059 4750 
Q 2388 4750 2728 4690 
Q 3069 4631 3425 4513 
z
" transform="scale(0.015625)"/>
       <path id="DejaVuSans-2d" d="M 313 2009 
L 1997 2009 
L 1997 1497 
L 313 1497 
L 313 2009 
z
" transform="scale(0.015625)"/>
       <path id="DejaVuSans-50" d="M 1259 4147 
L 1259 2394 
L 2053 2394 
Q 2494 2394 2734 2622 
Q 2975 2850 2975 3272 
Q 2975 3691 2734 3919 
Q 2494 4147 2053 4147 
L 1259 4147 
z
M 628 4666 
L 2053 4666 
Q 2838 4666 3239 4311 
Q 3641 3956 3641 3272 
Q 3641 2581 3239 2228 
Q 2838 1875 2053 1875 
L 1259 1875 
L 1259 0 
L 628 0 
L 628 4666 
z
" transform="scale(0.015625)"/>
       <path id="DejaVuSans-52" d="M 2841 2188 
Q 3044 2119 3236 1894 
Q 3428 1669 3622 1275 
L 4263 0 
L 3584 0 
L 2988 1197 
Q 2756 1666 2539 1819 
Q 2322 1972 1947 1972 
L 1259 1972 
L 1259 0 
L 628 0 
L 628 4666 
L 2053 4666 
Q 2853 4666 3247 4331 
Q 3641 3997 3641 3322 
Q 3641 2881 3436 2590 
Q 3231 2300 2841 2188 
z
M 1259 4147 
L 1259 2491 
L 2053 2491 
Q 2509 2491 2742 2702 
Q 2975 2913 2975 3322 
Q 2975 3731 2742 3939 
Q 2509 4147 2053 4147 
L 1259 4147 
z
" transform="scale(0.015625)"/>
      </defs>
      <use xlink:href="#DejaVuSans-41"/>
      <use xlink:href="#DejaVuSans-6e" x="68.408203"/>
      <use xlink:href="#DejaVuSans-6f" x="131.787109"/>
      <use xlink:href="#DejaVuSans-6d" x="192.96875"/>
      <use xlink:href="#DejaVuSans-61" x="290.380859"/>
      <use xlink:href="#DejaVuSans-6c" x="351.660156"/>
      <use xlink:href="#DejaVuSans-79" x="379.443359"/>
      <use xlink:href="#DejaVuSans-20" x="438.623047"/>
      <use xlink:href="#DejaVuSans-44" x="470.410156"/>
      <use xlink:href="#DejaVuSans-65" x="547.412109"/>
      <use xlink:href="#DejaVuSans-74" x="608.935547"/>
      <use xlink:href="#DejaVuSans-65" x="648.144531"/>
      <use xlink:href="#DejaVuSans-63" x="709.667969"/>
      <use xlink:href="#DejaVuSans-74" x="764.648438"/>
      <use xlink:href="#DejaVuSans-69" x="803.857422"/>
      <use xlink:href="#DejaVuSans-6f" x="831.640625"/>
      <use xlink:href="#DejaVuSans-6e" x="892.822266"/>
      <use xlink:href="#DejaVuSans-20" x="956.201172"/>
      <use xlink:href="#DejaVuSans-56" x="987.988281"/>
      <use xlink:href="#DejaVuSans-55" x="1056.396484"/>
      <use xlink:href="#DejaVuSans-53" x="1129.589844"/>
      <use xlink:href="#DejaVuSans-2d" x="1193.066406"/>
      <use xlink:href="#DejaVuSans-50" x="1229.150391"/>
      <use xlink:href="#DejaVuSans-52" x="1289.453125"/>
     </g>
    </g>
   </g>
   <g id="line2d_14">
    <path d="M 84.71 314.104714 
L 676.08 314.104714 
" clip-path="url(#p2b06312cfc)" style="fill: none; stroke-dasharray: 5.55,2.4; stroke-dashoffset: 0; stroke: #ff0000; stroke-width: 1.5"/>
   </g>
   <g id="line2d_15">
    <path d="M 84.71 489.555094 
L 114.2785 461.183954 
L 143.847 437.974355 
L 173.4155 418.594155 
L 202.984 385.708274 
L 232.5525 364.739392 
L 262.121 351.422991 
L 291.6895 329.840786 
L 321.258 305.952325 
L 350.8265 272.776704 
L 380.395 269.907224 
L 409.9635 245.339891 
L 439.532 216.11296 
L 469.1005 192.763505 
L 498.669 172.902951 
L 528.2375 145.415859 
L 557.806 147.185107 
L 587.3745 111.624528 
L 616.943 87.782776 
L 646.5115 61.540143 
L 676.08 44.481399 
" clip-path="url(#p2b06312cfc)" style="fill: none; stroke: #000000; stroke-width: 1.5; stroke-linecap: square"/>
   </g>
   <g id="line2d_16">
    <path d="M 84.71 198.928306 
L 114.2785 193.549787 
L 143.847 184.437612 
L 173.4155 173.581396 
L 202.984 167.716389 
L 232.5525 161.077085 
L 262.121 152.141572 
L 291.6895 150.916525 
L 321.258 140.552739 
L 350.8265 134.334684 
L 380.395 123.122414 
L 409.9635 112.574121 
L 439.532 100.338072 
L 469.1005 87.409887 
L 498.669 85.997741 
L 528.2375 83.617384 
L 557.806 72.341075 
L 587.3745 69.076965 
L 616.943 56.82042 
L 646.5115 52.95081 
L 676.08 44.481399 
" clip-path="url(#p2b06312cfc)" style="fill: none; stroke-dasharray: 5.55,2.4; stroke-dashoffset: 0; stroke: #000000; stroke-width: 1.5"/>
   </g>
   <g id="line2d_17">
    <path d="M 84.71 611.062229 
L 114.2785 582.271436 
L 143.847 551.084926 
L 173.4155 542.478046 
L 202.984 501.040314 
L 232.5525 458.670918 
L 262.121 445.758968 
L 291.6895 389.649147 
L 321.258 413.864082 
L 350.8265 365.385735 
L 380.395 331.434139 
L 409.9635 288.784501 
L 439.532 264.616486 
L 469.1005 251.023659 
L 498.669 221.614363 
L 528.2375 167.737728 
L 557.806 160.638803 
L 587.3745 115.639981 
L 616.943 97.009358 
L 646.5115 83.350577 
L 676.08 44.481399 
" clip-path="url(#p2b06312cfc)" style="fill: none; stroke-dasharray: 5.55,2.4; stroke-dashoffset: 0; stroke: #000000; stroke-width: 1.5"/>
   </g>
   <g id="line2d_18">
    <path d="M 84.71 296.439286 
L 114.2785 284.360768 
L 143.847 265.786834 
L 173.4155 244.869698 
L 202.984 245.664438 
L 232.5525 240.435844 
L 262.121 212.994706 
L 291.6895 201.778777 
L 321.258 195.011317 
L 350.8265 185.556471 
L 380.395 168.515026 
L 409.9635 161.374385 
L 439.532 142.245185 
L 469.1005 138.828693 
L 498.669 107.502617 
L 528.2375 110.244579 
L 557.806 102.580627 
L 587.3745 82.976459 
L 616.943 64.084438 
L 646.5115 55.780248 
L 676.08 44.481399 
" clip-path="url(#p2b06312cfc)" style="fill: none; stroke-dasharray: 1.5,2.475; stroke-dashoffset: 0; stroke: #000000; stroke-width: 1.5"/>
   </g>
   <g id="line2d_19">
    <path d="M 84.71 380.682228 
L 114.2785 369.018129 
L 143.847 343.121162 
L 173.4155 333.010243 
L 202.984 318.626831 
L 232.5525 298.536853 
L 262.121 272.870595 
L 291.6895 253.444084 
L 321.258 245.024484 
L 350.8265 224.505327 
L 380.395 229.231838 
L 409.9635 190.93442 
L 439.532 172.460213 
L 469.1005 159.515951 
L 498.669 142.193425 
L 528.2375 133.318538 
L 557.806 109.018465 
L 587.3745 88.847866 
L 616.943 75.888689 
L 646.5115 60.943125 
L 676.08 44.481399 
" clip-path="url(#p2b06312cfc)" style="fill: none; stroke-dasharray: 1.5,2.475; stroke-dashoffset: 0; stroke: #000000; stroke-width: 1.5"/>
   </g>
   <g id="line2d_20">
    <path d="M 391.938258 324.143725 
L 391.938258 29.52 
" clip-path="url(#p2b06312cfc)" style="fill: none; stroke-dasharray: 5.55,2.4; stroke-dashoffset: 0; stroke: #ff0000; stroke-width: 1.5"/>
   </g>
   <g id="line2d_21">
    <path d="M 391.938258 647.08 
L 391.938258 324.143725 
" clip-path="url(#p2b06312cfc)" style="fill: none; stroke-dasharray: 3.7,1.6; stroke-dashoffset: 0; stroke: #f5493c; stroke-opacity: 0.5"/>
   </g>
   <g id="patch_3">
    <path d="M 84.71 647.08 
L 84.71 29.52 
" style="fill: none; stroke: #000000; stroke-width: 0.8; stroke-linejoin: miter; stroke-linecap: square"/>
   </g>
   <g id="patch_4">
    <path d="M 676.08 647.08 
L 676.08 29.52 
" style="fill: none; stroke: #000000; stroke-width: 0.8; stroke-linejoin: miter; stroke-linecap: square"/>
   </g>
   <g id="patch_5">
    <path d="M 84.71 647.08 
L 676.08 647.08 
" style="fill: none; stroke: #000000; stroke-width: 0.8; stroke-linejoin: miter; stroke-linecap: square"/>
   </g>
   <g id="patch_6">
    <path d="M 84.71 29.52 
L 676.08 29.52 
" style="fill: none; stroke: #000000; stroke-width: 0.8; stroke-linejoin: miter; stroke-linecap: square"/>
   </g>
   <g id="legend_1">
    <g id="patch_7">
     <path d="M 393.183125 637.08 
L 662.08 637.08 
Q 666.08 637.08 666.08 633.08 
L 666.08 517.655 
Q 666.08 513.655 662.08 513.655 
L 393.183125 513.655 
Q 389.183125 513.655 389.183125 517.655 
L 389.183125 633.08 
Q 389.183125 637.08 393.183125 637.08 
z
" style="fill: #ffffff; opacity: 0.8; stroke: #cccccc; stroke-linejoin: miter"/>
    </g>
    <g id="PathCollection_129">
     <g>
      <use xlink:href="#mca0f0ac128" x="417.183125" y="531.601875" style="fill: #ffb522; stroke: #ffb522"/>
     </g>
    </g>
    <g id="text_16">
     <!-- Transformer-based -->
     <g transform="translate(453.183125 536.851875) scale(0.2 -0.2)">
      <defs>
       <path id="DejaVuSans-54" d="M -19 4666 
L 3928 4666 
L 3928 4134 
L 2272 4134 
L 2272 0 
L 1638 0 
L 1638 4134 
L -19 4134 
L -19 4666 
z
" transform="scale(0.015625)"/>
       <path id="DejaVuSans-62" d="M 3116 1747 
Q 3116 2381 2855 2742 
Q 2594 3103 2138 3103 
Q 1681 3103 1420 2742 
Q 1159 2381 1159 1747 
Q 1159 1113 1420 752 
Q 1681 391 2138 391 
Q 2594 391 2855 752 
Q 3116 1113 3116 1747 
z
M 1159 2969 
Q 1341 3281 1617 3432 
Q 1894 3584 2278 3584 
Q 2916 3584 3314 3078 
Q 3713 2572 3713 1747 
Q 3713 922 3314 415 
Q 2916 -91 2278 -91 
Q 1894 -91 1617 61 
Q 1341 213 1159 525 
L 1159 0 
L 581 0 
L 581 4863 
L 1159 4863 
L 1159 2969 
z
" transform="scale(0.015625)"/>
       <path id="DejaVuSans-64" d="M 2906 2969 
L 2906 4863 
L 3481 4863 
L 3481 0 
L 2906 0 
L 2906 525 
Q 2725 213 2448 61 
Q 2172 -91 1784 -91 
Q 1150 -91 751 415 
Q 353 922 353 1747 
Q 353 2572 751 3078 
Q 1150 3584 1784 3584 
Q 2172 3584 2448 3432 
Q 2725 3281 2906 2969 
z
M 947 1747 
Q 947 1113 1208 752 
Q 1469 391 1925 391 
Q 2381 391 2643 752 
Q 2906 1113 2906 1747 
Q 2906 2381 2643 2742 
Q 2381 3103 1925 3103 
Q 1469 3103 1208 2742 
Q 947 2381 947 1747 
z
" transform="scale(0.015625)"/>
      </defs>
      <use xlink:href="#DejaVuSans-54"/>
      <use xlink:href="#DejaVuSans-72" x="46.333984"/>
      <use xlink:href="#DejaVuSans-61" x="87.447266"/>
      <use xlink:href="#DejaVuSans-6e" x="148.726562"/>
      <use xlink:href="#DejaVuSans-73" x="212.105469"/>
      <use xlink:href="#DejaVuSans-66" x="264.205078"/>
      <use xlink:href="#DejaVuSans-6f" x="299.410156"/>
      <use xlink:href="#DejaVuSans-72" x="360.591797"/>
      <use xlink:href="#DejaVuSans-6d" x="399.955078"/>
      <use xlink:href="#DejaVuSans-65" x="497.367188"/>
      <use xlink:href="#DejaVuSans-72" x="558.890625"/>
      <use xlink:href="#DejaVuSans-2d" x="593.628906"/>
      <use xlink:href="#DejaVuSans-62" x="629.712891"/>
      <use xlink:href="#DejaVuSans-61" x="693.189453"/>
      <use xlink:href="#DejaVuSans-73" x="754.46875"/>
      <use xlink:href="#DejaVuSans-65" x="806.568359"/>
      <use xlink:href="#DejaVuSans-64" x="868.091797"/>
     </g>
    </g>
    <g id="PathCollection_130">
     <g>
      <use xlink:href="#mf8447813e8" x="417.183125" y="560.958125" style="fill: #4494ff; stroke: #4494ff"/>
     </g>
    </g>
    <g id="text_17">
     <!-- Convolutional-based -->
     <g transform="translate(453.183125 566.208125) scale(0.2 -0.2)">
      <defs>
       <path id="DejaVuSans-76" d="M 191 3500 
L 800 3500 
L 1894 563 
L 2988 3500 
L 3597 3500 
L 2284 0 
L 1503 0 
L 191 3500 
z
" transform="scale(0.015625)"/>
      </defs>
      <use xlink:href="#DejaVuSans-43"/>
      <use xlink:href="#DejaVuSans-6f" x="69.824219"/>
      <use xlink:href="#DejaVuSans-6e" x="131.005859"/>
      <use xlink:href="#DejaVuSans-76" x="194.384766"/>
      <use xlink:href="#DejaVuSans-6f" x="253.564453"/>
      <use xlink:href="#DejaVuSans-6c" x="314.746094"/>
      <use xlink:href="#DejaVuSans-75" x="342.529297"/>
      <use xlink:href="#DejaVuSans-74" x="405.908203"/>
      <use xlink:href="#DejaVuSans-69" x="445.117188"/>
      <use xlink:href="#DejaVuSans-6f" x="472.900391"/>
      <use xlink:href="#DejaVuSans-6e" x="534.082031"/>
      <use xlink:href="#DejaVuSans-61" x="597.460938"/>
      <use xlink:href="#DejaVuSans-6c" x="658.740234"/>
      <use xlink:href="#DejaVuSans-2d" x="686.523438"/>
      <use xlink:href="#DejaVuSans-62" x="722.607422"/>
      <use xlink:href="#DejaVuSans-61" x="786.083984"/>
      <use xlink:href="#DejaVuSans-73" x="847.363281"/>
      <use xlink:href="#DejaVuSans-65" x="899.462891"/>
      <use xlink:href="#DejaVuSans-64" x="960.986328"/>
     </g>
    </g>
    <g id="PathCollection_131">
     <g>
      <use xlink:href="#m9025d38b46" x="417.183125" y="590.314375" style="fill: #ea7dff; stroke: #ea7dff; stroke-width: 1.5"/>
     </g>
    </g>
    <g id="text_18">
     <!-- Rocket -->
     <g transform="translate(453.183125 595.564375) scale(0.2 -0.2)">
      <defs>
       <path id="DejaVuSans-6b" d="M 581 4863 
L 1159 4863 
L 1159 1991 
L 2875 3500 
L 3609 3500 
L 1753 1863 
L 3688 0 
L 2938 0 
L 1159 1709 
L 1159 0 
L 581 0 
L 581 4863 
z
" transform="scale(0.015625)"/>
      </defs>
      <use xlink:href="#DejaVuSans-52"/>
      <use xlink:href="#DejaVuSans-6f" x="64.982422"/>
      <use xlink:href="#DejaVuSans-63" x="126.164062"/>
      <use xlink:href="#DejaVuSans-6b" x="181.144531"/>
      <use xlink:href="#DejaVuSans-65" x="235.429688"/>
      <use xlink:href="#DejaVuSans-74" x="296.953125"/>
     </g>
    </g>
    <g id="PathCollection_132">
     <g>
      <use xlink:href="#m2c0ef25ac3" x="417.183125" y="619.670625" style="fill: #91aac2; stroke: #91aac2"/>
     </g>
    </g>
    <g id="text_19">
     <!-- Feature-based -->
     <g transform="translate(453.183125 624.920625) scale(0.2 -0.2)">
      <defs>
       <path id="DejaVuSans-46" d="M 628 4666 
L 3309 4666 
L 3309 4134 
L 1259 4134 
L 1259 2759 
L 3109 2759 
L 3109 2228 
L 1259 2228 
L 1259 0 
L 628 0 
L 628 4666 
z
" transform="scale(0.015625)"/>
      </defs>
      <use xlink:href="#DejaVuSans-46"/>
      <use xlink:href="#DejaVuSans-65" x="52.019531"/>
      <use xlink:href="#DejaVuSans-61" x="113.542969"/>
      <use xlink:href="#DejaVuSans-74" x="174.822266"/>
      <use xlink:href="#DejaVuSans-75" x="214.03125"/>
      <use xlink:href="#DejaVuSans-72" x="277.410156"/>
      <use xlink:href="#DejaVuSans-65" x="316.273438"/>
      <use xlink:href="#DejaVuSans-2d" x="377.796875"/>
      <use xlink:href="#DejaVuSans-62" x="413.880859"/>
      <use xlink:href="#DejaVuSans-61" x="477.357422"/>
      <use xlink:href="#DejaVuSans-73" x="538.636719"/>
      <use xlink:href="#DejaVuSans-65" x="590.736328"/>
      <use xlink:href="#DejaVuSans-64" x="652.259766"/>
     </g>
    </g>
   </g>
  </g>
 </g>
 <defs>
  <clipPath id="p2b06312cfc">
   <rect x="84.71" y="29.52" width="591.37" height="617.56"/>
  </clipPath>
 </defs>
</svg>
