<?xml version="1.0" encoding="utf-8" standalone="no"?>
<!DOCTYPE svg PUBLIC "-//W3C//DTD SVG 1.1//EN"
  "http://www.w3.org/Graphics/SVG/1.1/DTD/svg11.dtd">
<svg xmlns:xlink="http://www.w3.org/1999/xlink" width="396pt" height="252pt" viewBox="0 0 396 252" xmlns="http://www.w3.org/2000/svg" version="1.1">
 <metadata>
  <rdf:RDF xmlns:dc="http://purl.org/dc/elements/1.1/" xmlns:cc="http://creativecommons.org/ns#" xmlns:rdf="http://www.w3.org/1999/02/22-rdf-syntax-ns#">
   <cc:Work>
    <dc:type rdf:resource="http://purl.org/dc/dcmitype/StillImage"/>
    <dc:date>2023-05-31T14:23:17.587014</dc:date>
    <dc:format>image/svg+xml</dc:format>
    <dc:creator>
     <cc:Agent>
      <dc:title>Matplotlib v3.6.3, https://matplotlib.org/</dc:title>
     </cc:Agent>
    </dc:creator>
   </cc:Work>
  </rdf:RDF>
 </metadata>
 <defs>
  <style type="text/css">*{stroke-linejoin: round; stroke-linecap: butt}</style>
 </defs>
 <g id="figure_1">
  <g id="patch_1">
   <path d="M 0 252 
L 396 252 
L 396 0 
L 0 0 
z
" style="fill: #ffffff"/>
  </g>
  <g id="axes_1">
   <g id="patch_2">
    <path d="M 41.56 219.988 
L 372.178462 219.988 
L 372.178462 14.04 
L 41.56 14.04 
z
" style="fill: #ffffff"/>
   </g>
   <g id="PathCollection_1">
    <defs>
     <path id="m64fc731533" d="M 0 3.535534 
C 0.937635 3.535534 1.836992 3.163008 2.5 2.5 
C 3.163008 1.836992 3.535534 0.937635 3.535534 0 
C 3.535534 -0.937635 3.163008 -1.836992 2.5 -2.5 
C 1.836992 -3.163008 0.937635 -3.535534 0 -3.535534 
C -0.937635 -3.535534 -1.836992 -3.163008 -2.5 -2.5 
C -3.163008 -1.836992 -3.535534 -0.937635 -3.535534 0 
C -3.535534 0.937635 -3.163008 1.836992 -2.5 2.5 
C -1.836992 3.163008 -0.937635 3.535534 0 3.535534 
z
" style="stroke: #4494ff"/>
    </defs>
    <g clip-path="url(#pbd61b0063b)">
     <use xlink:href="#m64fc731533" x="41.56" y="125.999375" style="fill: #4494ff; stroke: #4494ff"/>
     <use xlink:href="#m64fc731533" x="96.663077" y="162.161334" style="fill: #4494ff; stroke: #4494ff"/>
     <use xlink:href="#m64fc731533" x="151.766154" y="178.552933" style="fill: #4494ff; stroke: #4494ff"/>
     <use xlink:href="#m64fc731533" x="206.869231" y="183.604895" style="fill: #4494ff; stroke: #4494ff"/>
     <use xlink:href="#m64fc731533" x="261.972308" y="189.17845" style="fill: #4494ff; stroke: #4494ff"/>
     <use xlink:href="#m64fc731533" x="317.075385" y="190.845103" style="fill: #4494ff; stroke: #4494ff"/>
     <use xlink:href="#m64fc731533" x="349.308619" y="191.567133" style="fill: #4494ff; stroke: #4494ff"/>
     <use xlink:href="#m64fc731533" x="372.178462" y="191.874612" style="fill: #4494ff; stroke: #4494ff"/>
    </g>
   </g>
   <g id="PathCollection_2">
    <path d="M 38.024466 26.936807 
L 45.095534 26.936807 
L 45.095534 19.865739 
L 38.024466 19.865739 
L 38.024466 26.936807 
z
" clip-path="url(#pbd61b0063b)" style="fill: none; stroke: #ffb522"/>
    <path d="M 93.127543 119.470858 
L 100.198611 119.470858 
L 100.198611 112.39979 
L 93.127543 112.39979 
L 93.127543 119.470858 
z
" clip-path="url(#pbd61b0063b)" style="fill: none; stroke: #ffb522"/>
    <path d="M 148.23062 169.462724 
L 155.301688 169.462724 
L 155.301688 162.391657 
L 148.23062 162.391657 
L 148.23062 169.462724 
z
" clip-path="url(#pbd61b0063b)" style="fill: none; stroke: #ffb522"/>
    <path d="M 203.333697 187.201354 
L 210.404765 187.201354 
L 210.404765 180.130287 
L 203.333697 180.130287 
L 203.333697 187.201354 
z
" clip-path="url(#pbd61b0063b)" style="fill: none; stroke: #ffb522"/>
    <path d="M 258.436774 190.743442 
L 265.507842 190.743442 
L 265.507842 183.672374 
L 258.436774 183.672374 
L 258.436774 190.743442 
z
" clip-path="url(#pbd61b0063b)" style="fill: none; stroke: #ffb522"/>
    <path d="M 313.539851 193.055277 
L 320.610919 193.055277 
L 320.610919 185.98421 
L 313.539851 185.98421 
L 313.539851 193.055277 
z
" clip-path="url(#pbd61b0063b)" style="fill: none; stroke: #ffb522"/>
    <path d="M 345.773085 194.161191 
L 352.844153 194.161191 
L 352.844153 187.090123 
L 345.773085 187.090123 
L 345.773085 194.161191 
z
" clip-path="url(#pbd61b0063b)" style="fill: none; stroke: #ffb522"/>
    <path d="M 368.642928 193.829092 
L 375.713996 193.829092 
L 375.713996 186.758024 
L 368.642928 186.758024 
L 368.642928 193.829092 
z
" clip-path="url(#pbd61b0063b)" style="fill: none; stroke: #ffb522"/>
   </g>
   <g id="PathCollection_3">
    <path d="M 41.56 197.371536 
L 38.024466 204.442604 
L 45.095534 204.442604 
L 41.56 197.371536 
z
" clip-path="url(#pbd61b0063b)" style="fill: none; stroke: #91aac2"/>
    <path d="M 96.663077 203.314395 
L 93.127543 210.385462 
L 100.198611 210.385462 
L 96.663077 203.314395 
z
" clip-path="url(#pbd61b0063b)" style="fill: none; stroke: #91aac2"/>
    <path d="M 151.766154 205.302714 
L 148.23062 212.373782 
L 155.301688 212.373782 
L 151.766154 205.302714 
z
" clip-path="url(#pbd61b0063b)" style="fill: none; stroke: #91aac2"/>
    <path d="M 206.869231 206.078549 
L 203.333697 213.149616 
L 210.404765 213.149616 
L 206.869231 206.078549 
z
" clip-path="url(#pbd61b0063b)" style="fill: none; stroke: #91aac2"/>
    <path d="M 261.972308 206.731576 
L 258.436774 213.802644 
L 265.507842 213.802644 
L 261.972308 206.731576 
z
" clip-path="url(#pbd61b0063b)" style="fill: none; stroke: #91aac2"/>
    <path d="M 317.075385 206.947208 
L 313.539851 214.018275 
L 320.610919 214.018275 
L 317.075385 206.947208 
z
" clip-path="url(#pbd61b0063b)" style="fill: none; stroke: #91aac2"/>
    <path d="M 349.308619 207.040932 
L 345.773085 214.112 
L 352.844153 214.112 
L 349.308619 207.040932 
z
" clip-path="url(#pbd61b0063b)" style="fill: none; stroke: #91aac2"/>
    <path d="M 372.178462 207.091193 
L 368.642928 214.162261 
L 375.713996 214.162261 
L 372.178462 207.091193 
z
" clip-path="url(#pbd61b0063b)" style="fill: none; stroke: #91aac2"/>
   </g>
   <g id="PathCollection_4">
    <defs>
     <path id="mdbc3ad18c2" d="M -3.535534 3.535534 
L 3.535534 -3.535534 
M -3.535534 -3.535534 
L 3.535534 3.535534 
" style="stroke: #ea7dff; stroke-width: 1.5"/>
    </defs>
    <g clip-path="url(#pbd61b0063b)">
     <use xlink:href="#mdbc3ad18c2" x="41.56" y="109.507045" style="fill: #ea7dff; stroke: #ea7dff; stroke-width: 1.5"/>
     <use xlink:href="#mdbc3ad18c2" x="96.663077" y="153.710854" style="fill: #ea7dff; stroke: #ea7dff; stroke-width: 1.5"/>
     <use xlink:href="#mdbc3ad18c2" x="151.766154" y="174.477185" style="fill: #ea7dff; stroke: #ea7dff; stroke-width: 1.5"/>
     <use xlink:href="#mdbc3ad18c2" x="206.869231" y="184.303447" style="fill: #ea7dff; stroke: #ea7dff; stroke-width: 1.5"/>
     <use xlink:href="#mdbc3ad18c2" x="261.972308" y="192.137012" style="fill: #ea7dff; stroke: #ea7dff; stroke-width: 1.5"/>
     <use xlink:href="#mdbc3ad18c2" x="317.075385" y="195.085033" style="fill: #ea7dff; stroke: #ea7dff; stroke-width: 1.5"/>
     <use xlink:href="#mdbc3ad18c2" x="349.308619" y="196.679818" style="fill: #ea7dff; stroke: #ea7dff; stroke-width: 1.5"/>
     <use xlink:href="#mdbc3ad18c2" x="372.178462" y="198.251816" style="fill: #ea7dff; stroke: #ea7dff; stroke-width: 1.5"/>
    </g>
   </g>
   <g id="matplotlib.axis_1">
    <g id="xtick_1">
     <g id="line2d_1">
      <defs>
       <path id="m0cc8804fa1" d="M 0 0 
L 0 3.5 
" style="stroke: #000000; stroke-width: 0.8"/>
      </defs>
      <g>
       <use xlink:href="#m0cc8804fa1" x="187.244611" y="219.988" style="stroke: #000000; stroke-width: 0.8"/>
      </g>
     </g>
     <g id="text_1">
      <!-- $\mathdefault{10^{2}}$ -->
      <g transform="translate(175.804611 233.365969) scale(0.13 -0.13)">
       <defs>
        <path id="DejaVuSans-31" d="M 794 531 
L 1825 531 
L 1825 4091 
L 703 3866 
L 703 4441 
L 1819 4666 
L 2450 4666 
L 2450 531 
L 3481 531 
L 3481 0 
L 794 0 
L 794 531 
z
" transform="scale(0.015625)"/>
        <path id="DejaVuSans-30" d="M 2034 4250 
Q 1547 4250 1301 3770 
Q 1056 3291 1056 2328 
Q 1056 1369 1301 889 
Q 1547 409 2034 409 
Q 2525 409 2770 889 
Q 3016 1369 3016 2328 
Q 3016 3291 2770 3770 
Q 2525 4250 2034 4250 
z
M 2034 4750 
Q 2819 4750 3233 4129 
Q 3647 3509 3647 2328 
Q 3647 1150 3233 529 
Q 2819 -91 2034 -91 
Q 1250 -91 836 529 
Q 422 1150 422 2328 
Q 422 3509 836 4129 
Q 1250 4750 2034 4750 
z
" transform="scale(0.015625)"/>
        <path id="DejaVuSans-32" d="M 1228 531 
L 3431 531 
L 3431 0 
L 469 0 
L 469 531 
Q 828 903 1448 1529 
Q 2069 2156 2228 2338 
Q 2531 2678 2651 2914 
Q 2772 3150 2772 3378 
Q 2772 3750 2511 3984 
Q 2250 4219 1831 4219 
Q 1534 4219 1204 4116 
Q 875 4013 500 3803 
L 500 4441 
Q 881 4594 1212 4672 
Q 1544 4750 1819 4750 
Q 2544 4750 2975 4387 
Q 3406 4025 3406 3419 
Q 3406 3131 3298 2873 
Q 3191 2616 2906 2266 
Q 2828 2175 2409 1742 
Q 1991 1309 1228 531 
z
" transform="scale(0.015625)"/>
       </defs>
       <use xlink:href="#DejaVuSans-31" transform="translate(0 0.765625)"/>
       <use xlink:href="#DejaVuSans-30" transform="translate(63.623047 0.765625)"/>
       <use xlink:href="#DejaVuSans-32" transform="translate(128.203125 39.046875) scale(0.7)"/>
      </g>
     </g>
    </g>
    <g id="xtick_2">
     <g id="line2d_2">
      <g>
       <use xlink:href="#m0cc8804fa1" x="370.293071" y="219.988" style="stroke: #000000; stroke-width: 0.8"/>
      </g>
     </g>
     <g id="text_2">
      <!-- $\mathdefault{10^{3}}$ -->
      <g transform="translate(358.853071 233.365969) scale(0.13 -0.13)">
       <defs>
        <path id="DejaVuSans-33" d="M 2597 2516 
Q 3050 2419 3304 2112 
Q 3559 1806 3559 1356 
Q 3559 666 3084 287 
Q 2609 -91 1734 -91 
Q 1441 -91 1130 -33 
Q 819 25 488 141 
L 488 750 
Q 750 597 1062 519 
Q 1375 441 1716 441 
Q 2309 441 2620 675 
Q 2931 909 2931 1356 
Q 2931 1769 2642 2001 
Q 2353 2234 1838 2234 
L 1294 2234 
L 1294 2753 
L 1863 2753 
Q 2328 2753 2575 2939 
Q 2822 3125 2822 3475 
Q 2822 3834 2567 4026 
Q 2313 4219 1838 4219 
Q 1578 4219 1281 4162 
Q 984 4106 628 3988 
L 628 4550 
Q 988 4650 1302 4700 
Q 1616 4750 1894 4750 
Q 2613 4750 3031 4423 
Q 3450 4097 3450 3541 
Q 3450 3153 3228 2886 
Q 3006 2619 2597 2516 
z
" transform="scale(0.015625)"/>
       </defs>
       <use xlink:href="#DejaVuSans-31" transform="translate(0 0.765625)"/>
       <use xlink:href="#DejaVuSans-30" transform="translate(63.623047 0.765625)"/>
       <use xlink:href="#DejaVuSans-33" transform="translate(128.203125 39.046875) scale(0.7)"/>
      </g>
     </g>
    </g>
    <g id="xtick_3">
     <g id="line2d_3">
      <defs>
       <path id="m4742949c64" d="M 0 0 
L 0 2 
" style="stroke: #000000; stroke-width: 0.6"/>
      </defs>
      <g>
       <use xlink:href="#m4742949c64" x="59.299229" y="219.988" style="stroke: #000000; stroke-width: 0.6"/>
      </g>
     </g>
    </g>
    <g id="xtick_4">
     <g id="line2d_4">
      <g>
       <use xlink:href="#m4742949c64" x="91.532462" y="219.988" style="stroke: #000000; stroke-width: 0.6"/>
      </g>
     </g>
    </g>
    <g id="xtick_5">
     <g id="line2d_5">
      <g>
       <use xlink:href="#m4742949c64" x="114.402306" y="219.988" style="stroke: #000000; stroke-width: 0.6"/>
      </g>
     </g>
    </g>
    <g id="xtick_6">
     <g id="line2d_6">
      <g>
       <use xlink:href="#m4742949c64" x="132.141534" y="219.988" style="stroke: #000000; stroke-width: 0.6"/>
      </g>
     </g>
    </g>
    <g id="xtick_7">
     <g id="line2d_7">
      <g>
       <use xlink:href="#m4742949c64" x="146.635539" y="219.988" style="stroke: #000000; stroke-width: 0.6"/>
      </g>
     </g>
    </g>
    <g id="xtick_8">
     <g id="line2d_8">
      <g>
       <use xlink:href="#m4742949c64" x="158.890046" y="219.988" style="stroke: #000000; stroke-width: 0.6"/>
      </g>
     </g>
    </g>
    <g id="xtick_9">
     <g id="line2d_9">
      <g>
       <use xlink:href="#m4742949c64" x="169.505383" y="219.988" style="stroke: #000000; stroke-width: 0.6"/>
      </g>
     </g>
    </g>
    <g id="xtick_10">
     <g id="line2d_10">
      <g>
       <use xlink:href="#m4742949c64" x="178.868773" y="219.988" style="stroke: #000000; stroke-width: 0.6"/>
      </g>
     </g>
    </g>
    <g id="xtick_11">
     <g id="line2d_11">
      <g>
       <use xlink:href="#m4742949c64" x="242.347688" y="219.988" style="stroke: #000000; stroke-width: 0.6"/>
      </g>
     </g>
    </g>
    <g id="xtick_12">
     <g id="line2d_12">
      <g>
       <use xlink:href="#m4742949c64" x="274.580922" y="219.988" style="stroke: #000000; stroke-width: 0.6"/>
      </g>
     </g>
    </g>
    <g id="xtick_13">
     <g id="line2d_13">
      <g>
       <use xlink:href="#m4742949c64" x="297.450765" y="219.988" style="stroke: #000000; stroke-width: 0.6"/>
      </g>
     </g>
    </g>
    <g id="xtick_14">
     <g id="line2d_14">
      <g>
       <use xlink:href="#m4742949c64" x="315.189994" y="219.988" style="stroke: #000000; stroke-width: 0.6"/>
      </g>
     </g>
    </g>
    <g id="xtick_15">
     <g id="line2d_15">
      <g>
       <use xlink:href="#m4742949c64" x="329.683999" y="219.988" style="stroke: #000000; stroke-width: 0.6"/>
      </g>
     </g>
    </g>
    <g id="xtick_16">
     <g id="line2d_16">
      <g>
       <use xlink:href="#m4742949c64" x="341.938506" y="219.988" style="stroke: #000000; stroke-width: 0.6"/>
      </g>
     </g>
    </g>
    <g id="xtick_17">
     <g id="line2d_17">
      <g>
       <use xlink:href="#m4742949c64" x="352.553842" y="219.988" style="stroke: #000000; stroke-width: 0.6"/>
      </g>
     </g>
    </g>
    <g id="xtick_18">
     <g id="line2d_18">
      <g>
       <use xlink:href="#m4742949c64" x="361.917233" y="219.988" style="stroke: #000000; stroke-width: 0.6"/>
      </g>
     </g>
    </g>
   </g>
   <g id="matplotlib.axis_2">
    <g id="ytick_1">
     <g id="line2d_19">
      <defs>
       <path id="mebc008668f" d="M 0 0 
L -3.5 0 
" style="stroke: #000000; stroke-width: 0.8"/>
      </defs>
      <g>
       <use xlink:href="#mebc008668f" x="41.56" y="217.629617" style="stroke: #000000; stroke-width: 0.8"/>
      </g>
     </g>
     <g id="text_3">
      <!-- 0.0 -->
      <g transform="translate(13.885938 222.568601) scale(0.13 -0.13)">
       <defs>
        <path id="DejaVuSans-2e" d="M 684 794 
L 1344 794 
L 1344 0 
L 684 0 
L 684 794 
z
" transform="scale(0.015625)"/>
       </defs>
       <use xlink:href="#DejaVuSans-30"/>
       <use xlink:href="#DejaVuSans-2e" x="63.623047"/>
       <use xlink:href="#DejaVuSans-30" x="95.410156"/>
      </g>
     </g>
    </g>
    <g id="ytick_2">
     <g id="line2d_20">
      <g>
       <use xlink:href="#mebc008668f" x="41.56" y="169.779554" style="stroke: #000000; stroke-width: 0.8"/>
      </g>
     </g>
     <g id="text_4">
      <!-- 0.2 -->
      <g transform="translate(13.885938 174.718539) scale(0.13 -0.13)">
       <use xlink:href="#DejaVuSans-30"/>
       <use xlink:href="#DejaVuSans-2e" x="63.623047"/>
       <use xlink:href="#DejaVuSans-32" x="95.410156"/>
      </g>
     </g>
    </g>
    <g id="ytick_3">
     <g id="line2d_21">
      <g>
       <use xlink:href="#mebc008668f" x="41.56" y="121.929492" style="stroke: #000000; stroke-width: 0.8"/>
      </g>
     </g>
     <g id="text_5">
      <!-- 0.4 -->
      <g transform="translate(13.885938 126.868476) scale(0.13 -0.13)">
       <defs>
        <path id="DejaVuSans-34" d="M 2419 4116 
L 825 1625 
L 2419 1625 
L 2419 4116 
z
M 2253 4666 
L 3047 4666 
L 3047 1625 
L 3713 1625 
L 3713 1100 
L 3047 1100 
L 3047 0 
L 2419 0 
L 2419 1100 
L 313 1100 
L 313 1709 
L 2253 4666 
z
" transform="scale(0.015625)"/>
       </defs>
       <use xlink:href="#DejaVuSans-30"/>
       <use xlink:href="#DejaVuSans-2e" x="63.623047"/>
       <use xlink:href="#DejaVuSans-34" x="95.410156"/>
      </g>
     </g>
    </g>
    <g id="ytick_4">
     <g id="line2d_22">
      <g>
       <use xlink:href="#mebc008668f" x="41.56" y="74.079429" style="stroke: #000000; stroke-width: 0.8"/>
      </g>
     </g>
     <g id="text_6">
      <!-- 0.6 -->
      <g transform="translate(13.885938 79.018413) scale(0.13 -0.13)">
       <defs>
        <path id="DejaVuSans-36" d="M 2113 2584 
Q 1688 2584 1439 2293 
Q 1191 2003 1191 1497 
Q 1191 994 1439 701 
Q 1688 409 2113 409 
Q 2538 409 2786 701 
Q 3034 994 3034 1497 
Q 3034 2003 2786 2293 
Q 2538 2584 2113 2584 
z
M 3366 4563 
L 3366 3988 
Q 3128 4100 2886 4159 
Q 2644 4219 2406 4219 
Q 1781 4219 1451 3797 
Q 1122 3375 1075 2522 
Q 1259 2794 1537 2939 
Q 1816 3084 2150 3084 
Q 2853 3084 3261 2657 
Q 3669 2231 3669 1497 
Q 3669 778 3244 343 
Q 2819 -91 2113 -91 
Q 1303 -91 875 529 
Q 447 1150 447 2328 
Q 447 3434 972 4092 
Q 1497 4750 2381 4750 
Q 2619 4750 2861 4703 
Q 3103 4656 3366 4563 
z
" transform="scale(0.015625)"/>
       </defs>
       <use xlink:href="#DejaVuSans-30"/>
       <use xlink:href="#DejaVuSans-2e" x="63.623047"/>
       <use xlink:href="#DejaVuSans-36" x="95.410156"/>
      </g>
     </g>
    </g>
    <g id="ytick_5">
     <g id="line2d_23">
      <g>
       <use xlink:href="#mebc008668f" x="41.56" y="26.229366" style="stroke: #000000; stroke-width: 0.8"/>
      </g>
     </g>
     <g id="text_7">
      <!-- 0.8 -->
      <g transform="translate(13.885938 31.168351) scale(0.13 -0.13)">
       <defs>
        <path id="DejaVuSans-38" d="M 2034 2216 
Q 1584 2216 1326 1975 
Q 1069 1734 1069 1313 
Q 1069 891 1326 650 
Q 1584 409 2034 409 
Q 2484 409 2743 651 
Q 3003 894 3003 1313 
Q 3003 1734 2745 1975 
Q 2488 2216 2034 2216 
z
M 1403 2484 
Q 997 2584 770 2862 
Q 544 3141 544 3541 
Q 544 4100 942 4425 
Q 1341 4750 2034 4750 
Q 2731 4750 3128 4425 
Q 3525 4100 3525 3541 
Q 3525 3141 3298 2862 
Q 3072 2584 2669 2484 
Q 3125 2378 3379 2068 
Q 3634 1759 3634 1313 
Q 3634 634 3220 271 
Q 2806 -91 2034 -91 
Q 1263 -91 848 271 
Q 434 634 434 1313 
Q 434 1759 690 2068 
Q 947 2378 1403 2484 
z
M 1172 3481 
Q 1172 3119 1398 2916 
Q 1625 2713 2034 2713 
Q 2441 2713 2670 2916 
Q 2900 3119 2900 3481 
Q 2900 3844 2670 4047 
Q 2441 4250 2034 4250 
Q 1625 4250 1398 4047 
Q 1172 3844 1172 3481 
z
" transform="scale(0.015625)"/>
       </defs>
       <use xlink:href="#DejaVuSans-30"/>
       <use xlink:href="#DejaVuSans-2e" x="63.623047"/>
       <use xlink:href="#DejaVuSans-38" x="95.410156"/>
      </g>
     </g>
    </g>
   </g>
   <g id="line2d_24">
    <path d="M 41.56 125.999375 
L 96.663077 162.161334 
L 151.766154 178.552933 
L 206.869231 183.604895 
L 261.972308 189.17845 
L 317.075385 190.845103 
L 349.308619 191.567133 
L 372.178462 191.874612 
" clip-path="url(#pbd61b0063b)" style="fill: none; stroke: #4494ff; stroke-width: 1.5; stroke-linecap: square"/>
   </g>
   <g id="line2d_25">
    <path d="M 41.56 23.401273 
L 96.663077 115.935324 
L 151.766154 165.927191 
L 206.869231 183.66582 
L 261.972308 187.207908 
L 317.075385 189.519744 
L 349.308619 190.625657 
L 372.178462 190.293558 
" clip-path="url(#pbd61b0063b)" style="fill: none; stroke: #ffb522; stroke-width: 1.5; stroke-linecap: square"/>
   </g>
   <g id="line2d_26">
    <path d="M 41.56 200.90707 
L 96.663077 206.849928 
L 151.766154 208.838248 
L 206.869231 209.614083 
L 261.972308 210.26711 
L 317.075385 210.482741 
L 349.308619 210.576466 
L 372.178462 210.626727 
" clip-path="url(#pbd61b0063b)" style="fill: none; stroke: #91aac2; stroke-width: 1.5; stroke-linecap: square"/>
   </g>
   <g id="line2d_27">
    <path d="M 41.56 109.507045 
L 96.663077 153.710854 
L 151.766154 174.477185 
L 206.869231 184.303447 
L 261.972308 192.137012 
L 317.075385 195.085033 
L 349.308619 196.679818 
L 372.178462 198.251816 
" clip-path="url(#pbd61b0063b)" style="fill: none; stroke: #ea7dff; stroke-width: 1.5; stroke-linecap: square"/>
   </g>
   <g id="patch_3">
    <path d="M 41.56 219.988 
L 41.56 14.04 
" style="fill: none; stroke: #000000; stroke-width: 0.8; stroke-linejoin: miter; stroke-linecap: square"/>
   </g>
   <g id="patch_4">
    <path d="M 372.178462 219.988 
L 372.178462 14.04 
" style="fill: none; stroke: #000000; stroke-width: 0.8; stroke-linejoin: miter; stroke-linecap: square"/>
   </g>
   <g id="patch_5">
    <path d="M 41.56 219.988 
L 372.178462 219.988 
" style="fill: none; stroke: #000000; stroke-width: 0.8; stroke-linejoin: miter; stroke-linecap: square"/>
   </g>
   <g id="patch_6">
    <path d="M 41.56 14.04 
L 372.178462 14.04 
" style="fill: none; stroke: #000000; stroke-width: 0.8; stroke-linejoin: miter; stroke-linecap: square"/>
   </g>
  </g>
 </g>
 <defs>
  <clipPath id="pbd61b0063b">
   <rect x="41.56" y="14.04" width="330.618462" height="205.948"/>
  </clipPath>
 </defs>
</svg>
