<?xml version="1.0" encoding="utf-8" standalone="no"?>
<!DOCTYPE svg PUBLIC "-//W3C//DTD SVG 1.1//EN"
  "http://www.w3.org/Graphics/SVG/1.1/DTD/svg11.dtd">
<svg xmlns:xlink="http://www.w3.org/1999/xlink" width="396pt" height="252pt" viewBox="0 0 396 252" xmlns="http://www.w3.org/2000/svg" version="1.1">
 <metadata>
  <rdf:RDF xmlns:dc="http://purl.org/dc/elements/1.1/" xmlns:cc="http://creativecommons.org/ns#" xmlns:rdf="http://www.w3.org/1999/02/22-rdf-syntax-ns#">
   <cc:Work>
    <dc:type rdf:resource="http://purl.org/dc/dcmitype/StillImage"/>
    <dc:date>2023-05-31T13:16:25.355245</dc:date>
    <dc:format>image/svg+xml</dc:format>
    <dc:creator>
     <cc:Agent>
      <dc:title>Matplotlib v3.6.3, https://matplotlib.org/</dc:title>
     </cc:Agent>
    </dc:creator>
   </cc:Work>
  </rdf:RDF>
 </metadata>
 <defs>
  <style type="text/css">*{stroke-linejoin: round; stroke-linecap: butt}</style>
 </defs>
 <g id="figure_1">
  <g id="patch_1">
   <path d="M 0 252 
L 396 252 
L 396 0 
L 0 0 
z
" style="fill: #ffffff"/>
  </g>
  <g id="axes_1">
   <g id="patch_2">
    <path d="M 44.328344 219.988 
L 372.178462 219.988 
L 372.178462 18.472845 
L 44.328344 18.472845 
z
" style="fill: #ffffff"/>
   </g>
   <g id="PathCollection_1">
    <defs>
     <path id="m0595e02e3f" d="M 0 3.535534 
C 0.937635 3.535534 1.836992 3.163008 2.5 2.5 
C 3.163008 1.836992 3.535534 0.937635 3.535534 0 
C 3.535534 -0.937635 3.163008 -1.836992 2.5 -2.5 
C 1.836992 -3.163008 0.937635 -3.535534 0 -3.535534 
C -0.937635 -3.535534 -1.836992 -3.163008 -2.5 -2.5 
C -3.163008 -1.836992 -3.535534 -0.937635 -3.535534 0 
C -3.535534 0.937635 -3.163008 1.836992 -2.5 2.5 
C -1.836992 3.163008 -0.937635 3.535534 0 3.535534 
z
" style="stroke: #4494ff"/>
    </defs>
    <g clip-path="url(#pc1e2815784)">
     <use xlink:href="#m0595e02e3f" x="44.328344" y="34.170979" style="fill: #4494ff; stroke: #4494ff"/>
     <use xlink:href="#m0595e02e3f" x="98.97003" y="38.207589" style="fill: #4494ff; stroke: #4494ff"/>
     <use xlink:href="#m0595e02e3f" x="153.611716" y="35.307398" style="fill: #4494ff; stroke: #4494ff"/>
     <use xlink:href="#m0595e02e3f" x="208.253403" y="44.731301" style="fill: #4494ff; stroke: #4494ff"/>
     <use xlink:href="#m0595e02e3f" x="262.895089" y="36.973485" style="fill: #4494ff; stroke: #4494ff"/>
     <use xlink:href="#m0595e02e3f" x="317.536776" y="47.635744" style="fill: #4494ff; stroke: #4494ff"/>
     <use xlink:href="#m0595e02e3f" x="349.500113" y="50.387881" style="fill: #4494ff; stroke: #4494ff"/>
     <use xlink:href="#m0595e02e3f" x="372.178462" y="54.145427" style="fill: #4494ff; stroke: #4494ff"/>
    </g>
   </g>
   <g id="PathCollection_2">
    <path d="M 40.79281 31.168159 
L 47.863878 31.168159 
L 47.863878 24.097091 
L 40.79281 24.097091 
L 40.79281 31.168159 
z
" clip-path="url(#pc1e2815784)" style="fill: none; stroke: #ffb522"/>
    <path d="M 95.434496 31.168159 
L 102.505564 31.168159 
L 102.505564 24.097091 
L 95.434496 24.097091 
L 95.434496 31.168159 
z
" clip-path="url(#pc1e2815784)" style="fill: none; stroke: #ffb522"/>
    <path d="M 150.076183 31.701839 
L 157.14725 31.701839 
L 157.14725 24.630771 
L 150.076183 24.630771 
L 150.076183 31.701839 
z
" clip-path="url(#pc1e2815784)" style="fill: none; stroke: #ffb522"/>
    <path d="M 204.717869 37.015036 
L 211.788937 37.015036 
L 211.788937 29.943969 
L 204.717869 29.943969 
L 204.717869 37.015036 
z
" clip-path="url(#pc1e2815784)" style="fill: none; stroke: #ffb522"/>
    <path d="M 259.359555 33.063322 
L 266.430623 33.063322 
L 266.430623 25.992254 
L 259.359555 25.992254 
L 259.359555 33.063322 
z
" clip-path="url(#pc1e2815784)" style="fill: none; stroke: #ffb522"/>
    <path d="M 314.001242 35.879205 
L 321.07231 35.879205 
L 321.07231 28.808137 
L 314.001242 28.808137 
L 314.001242 35.879205 
z
" clip-path="url(#pc1e2815784)" style="fill: none; stroke: #ffb522"/>
    <path d="M 345.964579 41.616287 
L 353.035647 41.616287 
L 353.035647 34.54522 
L 345.964579 34.54522 
L 345.964579 41.616287 
z
" clip-path="url(#pc1e2815784)" style="fill: none; stroke: #ffb522"/>
    <path d="M 368.642928 51.216742 
L 375.713996 51.216742 
L 375.713996 44.145674 
L 368.642928 44.145674 
L 368.642928 51.216742 
z
" clip-path="url(#pc1e2815784)" style="fill: none; stroke: #ffb522"/>
   </g>
   <g id="PathCollection_3">
    <path d="M 44.328344 81.534245 
L 40.79281 88.605313 
L 47.863878 88.605313 
L 44.328344 81.534245 
z
" clip-path="url(#pc1e2815784)" style="fill: none; stroke: #91aac2"/>
    <path d="M 98.97003 98.66148 
L 95.434496 105.732547 
L 102.505564 105.732547 
L 98.97003 98.66148 
z
" clip-path="url(#pc1e2815784)" style="fill: none; stroke: #91aac2"/>
    <path d="M 153.611716 115.429897 
L 150.076183 122.500965 
L 157.14725 122.500965 
L 153.611716 115.429897 
z
" clip-path="url(#pc1e2815784)" style="fill: none; stroke: #91aac2"/>
    <path d="M 208.253403 132.695766 
L 204.717869 139.766834 
L 211.788937 139.766834 
L 208.253403 132.695766 
z
" clip-path="url(#pc1e2815784)" style="fill: none; stroke: #91aac2"/>
    <path d="M 262.895089 149.585899 
L 259.359555 156.656967 
L 266.430623 156.656967 
L 262.895089 149.585899 
z
" clip-path="url(#pc1e2815784)" style="fill: none; stroke: #91aac2"/>
    <path d="M 317.536776 165.035057 
L 314.001242 172.106124 
L 321.07231 172.106124 
L 317.536776 165.035057 
z
" clip-path="url(#pc1e2815784)" style="fill: none; stroke: #91aac2"/>
    <path d="M 349.500113 173.886021 
L 345.964579 180.957089 
L 353.035647 180.957089 
L 349.500113 173.886021 
z
" clip-path="url(#pc1e2815784)" style="fill: none; stroke: #91aac2"/>
    <path d="M 372.178462 176.797457 
L 368.642928 183.868525 
L 375.713996 183.868525 
L 372.178462 176.797457 
z
" clip-path="url(#pc1e2815784)" style="fill: none; stroke: #91aac2"/>
   </g>
   <g id="PathCollection_4">
    <defs>
     <path id="m23bb1a2aba" d="M -3.535534 3.535534 
L 3.535534 -3.535534 
M -3.535534 -3.535534 
L 3.535534 3.535534 
" style="stroke: #ea7dff; stroke-width: 1.5"/>
    </defs>
    <g clip-path="url(#pc1e2815784)">
     <use xlink:href="#m23bb1a2aba" x="44.328344" y="111.040315" style="fill: #ea7dff; stroke: #ea7dff; stroke-width: 1.5"/>
     <use xlink:href="#m23bb1a2aba" x="98.97003" y="130.267145" style="fill: #ea7dff; stroke: #ea7dff; stroke-width: 1.5"/>
     <use xlink:href="#m23bb1a2aba" x="153.611716" y="150.027014" style="fill: #ea7dff; stroke: #ea7dff; stroke-width: 1.5"/>
     <use xlink:href="#m23bb1a2aba" x="208.253403" y="164.773745" style="fill: #ea7dff; stroke: #ea7dff; stroke-width: 1.5"/>
     <use xlink:href="#m23bb1a2aba" x="262.895089" y="181.741914" style="fill: #ea7dff; stroke: #ea7dff; stroke-width: 1.5"/>
     <use xlink:href="#m23bb1a2aba" x="317.536776" y="197.324664" style="fill: #ea7dff; stroke: #ea7dff; stroke-width: 1.5"/>
     <use xlink:href="#m23bb1a2aba" x="349.500113" y="203.923131" style="fill: #ea7dff; stroke: #ea7dff; stroke-width: 1.5"/>
     <use xlink:href="#m23bb1a2aba" x="372.178462" y="210.82822" style="fill: #ea7dff; stroke: #ea7dff; stroke-width: 1.5"/>
    </g>
   </g>
   <g id="matplotlib.axis_1">
    <g id="xtick_1">
     <g id="line2d_1">
      <defs>
       <path id="mf156f0c536" d="M 0 0 
L 0 3.5 
" style="stroke: #000000; stroke-width: 0.8"/>
      </defs>
      <g>
       <use xlink:href="#mf156f0c536" x="188.793104" y="219.988" style="stroke: #000000; stroke-width: 0.8"/>
      </g>
     </g>
     <g id="text_1">
      <!-- $\mathdefault{10^{2}}$ -->
      <g transform="translate(177.353104 233.365969) scale(0.13 -0.13)">
       <defs>
        <path id="DejaVuSans-31" d="M 794 531 
L 1825 531 
L 1825 4091 
L 703 3866 
L 703 4441 
L 1819 4666 
L 2450 4666 
L 2450 531 
L 3481 531 
L 3481 0 
L 794 0 
L 794 531 
z
" transform="scale(0.015625)"/>
        <path id="DejaVuSans-30" d="M 2034 4250 
Q 1547 4250 1301 3770 
Q 1056 3291 1056 2328 
Q 1056 1369 1301 889 
Q 1547 409 2034 409 
Q 2525 409 2770 889 
Q 3016 1369 3016 2328 
Q 3016 3291 2770 3770 
Q 2525 4250 2034 4250 
z
M 2034 4750 
Q 2819 4750 3233 4129 
Q 3647 3509 3647 2328 
Q 3647 1150 3233 529 
Q 2819 -91 2034 -91 
Q 1250 -91 836 529 
Q 422 1150 422 2328 
Q 422 3509 836 4129 
Q 1250 4750 2034 4750 
z
" transform="scale(0.015625)"/>
        <path id="DejaVuSans-32" d="M 1228 531 
L 3431 531 
L 3431 0 
L 469 0 
L 469 531 
Q 828 903 1448 1529 
Q 2069 2156 2228 2338 
Q 2531 2678 2651 2914 
Q 2772 3150 2772 3378 
Q 2772 3750 2511 3984 
Q 2250 4219 1831 4219 
Q 1534 4219 1204 4116 
Q 875 4013 500 3803 
L 500 4441 
Q 881 4594 1212 4672 
Q 1544 4750 1819 4750 
Q 2544 4750 2975 4387 
Q 3406 4025 3406 3419 
Q 3406 3131 3298 2873 
Q 3191 2616 2906 2266 
Q 2828 2175 2409 1742 
Q 1991 1309 1228 531 
z
" transform="scale(0.015625)"/>
       </defs>
       <use xlink:href="#DejaVuSans-31" transform="translate(0 0.765625)"/>
       <use xlink:href="#DejaVuSans-30" transform="translate(63.623047 0.765625)"/>
       <use xlink:href="#DejaVuSans-32" transform="translate(128.203125 39.046875) scale(0.7)"/>
      </g>
     </g>
    </g>
    <g id="xtick_2">
     <g id="line2d_2">
      <g>
       <use xlink:href="#mf156f0c536" x="370.308858" y="219.988" style="stroke: #000000; stroke-width: 0.8"/>
      </g>
     </g>
     <g id="text_2">
      <!-- $\mathdefault{10^{3}}$ -->
      <g transform="translate(358.868858 233.365969) scale(0.13 -0.13)">
       <defs>
        <path id="DejaVuSans-33" d="M 2597 2516 
Q 3050 2419 3304 2112 
Q 3559 1806 3559 1356 
Q 3559 666 3084 287 
Q 2609 -91 1734 -91 
Q 1441 -91 1130 -33 
Q 819 25 488 141 
L 488 750 
Q 750 597 1062 519 
Q 1375 441 1716 441 
Q 2309 441 2620 675 
Q 2931 909 2931 1356 
Q 2931 1769 2642 2001 
Q 2353 2234 1838 2234 
L 1294 2234 
L 1294 2753 
L 1863 2753 
Q 2328 2753 2575 2939 
Q 2822 3125 2822 3475 
Q 2822 3834 2567 4026 
Q 2313 4219 1838 4219 
Q 1578 4219 1281 4162 
Q 984 4106 628 3988 
L 628 4550 
Q 988 4650 1302 4700 
Q 1616 4750 1894 4750 
Q 2613 4750 3031 4423 
Q 3450 4097 3450 3541 
Q 3450 3153 3228 2886 
Q 3006 2619 2597 2516 
z
" transform="scale(0.015625)"/>
       </defs>
       <use xlink:href="#DejaVuSans-31" transform="translate(0 0.765625)"/>
       <use xlink:href="#DejaVuSans-30" transform="translate(63.623047 0.765625)"/>
       <use xlink:href="#DejaVuSans-33" transform="translate(128.203125 39.046875) scale(0.7)"/>
      </g>
     </g>
    </g>
    <g id="xtick_3">
     <g id="line2d_3">
      <defs>
       <path id="m8ec84e315b" d="M 0 0 
L 0 2 
" style="stroke: #000000; stroke-width: 0.6"/>
      </defs>
      <g>
       <use xlink:href="#m8ec84e315b" x="61.919038" y="219.988" style="stroke: #000000; stroke-width: 0.6"/>
      </g>
     </g>
    </g>
    <g id="xtick_4">
     <g id="line2d_4">
      <g>
       <use xlink:href="#m8ec84e315b" x="93.882375" y="219.988" style="stroke: #000000; stroke-width: 0.6"/>
      </g>
     </g>
    </g>
    <g id="xtick_5">
     <g id="line2d_5">
      <g>
       <use xlink:href="#m8ec84e315b" x="116.560724" y="219.988" style="stroke: #000000; stroke-width: 0.6"/>
      </g>
     </g>
    </g>
    <g id="xtick_6">
     <g id="line2d_6">
      <g>
       <use xlink:href="#m8ec84e315b" x="134.151418" y="219.988" style="stroke: #000000; stroke-width: 0.6"/>
      </g>
     </g>
    </g>
    <g id="xtick_7">
     <g id="line2d_7">
      <g>
       <use xlink:href="#m8ec84e315b" x="148.524062" y="219.988" style="stroke: #000000; stroke-width: 0.6"/>
      </g>
     </g>
    </g>
    <g id="xtick_8">
     <g id="line2d_8">
      <g>
       <use xlink:href="#m8ec84e315b" x="160.675959" y="219.988" style="stroke: #000000; stroke-width: 0.6"/>
      </g>
     </g>
    </g>
    <g id="xtick_9">
     <g id="line2d_9">
      <g>
       <use xlink:href="#m8ec84e315b" x="171.20241" y="219.988" style="stroke: #000000; stroke-width: 0.6"/>
      </g>
     </g>
    </g>
    <g id="xtick_10">
     <g id="line2d_10">
      <g>
       <use xlink:href="#m8ec84e315b" x="180.487399" y="219.988" style="stroke: #000000; stroke-width: 0.6"/>
      </g>
     </g>
    </g>
    <g id="xtick_11">
     <g id="line2d_11">
      <g>
       <use xlink:href="#m8ec84e315b" x="243.434791" y="219.988" style="stroke: #000000; stroke-width: 0.6"/>
      </g>
     </g>
    </g>
    <g id="xtick_12">
     <g id="line2d_12">
      <g>
       <use xlink:href="#m8ec84e315b" x="275.398128" y="219.988" style="stroke: #000000; stroke-width: 0.6"/>
      </g>
     </g>
    </g>
    <g id="xtick_13">
     <g id="line2d_13">
      <g>
       <use xlink:href="#m8ec84e315b" x="298.076477" y="219.988" style="stroke: #000000; stroke-width: 0.6"/>
      </g>
     </g>
    </g>
    <g id="xtick_14">
     <g id="line2d_14">
      <g>
       <use xlink:href="#m8ec84e315b" x="315.667171" y="219.988" style="stroke: #000000; stroke-width: 0.6"/>
      </g>
     </g>
    </g>
    <g id="xtick_15">
     <g id="line2d_15">
      <g>
       <use xlink:href="#m8ec84e315b" x="330.039815" y="219.988" style="stroke: #000000; stroke-width: 0.6"/>
      </g>
     </g>
    </g>
    <g id="xtick_16">
     <g id="line2d_16">
      <g>
       <use xlink:href="#m8ec84e315b" x="342.191712" y="219.988" style="stroke: #000000; stroke-width: 0.6"/>
      </g>
     </g>
    </g>
    <g id="xtick_17">
     <g id="line2d_17">
      <g>
       <use xlink:href="#m8ec84e315b" x="352.718164" y="219.988" style="stroke: #000000; stroke-width: 0.6"/>
      </g>
     </g>
    </g>
    <g id="xtick_18">
     <g id="line2d_18">
      <g>
       <use xlink:href="#m8ec84e315b" x="362.003152" y="219.988" style="stroke: #000000; stroke-width: 0.6"/>
      </g>
     </g>
    </g>
   </g>
   <g id="matplotlib.axis_2">
    <g id="ytick_1">
     <g id="line2d_19">
      <defs>
       <path id="m43de5733ed" d="M 0 0 
L -3.5 0 
" style="stroke: #000000; stroke-width: 0.8"/>
      </defs>
      <g>
       <use xlink:href="#m43de5733ed" x="44.328344" y="182.731011" style="stroke: #000000; stroke-width: 0.8"/>
      </g>
     </g>
     <g id="text_3">
      <!-- $\mathdefault{10^{2}}$ -->
      <g transform="translate(14.448344 187.669996) scale(0.13 -0.13)">
       <use xlink:href="#DejaVuSans-31" transform="translate(0 0.765625)"/>
       <use xlink:href="#DejaVuSans-30" transform="translate(63.623047 0.765625)"/>
       <use xlink:href="#DejaVuSans-32" transform="translate(128.203125 39.046875) scale(0.7)"/>
      </g>
     </g>
    </g>
    <g id="ytick_2">
     <g id="line2d_20">
      <g>
       <use xlink:href="#m43de5733ed" x="44.328344" y="128.450179" style="stroke: #000000; stroke-width: 0.8"/>
      </g>
     </g>
     <g id="text_4">
      <!-- $\mathdefault{10^{3}}$ -->
      <g transform="translate(14.448344 133.389163) scale(0.13 -0.13)">
       <use xlink:href="#DejaVuSans-31" transform="translate(0 0.765625)"/>
       <use xlink:href="#DejaVuSans-30" transform="translate(63.623047 0.765625)"/>
       <use xlink:href="#DejaVuSans-33" transform="translate(128.203125 39.046875) scale(0.7)"/>
      </g>
     </g>
    </g>
    <g id="ytick_3">
     <g id="line2d_21">
      <g>
       <use xlink:href="#m43de5733ed" x="44.328344" y="74.169346" style="stroke: #000000; stroke-width: 0.8"/>
      </g>
     </g>
     <g id="text_5">
      <!-- $\mathdefault{10^{4}}$ -->
      <g transform="translate(14.448344 79.108331) scale(0.13 -0.13)">
       <defs>
        <path id="DejaVuSans-34" d="M 2419 4116 
L 825 1625 
L 2419 1625 
L 2419 4116 
z
M 2253 4666 
L 3047 4666 
L 3047 1625 
L 3713 1625 
L 3713 1100 
L 3047 1100 
L 3047 0 
L 2419 0 
L 2419 1100 
L 313 1100 
L 313 1709 
L 2253 4666 
z
" transform="scale(0.015625)"/>
       </defs>
       <use xlink:href="#DejaVuSans-31" transform="translate(0 0.684375)"/>
       <use xlink:href="#DejaVuSans-30" transform="translate(63.623047 0.684375)"/>
       <use xlink:href="#DejaVuSans-34" transform="translate(128.203125 38.965625) scale(0.7)"/>
      </g>
     </g>
    </g>
    <g id="ytick_4">
     <g id="line2d_22">
      <g>
       <use xlink:href="#m43de5733ed" x="44.328344" y="19.888514" style="stroke: #000000; stroke-width: 0.8"/>
      </g>
     </g>
     <g id="text_6">
      <!-- $\mathdefault{10^{5}}$ -->
      <g transform="translate(14.448344 24.827498) scale(0.13 -0.13)">
       <defs>
        <path id="DejaVuSans-35" d="M 691 4666 
L 3169 4666 
L 3169 4134 
L 1269 4134 
L 1269 2991 
Q 1406 3038 1543 3061 
Q 1681 3084 1819 3084 
Q 2600 3084 3056 2656 
Q 3513 2228 3513 1497 
Q 3513 744 3044 326 
Q 2575 -91 1722 -91 
Q 1428 -91 1123 -41 
Q 819 9 494 109 
L 494 744 
Q 775 591 1075 516 
Q 1375 441 1709 441 
Q 2250 441 2565 725 
Q 2881 1009 2881 1497 
Q 2881 1984 2565 2268 
Q 2250 2553 1709 2553 
Q 1456 2553 1204 2497 
Q 953 2441 691 2322 
L 691 4666 
z
" transform="scale(0.015625)"/>
       </defs>
       <use xlink:href="#DejaVuSans-31" transform="translate(0 0.684375)"/>
       <use xlink:href="#DejaVuSans-30" transform="translate(63.623047 0.684375)"/>
       <use xlink:href="#DejaVuSans-35" transform="translate(128.203125 38.965625) scale(0.7)"/>
      </g>
     </g>
    </g>
    <g id="ytick_5">
     <g id="line2d_23">
      <defs>
       <path id="mf53c038584" d="M 0 0 
L -2 0 
" style="stroke: #000000; stroke-width: 0.6"/>
      </defs>
      <g>
       <use xlink:href="#mf53c038584" x="44.328344" y="211.113305" style="stroke: #000000; stroke-width: 0.6"/>
      </g>
     </g>
    </g>
    <g id="ytick_6">
     <g id="line2d_24">
      <g>
       <use xlink:href="#mf53c038584" x="44.328344" y="204.331526" style="stroke: #000000; stroke-width: 0.6"/>
      </g>
     </g>
    </g>
    <g id="ytick_7">
     <g id="line2d_25">
      <g>
       <use xlink:href="#mf53c038584" x="44.328344" y="199.07117" style="stroke: #000000; stroke-width: 0.6"/>
      </g>
     </g>
    </g>
    <g id="ytick_8">
     <g id="line2d_26">
      <g>
       <use xlink:href="#mf53c038584" x="44.328344" y="194.773146" style="stroke: #000000; stroke-width: 0.6"/>
      </g>
     </g>
    </g>
    <g id="ytick_9">
     <g id="line2d_27">
      <g>
       <use xlink:href="#mf53c038584" x="44.328344" y="191.139219" style="stroke: #000000; stroke-width: 0.6"/>
      </g>
     </g>
    </g>
    <g id="ytick_10">
     <g id="line2d_28">
      <g>
       <use xlink:href="#mf53c038584" x="44.328344" y="187.991367" style="stroke: #000000; stroke-width: 0.6"/>
      </g>
     </g>
    </g>
    <g id="ytick_11">
     <g id="line2d_29">
      <g>
       <use xlink:href="#mf53c038584" x="44.328344" y="185.214766" style="stroke: #000000; stroke-width: 0.6"/>
      </g>
     </g>
    </g>
    <g id="ytick_12">
     <g id="line2d_30">
      <g>
       <use xlink:href="#mf53c038584" x="44.328344" y="166.390853" style="stroke: #000000; stroke-width: 0.6"/>
      </g>
     </g>
    </g>
    <g id="ytick_13">
     <g id="line2d_31">
      <g>
       <use xlink:href="#mf53c038584" x="44.328344" y="156.832472" style="stroke: #000000; stroke-width: 0.6"/>
      </g>
     </g>
    </g>
    <g id="ytick_14">
     <g id="line2d_32">
      <g>
       <use xlink:href="#mf53c038584" x="44.328344" y="150.050694" style="stroke: #000000; stroke-width: 0.6"/>
      </g>
     </g>
    </g>
    <g id="ytick_15">
     <g id="line2d_33">
      <g>
       <use xlink:href="#mf53c038584" x="44.328344" y="144.790338" style="stroke: #000000; stroke-width: 0.6"/>
      </g>
     </g>
    </g>
    <g id="ytick_16">
     <g id="line2d_34">
      <g>
       <use xlink:href="#mf53c038584" x="44.328344" y="140.492314" style="stroke: #000000; stroke-width: 0.6"/>
      </g>
     </g>
    </g>
    <g id="ytick_17">
     <g id="line2d_35">
      <g>
       <use xlink:href="#mf53c038584" x="44.328344" y="136.858386" style="stroke: #000000; stroke-width: 0.6"/>
      </g>
     </g>
    </g>
    <g id="ytick_18">
     <g id="line2d_36">
      <g>
       <use xlink:href="#mf53c038584" x="44.328344" y="133.710535" style="stroke: #000000; stroke-width: 0.6"/>
      </g>
     </g>
    </g>
    <g id="ytick_19">
     <g id="line2d_37">
      <g>
       <use xlink:href="#mf53c038584" x="44.328344" y="130.933933" style="stroke: #000000; stroke-width: 0.6"/>
      </g>
     </g>
    </g>
    <g id="ytick_20">
     <g id="line2d_38">
      <g>
       <use xlink:href="#mf53c038584" x="44.328344" y="112.11002" style="stroke: #000000; stroke-width: 0.6"/>
      </g>
     </g>
    </g>
    <g id="ytick_21">
     <g id="line2d_39">
      <g>
       <use xlink:href="#mf53c038584" x="44.328344" y="102.55164" style="stroke: #000000; stroke-width: 0.6"/>
      </g>
     </g>
    </g>
    <g id="ytick_22">
     <g id="line2d_40">
      <g>
       <use xlink:href="#mf53c038584" x="44.328344" y="95.769861" style="stroke: #000000; stroke-width: 0.6"/>
      </g>
     </g>
    </g>
    <g id="ytick_23">
     <g id="line2d_41">
      <g>
       <use xlink:href="#mf53c038584" x="44.328344" y="90.509505" style="stroke: #000000; stroke-width: 0.6"/>
      </g>
     </g>
    </g>
    <g id="ytick_24">
     <g id="line2d_42">
      <g>
       <use xlink:href="#mf53c038584" x="44.328344" y="86.211481" style="stroke: #000000; stroke-width: 0.6"/>
      </g>
     </g>
    </g>
    <g id="ytick_25">
     <g id="line2d_43">
      <g>
       <use xlink:href="#mf53c038584" x="44.328344" y="82.577554" style="stroke: #000000; stroke-width: 0.6"/>
      </g>
     </g>
    </g>
    <g id="ytick_26">
     <g id="line2d_44">
      <g>
       <use xlink:href="#mf53c038584" x="44.328344" y="79.429703" style="stroke: #000000; stroke-width: 0.6"/>
      </g>
     </g>
    </g>
    <g id="ytick_27">
     <g id="line2d_45">
      <g>
       <use xlink:href="#mf53c038584" x="44.328344" y="76.653101" style="stroke: #000000; stroke-width: 0.6"/>
      </g>
     </g>
    </g>
    <g id="ytick_28">
     <g id="line2d_46">
      <g>
       <use xlink:href="#mf53c038584" x="44.328344" y="57.829188" style="stroke: #000000; stroke-width: 0.6"/>
      </g>
     </g>
    </g>
    <g id="ytick_29">
     <g id="line2d_47">
      <g>
       <use xlink:href="#mf53c038584" x="44.328344" y="48.270807" style="stroke: #000000; stroke-width: 0.6"/>
      </g>
     </g>
    </g>
    <g id="ytick_30">
     <g id="line2d_48">
      <g>
       <use xlink:href="#mf53c038584" x="44.328344" y="41.489029" style="stroke: #000000; stroke-width: 0.6"/>
      </g>
     </g>
    </g>
    <g id="ytick_31">
     <g id="line2d_49">
      <g>
       <use xlink:href="#mf53c038584" x="44.328344" y="36.228673" style="stroke: #000000; stroke-width: 0.6"/>
      </g>
     </g>
    </g>
    <g id="ytick_32">
     <g id="line2d_50">
      <g>
       <use xlink:href="#mf53c038584" x="44.328344" y="31.930649" style="stroke: #000000; stroke-width: 0.6"/>
      </g>
     </g>
    </g>
    <g id="ytick_33">
     <g id="line2d_51">
      <g>
       <use xlink:href="#mf53c038584" x="44.328344" y="28.296721" style="stroke: #000000; stroke-width: 0.6"/>
      </g>
     </g>
    </g>
    <g id="ytick_34">
     <g id="line2d_52">
      <g>
       <use xlink:href="#mf53c038584" x="44.328344" y="25.14887" style="stroke: #000000; stroke-width: 0.6"/>
      </g>
     </g>
    </g>
    <g id="ytick_35">
     <g id="line2d_53">
      <g>
       <use xlink:href="#mf53c038584" x="44.328344" y="22.372269" style="stroke: #000000; stroke-width: 0.6"/>
      </g>
     </g>
    </g>
   </g>
   <g id="line2d_54">
    <path d="M 44.328344 34.170979 
L 98.97003 38.207589 
L 153.611716 35.307398 
L 208.253403 44.731301 
L 262.895089 36.973485 
L 317.536776 47.635744 
L 349.500113 50.387881 
L 372.178462 54.145427 
" clip-path="url(#pc1e2815784)" style="fill: none; stroke: #4494ff; stroke-width: 1.5; stroke-linecap: square"/>
   </g>
   <g id="line2d_55">
    <path d="M 44.328344 27.632625 
L 98.97003 27.632625 
L 153.611716 28.166305 
L 208.253403 33.479503 
L 262.895089 29.527788 
L 317.536776 32.343671 
L 349.500113 38.080754 
L 372.178462 47.681208 
" clip-path="url(#pc1e2815784)" style="fill: none; stroke: #ffb522; stroke-width: 1.5; stroke-linecap: square"/>
   </g>
   <g id="line2d_56">
    <path d="M 44.328344 85.069779 
L 98.97003 102.197014 
L 153.611716 118.965431 
L 208.253403 136.2313 
L 262.895089 153.121433 
L 317.536776 168.57059 
L 349.500113 177.421555 
L 372.178462 180.332991 
" clip-path="url(#pc1e2815784)" style="fill: none; stroke: #91aac2; stroke-width: 1.5; stroke-linecap: square"/>
   </g>
   <g id="line2d_57">
    <path d="M 44.328344 111.040315 
L 98.97003 130.267145 
L 153.611716 150.027014 
L 208.253403 164.773745 
L 262.895089 181.741914 
L 317.536776 197.324664 
L 349.500113 203.923131 
L 372.178462 210.82822 
" clip-path="url(#pc1e2815784)" style="fill: none; stroke: #ea7dff; stroke-width: 1.5; stroke-linecap: square"/>
   </g>
   <g id="patch_3">
    <path d="M 44.328344 219.988 
L 44.328344 18.472845 
" style="fill: none; stroke: #000000; stroke-width: 0.8; stroke-linejoin: miter; stroke-linecap: square"/>
   </g>
   <g id="patch_4">
    <path d="M 372.178462 219.988 
L 372.178462 18.472845 
" style="fill: none; stroke: #000000; stroke-width: 0.8; stroke-linejoin: miter; stroke-linecap: square"/>
   </g>
   <g id="patch_5">
    <path d="M 44.328344 219.988 
L 372.178462 219.988 
" style="fill: none; stroke: #000000; stroke-width: 0.8; stroke-linejoin: miter; stroke-linecap: square"/>
   </g>
   <g id="patch_6">
    <path d="M 44.328344 18.472845 
L 372.178462 18.472845 
" style="fill: none; stroke: #000000; stroke-width: 0.8; stroke-linejoin: miter; stroke-linecap: square"/>
   </g>
  </g>
 </g>
 <defs>
  <clipPath id="pc1e2815784">
   <rect x="44.328344" y="18.472845" width="327.850118" height="201.515155"/>
  </clipPath>
 </defs>
</svg>
