<?xml version="1.0" encoding="utf-8" standalone="no"?>
<!DOCTYPE svg PUBLIC "-//W3C//DTD SVG 1.1//EN"
  "http://www.w3.org/Graphics/SVG/1.1/DTD/svg11.dtd">
<svg xmlns:xlink="http://www.w3.org/1999/xlink" width="396pt" height="234pt" viewBox="0 0 396 234" xmlns="http://www.w3.org/2000/svg" version="1.1">
 <metadata>
  <rdf:RDF xmlns:dc="http://purl.org/dc/elements/1.1/" xmlns:cc="http://creativecommons.org/ns#" xmlns:rdf="http://www.w3.org/1999/02/22-rdf-syntax-ns#">
   <cc:Work>
    <dc:type rdf:resource="http://purl.org/dc/dcmitype/StillImage"/>
    <dc:date>2023-05-31T15:32:23.788405</dc:date>
    <dc:format>image/svg+xml</dc:format>
    <dc:creator>
     <cc:Agent>
      <dc:title>Matplotlib v3.6.3, https://matplotlib.org/</dc:title>
     </cc:Agent>
    </dc:creator>
   </cc:Work>
  </rdf:RDF>
 </metadata>
 <defs>
  <style type="text/css">*{stroke-linejoin: round; stroke-linecap: butt}</style>
 </defs>
 <g id="figure_1">
  <g id="patch_1">
   <path d="M 0 234 
L 396 234 
L 396 0 
L 0 0 
z
" style="fill: #ffffff"/>
  </g>
  <g id="axes_1">
   <g id="patch_2">
    <path d="M 53.35 199.612 
L 370.191283 199.612 
L 370.191283 19.379165 
L 53.35 19.379165 
z
" style="fill: #ffffff"/>
   </g>
   <g id="matplotlib.axis_1">
    <g id="xtick_1">
     <g id="line2d_1">
      <defs>
       <path id="mc114d50d7d" d="M 0 0 
L 0 3.5 
" style="stroke: #000000; stroke-width: 0.8"/>
      </defs>
      <g>
       <use xlink:href="#mc114d50d7d" x="192.963798" y="199.612" style="stroke: #000000; stroke-width: 0.8"/>
      </g>
     </g>
     <g id="text_1">
      <!-- $\mathdefault{10^{2}}$ -->
      <g transform="translate(180.643798 213.749813) scale(0.14 -0.14)">
       <defs>
        <path id="DejaVuSans-31" d="M 794 531 
L 1825 531 
L 1825 4091 
L 703 3866 
L 703 4441 
L 1819 4666 
L 2450 4666 
L 2450 531 
L 3481 531 
L 3481 0 
L 794 0 
L 794 531 
z
" transform="scale(0.015625)"/>
        <path id="DejaVuSans-30" d="M 2034 4250 
Q 1547 4250 1301 3770 
Q 1056 3291 1056 2328 
Q 1056 1369 1301 889 
Q 1547 409 2034 409 
Q 2525 409 2770 889 
Q 3016 1369 3016 2328 
Q 3016 3291 2770 3770 
Q 2525 4250 2034 4250 
z
M 2034 4750 
Q 2819 4750 3233 4129 
Q 3647 3509 3647 2328 
Q 3647 1150 3233 529 
Q 2819 -91 2034 -91 
Q 1250 -91 836 529 
Q 422 1150 422 2328 
Q 422 3509 836 4129 
Q 1250 4750 2034 4750 
z
" transform="scale(0.015625)"/>
        <path id="DejaVuSans-32" d="M 1228 531 
L 3431 531 
L 3431 0 
L 469 0 
L 469 531 
Q 828 903 1448 1529 
Q 2069 2156 2228 2338 
Q 2531 2678 2651 2914 
Q 2772 3150 2772 3378 
Q 2772 3750 2511 3984 
Q 2250 4219 1831 4219 
Q 1534 4219 1204 4116 
Q 875 4013 500 3803 
L 500 4441 
Q 881 4594 1212 4672 
Q 1544 4750 1819 4750 
Q 2544 4750 2975 4387 
Q 3406 4025 3406 3419 
Q 3406 3131 3298 2873 
Q 3191 2616 2906 2266 
Q 2828 2175 2409 1742 
Q 1991 1309 1228 531 
z
" transform="scale(0.015625)"/>
       </defs>
       <use xlink:href="#DejaVuSans-31" transform="translate(0 0.765625)"/>
       <use xlink:href="#DejaVuSans-30" transform="translate(63.623047 0.765625)"/>
       <use xlink:href="#DejaVuSans-32" transform="translate(128.203125 39.046875) scale(0.7)"/>
      </g>
     </g>
    </g>
    <g id="xtick_2">
     <g id="line2d_2">
      <g>
       <use xlink:href="#mc114d50d7d" x="368.384458" y="199.612" style="stroke: #000000; stroke-width: 0.8"/>
      </g>
     </g>
     <g id="text_2">
      <!-- $\mathdefault{10^{3}}$ -->
      <g transform="translate(356.064458 213.749813) scale(0.14 -0.14)">
       <defs>
        <path id="DejaVuSans-33" d="M 2597 2516 
Q 3050 2419 3304 2112 
Q 3559 1806 3559 1356 
Q 3559 666 3084 287 
Q 2609 -91 1734 -91 
Q 1441 -91 1130 -33 
Q 819 25 488 141 
L 488 750 
Q 750 597 1062 519 
Q 1375 441 1716 441 
Q 2309 441 2620 675 
Q 2931 909 2931 1356 
Q 2931 1769 2642 2001 
Q 2353 2234 1838 2234 
L 1294 2234 
L 1294 2753 
L 1863 2753 
Q 2328 2753 2575 2939 
Q 2822 3125 2822 3475 
Q 2822 3834 2567 4026 
Q 2313 4219 1838 4219 
Q 1578 4219 1281 4162 
Q 984 4106 628 3988 
L 628 4550 
Q 988 4650 1302 4700 
Q 1616 4750 1894 4750 
Q 2613 4750 3031 4423 
Q 3450 4097 3450 3541 
Q 3450 3153 3228 2886 
Q 3006 2619 2597 2516 
z
" transform="scale(0.015625)"/>
       </defs>
       <use xlink:href="#DejaVuSans-31" transform="translate(0 0.765625)"/>
       <use xlink:href="#DejaVuSans-30" transform="translate(63.623047 0.765625)"/>
       <use xlink:href="#DejaVuSans-33" transform="translate(128.203125 39.046875) scale(0.7)"/>
      </g>
     </g>
    </g>
    <g id="xtick_3">
     <g id="line2d_3">
      <defs>
       <path id="m5194411541" d="M 0 0 
L 0 2 
" style="stroke: #000000; stroke-width: 0.6"/>
      </defs>
      <g>
       <use xlink:href="#m5194411541" x="70.350018" y="199.612" style="stroke: #000000; stroke-width: 0.6"/>
      </g>
     </g>
    </g>
    <g id="xtick_4">
     <g id="line2d_4">
      <g>
       <use xlink:href="#m5194411541" x="101.240063" y="199.612" style="stroke: #000000; stroke-width: 0.6"/>
      </g>
     </g>
    </g>
    <g id="xtick_5">
     <g id="line2d_5">
      <g>
       <use xlink:href="#m5194411541" x="123.156899" y="199.612" style="stroke: #000000; stroke-width: 0.6"/>
      </g>
     </g>
    </g>
    <g id="xtick_6">
     <g id="line2d_6">
      <g>
       <use xlink:href="#m5194411541" x="140.156917" y="199.612" style="stroke: #000000; stroke-width: 0.6"/>
      </g>
     </g>
    </g>
    <g id="xtick_7">
     <g id="line2d_7">
      <g>
       <use xlink:href="#m5194411541" x="154.046944" y="199.612" style="stroke: #000000; stroke-width: 0.6"/>
      </g>
     </g>
    </g>
    <g id="xtick_8">
     <g id="line2d_8">
      <g>
       <use xlink:href="#m5194411541" x="165.790794" y="199.612" style="stroke: #000000; stroke-width: 0.6"/>
      </g>
     </g>
    </g>
    <g id="xtick_9">
     <g id="line2d_9">
      <g>
       <use xlink:href="#m5194411541" x="175.963779" y="199.612" style="stroke: #000000; stroke-width: 0.6"/>
      </g>
     </g>
    </g>
    <g id="xtick_10">
     <g id="line2d_10">
      <g>
       <use xlink:href="#m5194411541" x="184.936989" y="199.612" style="stroke: #000000; stroke-width: 0.6"/>
      </g>
     </g>
    </g>
    <g id="xtick_11">
     <g id="line2d_11">
      <g>
       <use xlink:href="#m5194411541" x="245.770678" y="199.612" style="stroke: #000000; stroke-width: 0.6"/>
      </g>
     </g>
    </g>
    <g id="xtick_12">
     <g id="line2d_12">
      <g>
       <use xlink:href="#m5194411541" x="276.660723" y="199.612" style="stroke: #000000; stroke-width: 0.6"/>
      </g>
     </g>
    </g>
    <g id="xtick_13">
     <g id="line2d_13">
      <g>
       <use xlink:href="#m5194411541" x="298.577559" y="199.612" style="stroke: #000000; stroke-width: 0.6"/>
      </g>
     </g>
    </g>
    <g id="xtick_14">
     <g id="line2d_14">
      <g>
       <use xlink:href="#m5194411541" x="315.577577" y="199.612" style="stroke: #000000; stroke-width: 0.6"/>
      </g>
     </g>
    </g>
    <g id="xtick_15">
     <g id="line2d_15">
      <g>
       <use xlink:href="#m5194411541" x="329.467604" y="199.612" style="stroke: #000000; stroke-width: 0.6"/>
      </g>
     </g>
    </g>
    <g id="xtick_16">
     <g id="line2d_16">
      <g>
       <use xlink:href="#m5194411541" x="341.211454" y="199.612" style="stroke: #000000; stroke-width: 0.6"/>
      </g>
     </g>
    </g>
    <g id="xtick_17">
     <g id="line2d_17">
      <g>
       <use xlink:href="#m5194411541" x="351.384439" y="199.612" style="stroke: #000000; stroke-width: 0.6"/>
      </g>
     </g>
    </g>
    <g id="xtick_18">
     <g id="line2d_18">
      <g>
       <use xlink:href="#m5194411541" x="360.357649" y="199.612" style="stroke: #000000; stroke-width: 0.6"/>
      </g>
     </g>
    </g>
   </g>
   <g id="matplotlib.axis_2">
    <g id="ytick_1">
     <g id="line2d_19">
      <defs>
       <path id="m097e962916" d="M 0 0 
L -3.5 0 
" style="stroke: #000000; stroke-width: 0.8"/>
      </defs>
      <g>
       <use xlink:href="#m097e962916" x="53.35" y="173.964251" style="stroke: #000000; stroke-width: 0.8"/>
      </g>
     </g>
     <g id="text_3">
      <!-- 0.25 -->
      <g transform="translate(15.178125 179.283157) scale(0.14 -0.14)">
       <defs>
        <path id="DejaVuSans-2e" d="M 684 794 
L 1344 794 
L 1344 0 
L 684 0 
L 684 794 
z
" transform="scale(0.015625)"/>
        <path id="DejaVuSans-35" d="M 691 4666 
L 3169 4666 
L 3169 4134 
L 1269 4134 
L 1269 2991 
Q 1406 3038 1543 3061 
Q 1681 3084 1819 3084 
Q 2600 3084 3056 2656 
Q 3513 2228 3513 1497 
Q 3513 744 3044 326 
Q 2575 -91 1722 -91 
Q 1428 -91 1123 -41 
Q 819 9 494 109 
L 494 744 
Q 775 591 1075 516 
Q 1375 441 1709 441 
Q 2250 441 2565 725 
Q 2881 1009 2881 1497 
Q 2881 1984 2565 2268 
Q 2250 2553 1709 2553 
Q 1456 2553 1204 2497 
Q 953 2441 691 2322 
L 691 4666 
z
" transform="scale(0.015625)"/>
       </defs>
       <use xlink:href="#DejaVuSans-30"/>
       <use xlink:href="#DejaVuSans-2e" x="63.623047"/>
       <use xlink:href="#DejaVuSans-32" x="95.410156"/>
       <use xlink:href="#DejaVuSans-35" x="159.033203"/>
      </g>
     </g>
    </g>
    <g id="ytick_2">
     <g id="line2d_20">
      <g>
       <use xlink:href="#m097e962916" x="53.35" y="143.275468" style="stroke: #000000; stroke-width: 0.8"/>
      </g>
     </g>
     <g id="text_4">
      <!-- 0.30 -->
      <g transform="translate(15.178125 148.594374) scale(0.14 -0.14)">
       <use xlink:href="#DejaVuSans-30"/>
       <use xlink:href="#DejaVuSans-2e" x="63.623047"/>
       <use xlink:href="#DejaVuSans-33" x="95.410156"/>
       <use xlink:href="#DejaVuSans-30" x="159.033203"/>
      </g>
     </g>
    </g>
    <g id="ytick_3">
     <g id="line2d_21">
      <g>
       <use xlink:href="#m097e962916" x="53.35" y="112.586684" style="stroke: #000000; stroke-width: 0.8"/>
      </g>
     </g>
     <g id="text_5">
      <!-- 0.35 -->
      <g transform="translate(15.178125 117.905591) scale(0.14 -0.14)">
       <use xlink:href="#DejaVuSans-30"/>
       <use xlink:href="#DejaVuSans-2e" x="63.623047"/>
       <use xlink:href="#DejaVuSans-33" x="95.410156"/>
       <use xlink:href="#DejaVuSans-35" x="159.033203"/>
      </g>
     </g>
    </g>
    <g id="ytick_4">
     <g id="line2d_22">
      <g>
       <use xlink:href="#m097e962916" x="53.35" y="81.897901" style="stroke: #000000; stroke-width: 0.8"/>
      </g>
     </g>
     <g id="text_6">
      <!-- 0.40 -->
      <g transform="translate(15.178125 87.216807) scale(0.14 -0.14)">
       <defs>
        <path id="DejaVuSans-34" d="M 2419 4116 
L 825 1625 
L 2419 1625 
L 2419 4116 
z
M 2253 4666 
L 3047 4666 
L 3047 1625 
L 3713 1625 
L 3713 1100 
L 3047 1100 
L 3047 0 
L 2419 0 
L 2419 1100 
L 313 1100 
L 313 1709 
L 2253 4666 
z
" transform="scale(0.015625)"/>
       </defs>
       <use xlink:href="#DejaVuSans-30"/>
       <use xlink:href="#DejaVuSans-2e" x="63.623047"/>
       <use xlink:href="#DejaVuSans-34" x="95.410156"/>
       <use xlink:href="#DejaVuSans-30" x="159.033203"/>
      </g>
     </g>
    </g>
    <g id="ytick_5">
     <g id="line2d_23">
      <g>
       <use xlink:href="#m097e962916" x="53.35" y="51.209118" style="stroke: #000000; stroke-width: 0.8"/>
      </g>
     </g>
     <g id="text_7">
      <!-- 0.45 -->
      <g transform="translate(15.178125 56.528024) scale(0.14 -0.14)">
       <use xlink:href="#DejaVuSans-30"/>
       <use xlink:href="#DejaVuSans-2e" x="63.623047"/>
       <use xlink:href="#DejaVuSans-34" x="95.410156"/>
       <use xlink:href="#DejaVuSans-35" x="159.033203"/>
      </g>
     </g>
    </g>
    <g id="ytick_6">
     <g id="line2d_24">
      <g>
       <use xlink:href="#m097e962916" x="53.35" y="20.520335" style="stroke: #000000; stroke-width: 0.8"/>
      </g>
     </g>
     <g id="text_8">
      <!-- 0.50 -->
      <g transform="translate(15.178125 25.839241) scale(0.14 -0.14)">
       <use xlink:href="#DejaVuSans-30"/>
       <use xlink:href="#DejaVuSans-2e" x="63.623047"/>
       <use xlink:href="#DejaVuSans-35" x="95.410156"/>
       <use xlink:href="#DejaVuSans-30" x="159.033203"/>
      </g>
     </g>
    </g>
   </g>
   <g id="line2d_25">
    <path d="M 53.35 127.764619 
L 106.156881 118.287118 
L 158.963761 108.767177 
L 211.770642 106.232256 
L 264.577522 107.853943 
L 317.384403 104.001541 
L 348.274447 102.13417 
L 370.191283 103.098525 
" clip-path="url(#p2ca5466209)" style="fill: none; stroke: #4494ff; stroke-width: 1.5; stroke-linecap: square"/>
    <defs>
     <path id="m26cdc951e5" d="M 0 3 
C 0.795609 3 1.55874 2.683901 2.12132 2.12132 
C 2.683901 1.55874 3 0.795609 3 0 
C 3 -0.795609 2.683901 -1.55874 2.12132 -2.12132 
C 1.55874 -2.683901 0.795609 -3 0 -3 
C -0.795609 -3 -1.55874 -2.683901 -2.12132 -2.12132 
C -2.683901 -1.55874 -3 -0.795609 -3 0 
C -3 0.795609 -2.683901 1.55874 -2.12132 2.12132 
C -1.55874 2.683901 -0.795609 3 0 3 
z
" style="stroke: #4494ff"/>
    </defs>
    <g clip-path="url(#p2ca5466209)">
     <use xlink:href="#m26cdc951e5" x="53.35" y="127.764619" style="fill: #4494ff; stroke: #4494ff"/>
     <use xlink:href="#m26cdc951e5" x="106.156881" y="118.287118" style="fill: #4494ff; stroke: #4494ff"/>
     <use xlink:href="#m26cdc951e5" x="158.963761" y="108.767177" style="fill: #4494ff; stroke: #4494ff"/>
     <use xlink:href="#m26cdc951e5" x="211.770642" y="106.232256" style="fill: #4494ff; stroke: #4494ff"/>
     <use xlink:href="#m26cdc951e5" x="264.577522" y="107.853943" style="fill: #4494ff; stroke: #4494ff"/>
     <use xlink:href="#m26cdc951e5" x="317.384403" y="104.001541" style="fill: #4494ff; stroke: #4494ff"/>
     <use xlink:href="#m26cdc951e5" x="348.274447" y="102.13417" style="fill: #4494ff; stroke: #4494ff"/>
     <use xlink:href="#m26cdc951e5" x="370.191283" y="103.098525" style="fill: #4494ff; stroke: #4494ff"/>
    </g>
   </g>
   <g id="line2d_26">
    <path d="M 53.35 149.801832 
L 106.156881 147.004875 
L 158.963761 124.12936 
L 211.770642 108.689043 
L 264.577522 111.642143 
L 317.384403 104.663361 
L 348.274447 106.048933 
L 370.191283 100.332606 
" clip-path="url(#p2ca5466209)" style="fill: none; stroke: #ffb522; stroke-width: 1.5; stroke-linecap: square"/>
    <defs>
     <path id="maa7f701aa9" d="M -3 3 
L 3 3 
L 3 -3 
L -3 -3 
z
" style="stroke: #ffb522; stroke-linejoin: miter"/>
    </defs>
    <g clip-path="url(#p2ca5466209)">
     <use xlink:href="#maa7f701aa9" x="53.35" y="149.801832" style="fill: #ffb522; stroke: #ffb522; stroke-linejoin: miter"/>
     <use xlink:href="#maa7f701aa9" x="106.156881" y="147.004875" style="fill: #ffb522; stroke: #ffb522; stroke-linejoin: miter"/>
     <use xlink:href="#maa7f701aa9" x="158.963761" y="124.12936" style="fill: #ffb522; stroke: #ffb522; stroke-linejoin: miter"/>
     <use xlink:href="#maa7f701aa9" x="211.770642" y="108.689043" style="fill: #ffb522; stroke: #ffb522; stroke-linejoin: miter"/>
     <use xlink:href="#maa7f701aa9" x="264.577522" y="111.642143" style="fill: #ffb522; stroke: #ffb522; stroke-linejoin: miter"/>
     <use xlink:href="#maa7f701aa9" x="317.384403" y="104.663361" style="fill: #ffb522; stroke: #ffb522; stroke-linejoin: miter"/>
     <use xlink:href="#maa7f701aa9" x="348.274447" y="106.048933" style="fill: #ffb522; stroke: #ffb522; stroke-linejoin: miter"/>
     <use xlink:href="#maa7f701aa9" x="370.191283" y="100.332606" style="fill: #ffb522; stroke: #ffb522; stroke-linejoin: miter"/>
    </g>
   </g>
   <g id="line2d_27">
    <path d="M 53.35 160.905846 
L 106.156881 157.127762 
L 158.963761 156.754714 
L 211.770642 154.187239 
L 264.577522 157.129225 
L 317.384403 163.130122 
L 348.274447 149.179201 
L 370.191283 152.530485 
" clip-path="url(#p2ca5466209)" style="fill: none; stroke: #91aac2; stroke-width: 1.5; stroke-linecap: square"/>
    <defs>
     <path id="mde509771c8" d="M 0 -3 
L -3 3 
L 3 3 
z
" style="stroke: #91aac2; stroke-linejoin: miter"/>
    </defs>
    <g clip-path="url(#p2ca5466209)">
     <use xlink:href="#mde509771c8" x="53.35" y="160.905846" style="fill: #91aac2; stroke: #91aac2; stroke-linejoin: miter"/>
     <use xlink:href="#mde509771c8" x="106.156881" y="157.127762" style="fill: #91aac2; stroke: #91aac2; stroke-linejoin: miter"/>
     <use xlink:href="#mde509771c8" x="158.963761" y="156.754714" style="fill: #91aac2; stroke: #91aac2; stroke-linejoin: miter"/>
     <use xlink:href="#mde509771c8" x="211.770642" y="154.187239" style="fill: #91aac2; stroke: #91aac2; stroke-linejoin: miter"/>
     <use xlink:href="#mde509771c8" x="264.577522" y="157.129225" style="fill: #91aac2; stroke: #91aac2; stroke-linejoin: miter"/>
     <use xlink:href="#mde509771c8" x="317.384403" y="163.130122" style="fill: #91aac2; stroke: #91aac2; stroke-linejoin: miter"/>
     <use xlink:href="#mde509771c8" x="348.274447" y="149.179201" style="fill: #91aac2; stroke: #91aac2; stroke-linejoin: miter"/>
     <use xlink:href="#mde509771c8" x="370.191283" y="152.530485" style="fill: #91aac2; stroke: #91aac2; stroke-linejoin: miter"/>
    </g>
   </g>
   <g id="line2d_28">
    <path d="M 53.35 191.419598 
L 106.156881 162.289923 
L 158.963761 157.300914 
L 211.770642 136.283085 
L 264.577522 188.868046 
L 317.384403 161.940741 
L 348.274447 155.511487 
L 370.191283 146.982838 
" clip-path="url(#p2ca5466209)" style="fill: none; stroke: #ea7dff; stroke-width: 1.5; stroke-linecap: square"/>
    <defs>
     <path id="m69708f9cc7" d="M -3 3 
L 3 -3 
M -3 -3 
L 3 3 
" style="stroke: #ea7dff"/>
    </defs>
    <g clip-path="url(#p2ca5466209)">
     <use xlink:href="#m69708f9cc7" x="53.35" y="191.419598" style="fill: #ea7dff; stroke: #ea7dff"/>
     <use xlink:href="#m69708f9cc7" x="106.156881" y="162.289923" style="fill: #ea7dff; stroke: #ea7dff"/>
     <use xlink:href="#m69708f9cc7" x="158.963761" y="157.300914" style="fill: #ea7dff; stroke: #ea7dff"/>
     <use xlink:href="#m69708f9cc7" x="211.770642" y="136.283085" style="fill: #ea7dff; stroke: #ea7dff"/>
     <use xlink:href="#m69708f9cc7" x="264.577522" y="188.868046" style="fill: #ea7dff; stroke: #ea7dff"/>
     <use xlink:href="#m69708f9cc7" x="317.384403" y="161.940741" style="fill: #ea7dff; stroke: #ea7dff"/>
     <use xlink:href="#m69708f9cc7" x="348.274447" y="155.511487" style="fill: #ea7dff; stroke: #ea7dff"/>
     <use xlink:href="#m69708f9cc7" x="370.191283" y="146.982838" style="fill: #ea7dff; stroke: #ea7dff"/>
    </g>
   </g>
   <g id="line2d_29">
    <path d="M 53.35 27.571566 
L 370.191283 27.571566 
" clip-path="url(#p2ca5466209)" style="fill: none; stroke-dasharray: 1.5,2.475; stroke-dashoffset: 0; stroke: #000000; stroke-width: 1.5"/>
   </g>
   <g id="line2d_30">
    <path d="M 53.35 159.576681 
L 370.191283 159.576681 
" clip-path="url(#p2ca5466209)" style="fill: none; stroke-dasharray: 5.55,2.4; stroke-dashoffset: 0; stroke: #ff7133; stroke-width: 1.5"/>
   </g>
   <g id="line2d_31">
    <path d="M 53.35 161.940741 
L 370.191283 161.940741 
" clip-path="url(#p2ca5466209)" style="fill: none; stroke-dasharray: 9.6,2.4,1.5,2.4; stroke-dashoffset: 0; stroke: #228b22; stroke-width: 1.5"/>
   </g>
   <g id="line2d_32">
    <path d="M 53.35 27.571566 
L 370.191283 27.571566 
" clip-path="url(#p2ca5466209)" style="fill: none; stroke-dasharray: 1.5,2.475; stroke-dashoffset: 0; stroke: #000000; stroke-width: 1.5"/>
   </g>
   <g id="line2d_33">
    <path d="M 53.35 159.576681 
L 370.191283 159.576681 
" clip-path="url(#p2ca5466209)" style="fill: none; stroke-dasharray: 5.55,2.4; stroke-dashoffset: 0; stroke: #ff7133; stroke-width: 1.5"/>
   </g>
   <g id="line2d_34">
    <path d="M 53.35 161.940741 
L 370.191283 161.940741 
" clip-path="url(#p2ca5466209)" style="fill: none; stroke-dasharray: 9.6,2.4,1.5,2.4; stroke-dashoffset: 0; stroke: #228b22; stroke-width: 1.5"/>
   </g>
   <g id="patch_3">
    <path d="M 53.35 199.612 
L 53.35 19.379165 
" style="fill: none; stroke: #000000; stroke-width: 0.8; stroke-linejoin: miter; stroke-linecap: square"/>
   </g>
   <g id="patch_4">
    <path d="M 370.191283 199.612 
L 370.191283 19.379165 
" style="fill: none; stroke: #000000; stroke-width: 0.8; stroke-linejoin: miter; stroke-linecap: square"/>
   </g>
   <g id="patch_5">
    <path d="M 53.35 199.612 
L 370.191283 199.612 
" style="fill: none; stroke: #000000; stroke-width: 0.8; stroke-linejoin: miter; stroke-linecap: square"/>
   </g>
   <g id="patch_6">
    <path d="M 53.35 19.379165 
L 370.191283 19.379165 
" style="fill: none; stroke: #000000; stroke-width: 0.8; stroke-linejoin: miter; stroke-linecap: square"/>
   </g>
  </g>
 </g>
 <defs>
  <clipPath id="p2ca5466209">
   <rect x="53.35" y="19.379165" width="316.841283" height="180.232835"/>
  </clipPath>
 </defs>
</svg>
